<mxfile host="Electron" agent="Mozilla/5.0 (Windows NT 10.0; Win64; x64) AppleWebKit/537.36 (KHTML, like Gecko) draw.io/28.0.4 Chrome/138.0.7204.97 Electron/37.2.1 Safari/537.36" version="28.0.4">
  <diagram name="Seite-1" id="Ul3aRqIEvuwvDgEJjYV_">
    <mxGraphModel dx="21294" dy="9176" grid="1" gridSize="10" guides="1" tooltips="1" connect="1" arrows="1" fold="1" page="1" pageScale="1" pageWidth="827" pageHeight="1169" math="0" shadow="0">
      <root>
        <mxCell id="0" />
        <mxCell id="1" parent="0" />
        <mxCell id="oyaKjV_WXcEfCoysOoAM-83" value="" style="endArrow=classic;html=1;rounded=0;fontFamily=Helvetica;fontSize=18;fontColor=default;strokeWidth=20;fillColor=#f5f5f5;strokeColor=#666666;exitX=0.221;exitY=0.921;exitDx=0;exitDy=0;entryX=0.702;entryY=0.041;entryDx=0;entryDy=0;exitPerimeter=0;entryPerimeter=0;" parent="1" edge="1">
          <mxGeometry width="50" height="50" relative="1" as="geometry">
            <mxPoint x="5050" y="940" as="sourcePoint" />
            <mxPoint x="5450" y="1640" as="targetPoint" />
          </mxGeometry>
        </mxCell>
        <mxCell id="oyaKjV_WXcEfCoysOoAM-64" value="" style="endArrow=classic;html=1;rounded=0;fontFamily=Helvetica;fontSize=18;fontColor=default;strokeWidth=20;fillColor=#d5e8d4;strokeColor=#82b366;exitX=0.221;exitY=0.921;exitDx=0;exitDy=0;entryX=0.702;entryY=0.041;entryDx=0;entryDy=0;exitPerimeter=0;entryPerimeter=0;flowAnimation=1;dashed=1;dashPattern=1 1;" parent="1" edge="1">
          <mxGeometry width="50" height="50" relative="1" as="geometry">
            <mxPoint x="2550" y="940" as="sourcePoint" />
            <mxPoint x="2950" y="1640" as="targetPoint" />
          </mxGeometry>
        </mxCell>
        <mxCell id="oyaKjV_WXcEfCoysOoAM-112" style="edgeStyle=orthogonalEdgeStyle;rounded=0;orthogonalLoop=1;jettySize=auto;html=1;exitX=0.5;exitY=1;exitDx=0;exitDy=0;strokeWidth=20;flowAnimation=1;fillColor=#d5e8d4;strokeColor=#82b366;curved=1;dashed=1;dashPattern=1 1;" parent="1" edge="1">
          <mxGeometry relative="1" as="geometry">
            <mxPoint x="5600" y="2560" as="targetPoint" />
            <mxPoint x="5599.97" y="2200" as="sourcePoint" />
            <Array as="points">
              <mxPoint x="5600" y="2240" />
              <mxPoint x="5460" y="2240" />
              <mxPoint x="5460" y="2290" />
              <mxPoint x="5740" y="2290" />
              <mxPoint x="5740" y="2340" />
              <mxPoint x="5500" y="2340" />
              <mxPoint x="5500" y="2390" />
              <mxPoint x="5690" y="2390" />
              <mxPoint x="5690" y="2440" />
              <mxPoint x="5600" y="2440" />
            </Array>
          </mxGeometry>
        </mxCell>
        <mxCell id="oyaKjV_WXcEfCoysOoAM-110" value="" style="endArrow=classic;html=1;rounded=0;fontFamily=Helvetica;fontSize=18;fontColor=default;strokeWidth=20;fillColor=#d5e8d4;strokeColor=#82b366;exitX=0.221;exitY=0.921;exitDx=0;exitDy=0;entryX=0.702;entryY=0.041;entryDx=0;entryDy=0;exitPerimeter=0;entryPerimeter=0;flowAnimation=1;dashed=1;dashPattern=1 1;" parent="1" edge="1">
          <mxGeometry width="50" height="50" relative="1" as="geometry">
            <mxPoint x="7550" y="1460" as="sourcePoint" />
            <mxPoint x="7950" y="760" as="targetPoint" />
          </mxGeometry>
        </mxCell>
        <mxCell id="oyaKjV_WXcEfCoysOoAM-111" value="" style="endArrow=classic;html=1;rounded=0;fontFamily=Helvetica;fontSize=18;fontColor=default;strokeWidth=20;fillColor=#d5e8d4;strokeColor=#82b366;exitX=0.221;exitY=0.921;exitDx=0;exitDy=0;entryX=0.702;entryY=0.041;entryDx=0;entryDy=0;exitPerimeter=0;entryPerimeter=0;flowAnimation=1;dashed=1;dashPattern=1 1;" parent="1" edge="1">
          <mxGeometry width="50" height="50" relative="1" as="geometry">
            <mxPoint x="8250" y="2160" as="sourcePoint" />
            <mxPoint x="7850" y="1460" as="targetPoint" />
          </mxGeometry>
        </mxCell>
        <mxCell id="oyaKjV_WXcEfCoysOoAM-6" value="" style="endArrow=classic;html=1;rounded=0;fontFamily=Helvetica;fontSize=18;fontColor=default;strokeWidth=20;fillColor=#f5f5f5;strokeColor=#666666;exitX=0.221;exitY=0.921;exitDx=0;exitDy=0;entryX=0.702;entryY=0.041;entryDx=0;entryDy=0;exitPerimeter=0;entryPerimeter=0;" parent="1" edge="1">
          <mxGeometry width="50" height="50" relative="1" as="geometry">
            <mxPoint x="750" y="235" as="sourcePoint" />
            <mxPoint x="350" y="935" as="targetPoint" />
          </mxGeometry>
        </mxCell>
        <mxCell id="oyaKjV_WXcEfCoysOoAM-1" style="edgeStyle=orthogonalEdgeStyle;rounded=0;orthogonalLoop=1;jettySize=auto;html=1;exitX=1;exitY=0.5;exitDx=0;exitDy=0;entryX=0;entryY=0.5;entryDx=0;entryDy=0;strokeWidth=20;fillColor=#f5f5f5;strokeColor=#666666;flowAnimation=1;dashed=1;" parent="1" source="mhYo0zj6bfY33cigUTVe-2" target="mhYo0zj6bfY33cigUTVe-4" edge="1">
          <mxGeometry relative="1" as="geometry" />
        </mxCell>
        <mxCell id="mhYo0zj6bfY33cigUTVe-2" value="Selection" style="text;html=1;align=center;verticalAlign=middle;whiteSpace=wrap;rounded=0;fontStyle=1;fontSize=128;fillColor=#f5f5f5;strokeColor=#666666;fontColor=#333333;strokeWidth=8;" parent="1" vertex="1">
          <mxGeometry y="-160" width="1199" height="200" as="geometry" />
        </mxCell>
        <mxCell id="oyaKjV_WXcEfCoysOoAM-2" style="edgeStyle=orthogonalEdgeStyle;rounded=0;orthogonalLoop=1;jettySize=auto;html=1;exitX=1;exitY=0.5;exitDx=0;exitDy=0;entryX=0;entryY=0.5;entryDx=0;entryDy=0;strokeWidth=20;fillColor=#f5f5f5;strokeColor=#666666;dashed=1;flowAnimation=1;" parent="1" source="mhYo0zj6bfY33cigUTVe-4" target="mhYo0zj6bfY33cigUTVe-5" edge="1">
          <mxGeometry relative="1" as="geometry" />
        </mxCell>
        <mxCell id="mhYo0zj6bfY33cigUTVe-4" value="Expansion" style="text;html=1;align=center;verticalAlign=middle;whiteSpace=wrap;rounded=0;fontStyle=1;fontSize=128;fillColor=#f5f5f5;fontColor=#333333;strokeColor=#666666;strokeWidth=8;" parent="1" vertex="1">
          <mxGeometry x="2500" y="-160" width="1200" height="200" as="geometry" />
        </mxCell>
        <mxCell id="mhYo0zj6bfY33cigUTVe-5" value="Simulation" style="text;html=1;align=center;verticalAlign=middle;whiteSpace=wrap;rounded=0;fontStyle=1;fontSize=128;fillColor=#f5f5f5;fontColor=#333333;strokeColor=#666666;strokeWidth=8;" parent="1" vertex="1">
          <mxGeometry x="5000" y="-160" width="1200" height="200" as="geometry" />
        </mxCell>
        <mxCell id="mhYo0zj6bfY33cigUTVe-6" value="&lt;font&gt;Backpropagation&lt;/font&gt;" style="text;html=1;align=center;verticalAlign=middle;whiteSpace=wrap;rounded=0;fontStyle=1;fontSize=128;fillColor=#f5f5f5;fontColor=#333333;strokeColor=#666666;strokeWidth=8;" parent="1" vertex="1">
          <mxGeometry x="7500" y="-160" width="1200" height="200" as="geometry" />
        </mxCell>
        <mxCell id="mhYo0zj6bfY33cigUTVe-22" value="" style="group" parent="1" vertex="1" connectable="0">
          <mxGeometry x="300" y="200" width="600" height="600" as="geometry" />
        </mxCell>
        <mxCell id="oyaKjV_WXcEfCoysOoAM-8" value="" style="endArrow=classic;html=1;rounded=0;fontFamily=Helvetica;fontSize=18;fontColor=default;strokeWidth=20;fillColor=#f5f5f5;strokeColor=#666666;exitX=0.221;exitY=0.921;exitDx=0;exitDy=0;entryX=0.702;entryY=0.041;entryDx=0;entryDy=0;exitPerimeter=0;entryPerimeter=0;" parent="mhYo0zj6bfY33cigUTVe-22" edge="1">
          <mxGeometry width="50" height="50" relative="1" as="geometry">
            <mxPoint x="150" y="35" as="sourcePoint" />
            <mxPoint x="550" y="735" as="targetPoint" />
          </mxGeometry>
        </mxCell>
        <mxCell id="mhYo0zj6bfY33cigUTVe-17" value="" style="ellipse;whiteSpace=wrap;html=1;aspect=fixed;strokeWidth=20;fillColor=#f5f5f5;fontColor=#333333;strokeColor=#666666;" parent="mhYo0zj6bfY33cigUTVe-22" vertex="1">
          <mxGeometry width="600" height="600" as="geometry" />
        </mxCell>
        <mxCell id="mhYo0zj6bfY33cigUTVe-7" value="" style="shape=image;verticalLabelPosition=bottom;labelBackgroundColor=default;verticalAlign=top;aspect=fixed;imageAspect=0;image=data:image/png,iVBORw0KGgoAAAANSUhEUgAABFQAAARUCAYAAABY/UdQAAAAOnRFWHRTb2Z0d2FyZQBNYXRwbG90bGliIHZlcnNpb24zLjEwLjEsIGh0dHBzOi8vbWF0cGxvdGxpYi5vcmcvc2/+5QAAAAlwSFlzAAAuIwAALiMBeKU/dgAAIslJREFUeJzt2jFuG9mWgGFqwIyRFSjQDrwBZ95DQznTnlyzjQHzccpkIkF76MwLGGM2wECBHDl7gAYdNvzetP4rukpV/L78oC55Srb04149ft68bPir/WFs7nh/7pNcLju4PHY+Pzu4PHY+Pzu4PHY+Pzu4LPa93D0c3/8O/m3uAwAAAAAsjaACAAAAEAkqAAAAAJGgAgAAABAJKgAAAACRoAIAAAAQCSoAAAAAkaACAAAAEAkqAAAAAJGgAgAAABAJKgAAAACRoAIAAAAQCSoAAAAAkaACAAAAEAkqAAAAAJGgAgAAABAJKgAAAACRoAIAAAAQCSoAAAAAkaACAAAAEAkqAAAAAJGgAgAAABAJKgAAAACRoAIAAAAQCSoAAAAAkaACAAAAEAkqAAAAAJGgAgAAABAJKgAAAACRoAIAAAAQCSoAAAAAkaACAAAAEAkqAAAAAJGgAgAAABAJKgAAAACRoAIAAAAQCSoAAAAAkaACAAAAEAkqAAAAAJGgAgAAABAJKgAAAACRoAIAAAAQCSoAAAAAkaACAAAAEAkqAAAAAJGgAgAAABAJKgAAAACRoAIAAAAQCSoAAAAAkaACAAAAEAkqAAAAAJGgAgAAABAJKgAAAADR1eOXw0sdAgAAALhkbqgAAAAARIIKAAAAQCSoAAAAAESCCgAAAEAkqAAAAABEggoAAABAJKgAAAAARIIKAAAAQCSoAAAAAESCCgAAAEAkqAAAAABEggoAAABAJKgAAAAARIIKAAAAQCSoAAAAAESCCgAAAEAkqAAAAABEggoAAABAJKgAAAAARIIKAAAAQCSoAAAAAESCCgAAAEAkqAAAAABEggoAAABAJKgAAAAARIIKAAAAQCSoAAAAAERXj583L5sl2B/6zPH+V5yEX723P9nd/OxuuexuuexuuexuuexuuexuuexuuezuL9xQAQAAAIgEFQAAAIBIUAEAAACIBBUAAACASFABAAAAiAQVAAAAgEhQAQAAAIgEFQAAAIBIUAEAAACIBBUAAACASFABAAAAiAQVAAAAgEhQAQAAAIgEFQAAAIBIUAEAAACIBBUAAACASFABAAAAiAQVAAAAgEhQAQAAAIgEFQAAAIBIUAEAAACIBBUAAACASFABAAAAiAQVAAAAgEhQAQAAAIgEFQAAAIBIUAEAAACIBBUAAACASFABAAAAiAQVAAAAgEhQAQAAAIgEFQAAAIBIUAEAAACIBBUAAACASFABAAAAiAQVAAAAgEhQAQAAAIgEFQAAAIBIUAEAAACIBBUAAACASFABAAAAiAQVAAAAgEhQAQAAAIgEFQAAAIBIUAEAAACIBBUAAACASFABAAAAiAQVAAAAgEhQAQAAAIgEFQAAAIBIUAEAAACIBBUAAACASFABAAAAiAQVAAAAgEhQAQAAAIiuHr8cXuoQAAAAwCVzQwUAAAAgElQAAAAAIkEFAAAAIBJUAAAAACJBBQAAACASVAAAAAAiQQUAAAAgElQAAAAAIkEFAAAAIBJUAAAAACJBBQAAACASVAAAAAAiQQUAAAAgElQAAAAAIkEFAAAAIBJUAAAAACJBBQAAACASVAAAAAAiQQUAAAAgElQAAAAAIkEFAAAAIBJUAAAAACJBBQAAACASVAAAAAAiQQUAAAAgElQAAAAAoqvHz5uXOrR6+8PY3PH+3Ce5XHZweex8fnZweex8fnZweex8fnZwWex7uXs4vv8duKECAAAAEAkqAAAAAJGgAgAAABAJKgAAAACRoAIAAAAQCSoAAAAAkaACAAAAEAkqAAAAAJGgAgAAABAJKgAAAACRoAIAAAAQCSoAAAAAkaACAAAAEAkqAAAAAJGgAgAAABAJKgAAAACRoAIAAAAQCSoAAAAAkaACAAAAEAkqAAAAAJGgAgAAABAJKgAAAACRoAIAAAAQCSoAAAAAkaACAAAAEAkqAAAAAJGgAgAAABAJKgAAAACRoAIAAAAQCSoAAAAAkaACAAAAEAkqAAAAAJGgAgAAABAJKgAAAACRoAIAAAAQCSoAAAAAkaACAAAAEAkqAAAAAJGgAgAAABAJKgAAAACRoAIAAAAQCSoAAAAAkaACAAAAEAkqAAAAAJGgAgAAABAJKgAAAACRoAIAAAAQCSoAAAAAkaACAAAAEAkqAAAAAJGgAgAAABAJKgAAAACRoAIAAAAQCSoAAAAAkaACAAAAEG3rAPB2v/0x9wneoT/u5z4BdnB57Hx+dnB57Hx+K97B4+e5TwCXxQ0VAAAAgEhQAQAAAIgEFQAAAIBIUAEAAACIBBUAAACASFABAAAAiAQVAAAAgEhQAQAAAIgEFQAAAIBIUAEAAACIBBUAAACASFABAAAAiAQVAAAAgEhQAQAAAIgEFQAAAIBIUAEAAACIBBUAAACASFABAAAAiAQVAAAAgEhQAQAAAIgEFQAAAIBIUAEAAACIBBUAAACASFABAAAAiAQVAAAAgEhQAQAAAIgEFQAAAIBIUAEAAACIBBUAAACASFABAAAAiAQVAAAAgEhQAQAAAIgEFQAAAIBIUAEAAACIBBUAAACASFABAAAAiAQVAAAAgEhQAQAAAIgEFQAAAIBIUAEAAACIBBUAAACASFABAAAAiAQVAAAAgEhQAQAAAIgEFQAAAIBIUAEAAACIBBUAAACASFABAAAAiAQVAAAAgEhQAQAAAIgEFQAAAIBIUAEAAACIBBUAAACASFABAAAAiK4evxxe6hDwNr/9fj/3EQAAWJnHL4e5jwAXxQ0VAAAAgEhQAQAAAIgEFQAAAIBIUAEAAACIBBUAAACASFABAAAAiAQVAAAAgEhQAQAAAIgEFQAAAIBIUAEAAACIBBUAAACASFABAAAAiAQVAAAAgEhQAQAAAIgEFQAAAIBIUAEAAACIBBUAAACASFABAAAAiAQVAAAAgEhQAQAAAIgEFQAAAIBIUAEAAACIBBUAAACASFABAAAAiAQVAAAAgEhQAQAAAIgEFQAAAIBouznebxZhf+gzS/lsazaytz/ZHQAArPN3aH8jLJfd/YUbKgAAAACRoAIAAAAQCSoAAAAAkaACAAAAEAkqAAAAAJGgAgAAABAJKgAAAACRoAIAAAAQCSoAAAAAkaACAAAAEAkqAAAAAJGgAgAAABAJKgAAAACRoAIAAAAQCSoAAAAAkaACAAAAEAkqAAAAAJGgAgAAABAJKgAAAACRoAIAAAAQCSoAAAAAkaACAAAAEAkqAAAAAJGgAgAAABAJKgAAAACRoAIAAAAQCSoAAAAAkaACAAAAEAkqAAAAAJGgAgAAABAJKgAAAACRoAIAAAAQCSoAAAAAkaACAAAAEAkqAAAAAJGgAgAAABAJKgAAAACRoAIAAAAQCSoAAAAAkaACAAAAEAkqAAAAAJGgAgAAABAJKgAAAACRoAIAAAAQCSoAAAAAkaACAAAAEAkqAAAAAJGgAgAAABAJKgAAAACRoAIAAAAQCSoAAAAAkaACAAAAEAkqAAAAAJGgAgAAABBdPX45vNQh4G1++/1+7iMAALAyj18Ocx8BLoobKgAAAACRoAIAAAAQCSoAAAAAkaACAAAAEAkqAAAAAJGgAgAAABAJKgAAAACRoAIAAAAQCSoAAAAAkaACAAAAEAkqAAAAAJGgAgAAABAJKgAAAACRoAIAAAAQCSoAAAAAkaACAAAAEAkqAAAAAJGgAgAAABAJKgAAAACRoAIAAAAQCSoAAAAAkaACAAAAEAkqAAAAAJGgAgAAABAJKgAAAACRoAIAAAAQCSoAAAAA0XZzvK8z67c/jM35Ls/HDgAAoPG78M/8XbHcPRzf/w7cUAEAAACIBBUAAACASFABAAAAiAQVAAAAgEhQAQAAAIgEFQAAAIBIUAEAAACIBBUAAACASFABAAAAiAQVAAAAgEhQAQAAAIgEFQAAAIBIUAEAAACIBBUAAACASFABAAAAiAQVAAAAgEhQAQAAAIgEFQAAAIBIUAEAAACIBBUAAACASFABAAAAiAQVAAAAgEhQAQAAAIgEFQAAAIBIUAEAAACIBBUAAACASFABAAAAiAQVAAAAgEhQAQAAAIgEFQAAAIBIUAEAAACIBBUAAACASFABAAAAiAQVAAAAgEhQAQAAAIgEFQAAAIBIUAEAAACIBBUAAACASFABAAAAiAQVAAAAgEhQAQAAAIgEFQAAAIBIUAEAAACIBBUAAACASFABAAAAiAQVAAAAgEhQAQAAAIgEFQAAAIBIUAEAAACIBBUAAACASFABAAAAiAQVAAAAgEhQAQAAAIgEFQAAAIBIUAEAAACItnUAAJbo279v1ms39wFYjB/TPerjf033LACYgxsqAAAAAJGgAgAAABAJKgAAAACRoAIAAAAQCSoAAAAAkaACAAAAEAkqAAAAAJGgAgAAABAJKgAAAACRoAIAAAAQCSoAAAAAkaACAAAAEG3rAADwN3YTP+9u4udxPg8LeTd/bCbz/eZmuofBO/Xh6WnuIwCv4IYKAAAAQCSoAAAAAESCCgAAAEAkqAAAAABEggoAAABAJKgAAAAARIIKAAAAQCSoAAAAAESCCgAAAEAkqAAAAABEggoAAABAJKgAAAAARIIKAAAAQLStAwBwMXZzH4DVuxucO078Ti/gZ+HD09PcR4CffL+5mfsIwC/khgoAAABAJKgAAAAARIIKAAAAQCSoAAAAAESCCgAAAEAkqAAAAABEggoAAABAJKgAAAAARIIKAAAAQCSoAAAAAESCCgAAAEAkqAAAAABEggoAAABAtK0DALBIuwmfdTc49zA4dxyc2w/OcT4PE7/PU7+bALBibqgAAAAARIIKAAAAQCSoAAAAAESCCgAAAEAkqAAAAABEggoAAABAJKgAAAAARIIKAAAAQCSoAAAAAESCCgAAAEAkqAAAAABEggoAAABAJKgAAAAARNvN/lBn+Fd8l/Nbyg7+uJ/7BMBr3G2WYTc4dxyc2w/OrdnDxM9byrsJTGspvwsvge9yfvv3vwM3VAAAAAAiQQUAAAAgElQAAAAAIkEFAAAAIBJUAAAAACJBBQAAACASVAAAAAAiQQUAAAAgElQAAAAAIkEFAAAAIBJUAAAAACJBBQAAACASVAAAAACibR0AAH6Ru8G5h8G53cTPG/18Uxr9bJsVfycs1vPg3PWZzwGwVm6oAAAAAESCCgAAAEAkqAAAAABEggoAAABAJKgAAAAARIIKAAAAQCSoAAAAAESCCgAAAEAkqAAAAABEggoAAABAJKgAAAAARIIKAAAAQCSoAAAAAETbzfF+swj7Q59Zymdbs5G9/cnuAF7vbnDuODi3G5x7mPCzjTzrLUbPCa/0PDCzvb0de9bpNDR3PTTFWS3ld2h/IyyX3f2FGyoAAAAAkaACAAAAEAkqAAAAAJGgAgAAABAJKgAAAACRoAIAAAAQCSoAAAAAkaACAAAAEAkqAAAAAJGgAgAAABAJKgAAAACRoAIAAAAQCSoAAAAA0bYOAAArsR+cO575HO/lWW/5TuCVngfntre3Zz7J+Z/1fDoNzV0PTQHMzw0VAAAAgEhQAQAAAIgEFQAAAIBIUAEAAACIBBUAAACASFABAAAAiAQVAAAAgEhQAQAAAIgEFQAAAIBIUAEAAACIBBUAAACASFABAAAAiLZ1AAAAGHM9OPd8OuWZ7e3t0LP+MfCst3w2gKVyQwUAAAAgElQAAAAAIkEFAAAAIBJUAAAAACJBBQAAACASVAAAAAAiQQUAAAAgElQAAAAAIkEFAAAAIBJUAAAAACJBBQAAACASVAAAAAAiQQUAAAAg2tYBAODC7SZ81t3g3MPEc6PnhFe6Hph5Pp0mexbAJXJDBQAAACASVAAAAAAiQQUAAAAgElQAAAAAIkEFAAAAIBJUAAAAACJBBQAAACASVAAAAAAiQQUAAAAgElQAAAAAIkEFAAAAIBJUAAAAACJBBQAAACDabvaHzWqt+bOt3dp398f93CcA2GweJn7e3Wa9Rr/LNX8nzO567gMwvbX/Dr32z7dm+3Xuzg0VAAAAgEhQAQAAAIgEFQAAAIBIUAEAAACIBBUAAACASFABAAAAiAQVAAAAgEhQAQAAAIgEFQAAAIBIUAEAAACIBBUAAACASFABAAAAiAQVAAAAgGhbBwDgYjwMzt0Nzh0H53abaY1+viktZQdTv2MAwNm4oQIAAAAQCSoAAAAAkaACAAAAEAkqAAAAAJGgAgAAABAJKgAAAACRoAIAAAAQCSoAAAAAkaACAAAAEAkqAAAAAJGgAgAAABAJKgAAAACRoAIAAAAQbTfH+zqzfvvD2Jzv8nzsAFiy42YZ7uY+wDu0n3jnu8G5h8E5YN38Lvwzf1csdw/H978DN1QAAAAAIkEFAAAAIBJUAAAAACJBBQAAACASVAAAAAAiQQUAAAAgElQAAAAAIkEFAAAAIBJUAAAAACJBBQAAACASVAAAAAAiQQUAAAAgElQAAAAAom0dAIBF+jEwsxt81ujcqLuJn8fP9oNzx4W8YyM/PwCwcm6oAAAAAESCCgAAAEAkqAAAAABEggoAAABAJKgAAAAARIIKAAAAQCSoAAAAAESCCgAAAEAkqAAAAABEggoAAABAJKgAAAAARIIKAAAAQCSoAAAAAETbOgAAF+PH4NzuzOdgvXYLeacX4PvNzdxHAODCuKECAAAAEAkqAAAAAJGgAgAAABAJKgAAAACRoAIAAAAQCSoAAAAAkaACAAAAEAkqAAAAAJGgAgAAABAJKgAAAACRoAIAAAAQCSoAAAAAkaACAAAAEG3rAADwN34Mzu0G5x4G57i8d2wBPjw9zX0EAHgVN1QAAAAAIkEFAAAAIBJUAAAAACJBBQAAACASVAAAAAAiQQUAAAAgElQAAAAAIkEFAAAAIBJUAAAAACJBBQAAACASVAAAAAAiQQUAAAAg2tYB4DJ8/Ho7NPft0+nsZ2Eadv4O/Bic2535HLx/u4nfMQDgJ26oAAAAAESCCgAAAEAkqAAAAABEggoAAABAJKgAAAAARIIKAAAAQCSoAAAAAESCCgAAAEAkqAAAAABEggoAAABAJKgAAAAARIIKAAAAQCSoAAAAAETbOgDw//n49XZo7tun09nPcqlGd8AZ7SZ+3t3Ez+N8Hhbybv7YTOb7zc10D4N36sPT09xHAF7BDRUAAACASFABAAAAiAQVAAAAgEhQAQAAAIgEFQAAAIBIUAEAAACIBBUAAACASFABAAAAiAQVAAAAgEhQAQAAAIgEFQAAAIBIUAEAAACIBBUAAACAaFsHgMvw7dNpaO7j19tJ55h/56u2m/sArN7d4Nxx4nd6AT8LH56e5j4C/OT7zc3cRwB+ITdUAAAAACJBBQAAACASVAAAAAAiQQUAAAAgElQAAAAAIkEFAAAAIBJUAAAAACJBBQAAACASVAAAAAAiQQUAAAAgElQAAAAAIkEFAAAAIBJUAAAAAKJtHQCARdpN+Ky7wbmHwbnj4Nx+cI7zeZj4fZ763QSAFXNDBQAAACASVAAAAAAiQQUAAAAgElQAAAAAIkEFAAAAIBJUAAAAACJBBQAAACASVAAAAAAiQQUAAAAgElQAAAAAIkEFAAAAIBJUAAAAACJBBQAAACC6evxyeKlDwNv89vv95r37+PV20ud9+3Sa9Hlr/nxr/mxv8W3kx+5uM62HiZ/3Y3Buf+ZzrMHUu1vAu/nxMPao7zc3Q3Mfnp7GHgi/0NTv8+OXwR88YIgbKgAAAACRoAIAAAAQCSoAAAAAkaACAAAAEAkqAAAAAJGgAgAAABAJKgAAAACRoAIAAAAQCSoAAAAAkaACAAAAEAkqAAAAAJGgAgAAABAJKgAAAADRtg4Ay/Px6+3cR2DFRt+vb59OZz/L4t0Nzj0Mzu0mft7o55vS6GfbrPg7YbGeB+euz3wOgLVyQwUAAAAgElQAAAAAIkEFAAAAIBJUAAAAACJBBQAAACASVAAAAAAiQQUAAAAgElQAAAAAIkEFAAAAIBJUAAAAACJBBQAAACASVAAAAAAiQQUAAAAg2m6O95tF2B/6zFI+25qN7O1PdvdPffx6u1mrNX+2S/h8U34n3z6dzn6WxbsbnDsOzu0G5x4m/Gwjz3qL0XPCKz0PzGxvx/6dfT6N/Tt7PTTFWS3ld2h/IyyX3f2FGyoAAAAAkaACAAAAEAkqAAAAAJGgAgAAABAJKgAAAACRoAIAAAAQCSoAAAAAkaACAAAAEAkqAAAAAJGgAgAAABAJKgAAAACRoAIAAAAQbesA8HYfv97OfQS4vJ+f/z6d+yjLtx+cO575HO/lWW/5TuCVngfntrfT/e4w+qzn09i/s9dDUwDzc0MFAAAAIBJUAAAAACJBBQAAACASVAAAAAAiQQUAAAAgElQAAAAAIkEFAAAAIBJUAAAAACJBBQAAACASVAAAAAAiQQUAAAAgElQAAAAAIkEFAAAAINrWAQAAYMz14Nzz6ZRntre3Q8/6x8Cz3vLZAJbKDRUAAACASFABAAAAiAQVAAAAgEhQAQAAAIgEFQAAAIBIUAEAAACIBBUAAACASFABAAAAiAQVAAAAgEhQAQAAAIgEFQAAAIBIUAEAAACIBBUAAACAaFsHAIALt5vwWXeDcw8Tz42eE17pemDm+XSa7FkAl8gNFQAAAIBIUAEAAACIBBUAAACASFABAAAAiAQVAAAAgEhQAQAAAIgEFQAAAIBIUAEAAACIBBUAAACASFABAAAAiAQVAAAAgEhQAQAAAIgEFQAAAIBou9kfNqu15s+2dqvf3X/OfQCAzeZh4ufdbdZr9Ltc83fC7K7nPgDTW/vv0Gv/fGu2X+fu3FABAAAAiAQVAAAAgEhQAQAAAIgEFQAAAIBIUAEAAACIBBUAAACASFABAAAAiAQVAAAAgEhQAQAAAIgEFQAAAIBIUAEAAACIBBUAAACASFABAAAAiLZ1AAAuxsPg3N3g3HFwbreZ1ujnm9JSdjD1OwYAnI0bKgAAAACRoAIAAAAQCSoAAAAAkaACAAAAEAkqAAAAAJGgAgAAABAJKgAAAACRoAIAAAAQCSoAAAAAkaACAAAAEAkqAAAAAJGgAgAAABAJKgAAAADRdnO8rzPrtz+Mzfkuz2flO/j2+7TP+/j1dtoHwit8+3Sa9oFT/vNw3CzD3dwHeIf2E+98Nzj3MDgHrNtCfhee1Mr/rlj1Ho7vfwduqAAAAABEggoAAABAJKgAAAAARIIKAAAAQCSoAAAAAESCCgAAAEAkqAAAAABEggoAAABAJKgAAAAARIIKAAAAQCSoAAAAAESCCgAAAEAkqAAAAABE2zoALM+3T6fJnvXx6+27P+Pa2cG/8GNgZjf4rNG5UXcTP4+f7Qfnjgt5x0Z+fgBg5dxQAQAAAIgEFQAAAIBIUAEAAACIBBUAAACASFABAAAAiAQVAAAAgEhQAQAAAIgEFQAAAIBIUAEAAACIBBUAAACASFABAAAAiAQVAAAAgGhbBwDgYvwYnNud+Rys124h7/QCfL+5mfsIAFwYN1QAAAAAIkEFAAAAIBJUAAAAACJBBQAAACASVAAAAAAiQQUAAAAgElQAAAAAIkEFAAAAIBJUAAAAACJBBQAAACASVAAAAAAiQQUAAAAgElQAAAAAom0dAAD+xo/Bud3g3MPgHJf3ji3Ah6enuY8AAK/ihgoAAABAJKgAAAAARIIKAAAAQCSoAAAAAESCCgAAAEAkqAAAAABEggoAAABAJKgAAAAARIIKAAAAQCSoAAAAAESCCgAAAEAkqAAAAABEggoAAABAtK0DwNs9ft6s13+cxua+HMbmjvdjc2tmB//U//7P3Cd4h/br3vkirHgHq/6/7i1WvPPFsAPgTNxQAQAAAIgEFQAAAIBIUAEAAACIBBUAAACASFABAAAAiAQVAAAAgEhQAQAAAIgEFQAAAIBIUAEAAACIBBUAAACASFABAAAAiAQVAAAAgEhQAQAAAIgEFQAAAIBIUAEAAACIBBUAAACASFABAAAAiAQVAAAAgEhQAQAAAIgEFQAAAIBIUAEAAACIBBUAAACASFABAAAAiAQVAAAAgEhQAQAAAIgEFQAAAIBIUAEAAACIBBUAAACASFABAAAAiAQVAAAAgEhQAQAAAIgEFQAAAIBIUAEAAACIBBUAAACASFABAAAAiAQVAAAAgEhQAQAAAIgEFQAAAIBIUAEAAACIBBUAAACASFABAAAAiAQVAAAAgEhQAQAAAIgEFQAAAIBIUAEAAACIBBUAAACASFABAAAAiAQVAAAAgEhQAQAAAIgEFQAAAIBIUAEAAACIBBUAAACASFABAAAAiAQVAAAAgEhQAQAAAIiuHr8cXuoQAAAAwCVzQwUAAAAgElQAAAAAIkEFAAAAIBJUAAAAACJBBQAAACASVAAAAAAiQQUAAAAgElQAAAAAIkEFAAAAIBJUAAAAACJBBQAAACASVAAAAAAiQQUAAAAgElQAAAAAIkEFAAAAIBJUAAAAACJBBQAAACASVAAAAAAiQQUAAAAgElQAAAAAIkEFAAAAIBJUAAAAACJBBQAAACASVAAAAAAiQQUAAAAgElQAAAAAoqvHz5uXzRLsD33meP8rTsKv3tuf7G5+drdcdrdcdrdcdrdcdrdcdrdcdrdcdvcXbqgAAAAARIIKAAAAQCSoAAAAAESCCgAAAEAkqAAAAABEggoAAABAJKgAAAAARIIKAAAAQCSoAAAAAESCCgAAAEAkqAAAAABEggoAAABAJKgAAAAARIIKAAAAQCSoAAAAAESCCgAAAEAkqAAAAABEggoAAABAJKgAAAAARIIKAAAAQCSoAAAAAESCCgAAAEAkqAAAAABEggoAAABAJKgAAAAARIIKAAAAQCSoAAAAAESCCgAAAEAkqAAAAABEggoAAABAJKgAAAAARIIKAAAAQCSoAAAAAESCCgAAAEAkqAAAAABEggoAAABAJKgAAAAARIIKAAAAQCSoAAAAAESCCgAAAEAkqAAAAABEggoAAABAJKgAAAAARIIKAAAAQCSoAAAAAESCCgAAAEAkqAAAAABEggoAAABAJKgAAAAARIIKAAAAQCSoAAAAAESCCgAAAEAkqAAAAABEggoAAABAJKgAAAAARFePXw4vdQgAAADgkrmhAgAAABAJKgAAAACRoAIAAAAQCSoAAAAAkaACAAAAEAkqAAAAAJGgAgAAABAJKgAAAACRoAIAAAAQCSoAAAAAkaACAAAAEAkqAAAAAJGgAgAAABAJKgAAAACRoAIAAAAQCSoAAAAAkaACAAAAEAkqAAAAAJGgAgAAABAJKgAAAACRoAIAAAAQCSoAAAAAkaACAAAAEAkqAAAAAJGgAgAAABAJKgAAAACRoAIAAAAQXT1+3rzUodXbH8bmjvfnPsnlsoPLY+fzs4PLY+fzs4PLY+fzs4PLYt/L3cPx/e/ADRUAAACASFABAAAAiAQVAAAAgEhQAQAAAIgEFQAAAIBIUAEAAACIBBUAAACASFABAAAAiAQVAAAAgEhQAQAAAIgEFQAAAIBIUAEAAACIBBUAAACASFABAAAAiAQVAAAAgEhQAQAAAIgEFQAAAIBIUAEAAACIBBUAAACASFABAAAAiAQVAAAAgEhQAQAAAIgEFQAAAIBIUAEAAACIBBUAAACASFABAAAAiAQVAAAAgEhQAQAAAIgEFQAAAIBIUAEAAACIBBUAAACASFABAAAAiAQVAAAAgEhQAQAAAIgEFQAAAIBIUAEAAACIBBUAAACASFABAAAAiAQVAAAAgEhQAQAAAIgEFQAAAIBIUAEAAACIBBUAAACASFABAAAAiAQVAAAAgEhQAQAAAIgEFQAAAIBIUAEAAACIBBUAAACASFABAAAAiAQVAAAAgEhQAQAAAIgEFQAAAIBIUAEAAADYNP8HN7i/6PAfGicAAAAASUVORK5CYII=;clipPath=inset(0% 0% 0% 0% round 49%);" parent="mhYo0zj6bfY33cigUTVe-22" vertex="1">
          <mxGeometry x="50" y="50" width="500" height="500" as="geometry" />
        </mxCell>
        <mxCell id="mhYo0zj6bfY33cigUTVe-23" value="" style="group" parent="1" vertex="1" connectable="0">
          <mxGeometry x="700" y="900" width="600" height="600" as="geometry" />
        </mxCell>
        <mxCell id="mhYo0zj6bfY33cigUTVe-13" value="" style="ellipse;whiteSpace=wrap;html=1;aspect=fixed;strokeWidth=20;fillColor=#f5f5f5;fontColor=#333333;strokeColor=#666666;" parent="mhYo0zj6bfY33cigUTVe-23" vertex="1">
          <mxGeometry width="600" height="600" as="geometry" />
        </mxCell>
        <mxCell id="mhYo0zj6bfY33cigUTVe-9" value="" style="shape=image;verticalLabelPosition=bottom;labelBackgroundColor=default;verticalAlign=top;aspect=fixed;imageAspect=0;image=data:image/png,iVBORw0KGgoAAAANSUhEUgAABFQAAARUCAYAAABY/UdQAAAAOnRFWHRTb2Z0d2FyZQBNYXRwbG90bGliIHZlcnNpb24zLjEwLjEsIGh0dHBzOi8vbWF0cGxvdGxpYi5vcmcvc2/+5QAAAAlwSFlzAAAuIwAALiMBeKU/dgAAJbtJREFUeJzt3b+PXXl9gOEz0YUEDRKyUVxMCtgtkAwN0iKnSLZGgmY1/XRo06Lp6NIiRdPj9jZUo2n4C1AaC4Jo1gqJSBRFA3GIrQgcseGHo0UZxGLY9Xvmzjlzzn0eaaW1zcfne+d7x4xffew9uHhzeDHwfidn4+a2p7s+yf5yB/vHnc/PHewfdz4/d7B/3Pn83MF+cd/LvYft7b+DP5n7AAAAAABLI6gAAAAARIIKAAAAQCSoAAAAAESCCgAAAEAkqAAAAABEggoAAABAJKgAAAAARIIKAAAAQCSoAAAAAESCCgAAAEAkqAAAAABEggoAAABAJKgAAAAARIIKAAAAQCSoAAAAAESCCgAAAEAkqAAAAABEggoAAABAJKgAAAAARIIKAAAAQCSoAAAAAESCCgAAAEAkqAAAAABEggoAAABAJKgAAAAARIIKAAAAQCSoAAAAAESCCgAAAEAkqAAAAABEggoAAABAJKgAAAAARIIKAAAAQCSoAAAAAESCCgAAAEAkqAAAAABEggoAAABAJKgAAAAARIIKAAAAQCSoAAAAAESCCgAAAEAkqAAAAABEggoAAABAJKgAAAAARIIKAAAAQCSoAAAAAESCCgAAAEAkqAAAAABEggoAAABAJKgAAAAARIIKAAAAQCSoAAAAAESCCgAAAEB0cPHw7EUdAgAAANhnNlQAAAAAIkEFAAAAIBJUAAAAACJBBQAAACASVAAAAAAiQQUAAAAgElQAAAAAIkEFAAAAIBJUAAAAACJBBQAAACASVAAAAAAiQQUAAAAgElQAAAAAIkEFAAAAIBJUAAAAACJBBQAAACASVAAAAAAiQQUAAAAgElQAAAAAIkEFAAAAIBJUAAAAACJBBQAAACASVAAAAAAiQQUAAAAgElQAAAAAIkEFAAAAIBJUAAAAAKKDizeHF8MSnJz1me3pTZyEm76397i7+bm75XJ3y+XulsvdLZe7Wy53t1zubrnc3fvYUAEAAACIBBUAAACASFABAAAAiAQVAAAAgEhQAQAAAIgEFQAAAIBIUAEAAACIBBUAAACASFABAAAAiAQVAAAAgEhQAQAAAIgEFQAAAIBIUAEAAACIBBUAAACASFABAAAAiAQVAAAAgEhQAQAAAIgEFQAAAIBIUAEAAACIBBUAAACASFABAAAAiAQVAAAAgEhQAQAAAIgEFQAAAIBIUAEAAACIBBUAAACASFABAAAAiAQVAAAAgEhQAQAAAIgEFQAAAIBIUAEAAACIBBUAAACASFABAAAAiAQVAAAAgEhQAQAAAIgEFQAAAIBIUAEAAACIBBUAAACASFABAAAAiAQVAAAAgEhQAQAAAIgEFQAAAIBIUAEAAACIBBUAAACASFABAAAAiAQVAAAAgEhQAQAAAIgEFQAAAIBIUAEAAACIBBUAAACASFABAAAAiAQVAAAAgEhQAQAAAIgEFQAAAIBIUAEAAACIDi4enr2oQwAAAAD7zIYKAAAAQCSoAAAAAESCCgAAAEAkqAAAAABEggoAAABAJKgAAAAARIIKAAAAQCSoAAAAAESCCgAAAEAkqAAAAABEggoAAABAJKgAAAAARIIKAAAAQCSoAAAAAESCCgAAAEAkqAAAAABEggoAAABAJKgAAAAARIIKAAAAQCSoAAAAAESCCgAAAEAkqAAAAABEggoAAABAJKgAAAAARIIKAAAAQCSoAAAAAEQHF28OL+rQ6p2cjZvbnu76JPvLHewfdz4/d7B/3Pn83MH+cefzcwf7xX0v9x62t/8ObKgAAAAARIIKAAAAQCSoAAAAAESCCgAAAEAkqAAAAABEggoAAABAJKgAAAAARIIKAAAAQCSoAAAAAESCCgAAAEAkqAAAAABEggoAAABAJKgAAAAARIIKAAAAQCSoAAAAAESCCgAAAEAkqAAAAABEggoAAABAJKgAAAAARIIKAAAAQCSoAAAAAESCCgAAAEAkqAAAAABEggoAAABAJKgAAAAARIIKAAAAQCSoAAAAAESCCgAAAEAkqAAAAABEggoAAABAJKgAAAAARIIKAAAAQCSoAAAAAESCCgAAAEAkqAAAAABEggoAAABAJKgAAAAARIIKAAAAQCSoAAAAAESCCgAAAEAkqAAAAABEggoAAABAJKgAAAAARIIKAAAAQCSoAAAAAESCCgAAAEAkqAAAAABEggoAAABAJKgAAAAARIIKAAAAQCSoAAAAAESCCgAAAEAkqAAAAABEggoAAABAJKgAAAAARJs6AFzfW9+e+wS30LdP5z4B7mD/uPP5uYP9487nt+I7uHhz7hPAfrGhAgAAABAJKgAAAACRoAIAAAAQCSoAAAAAkaACAAAAEAkqAAAAAJGgAgAAABAJKgAAAACRoAIAAAAQCSoAAAAAkaACAAAAEAkqAAAAAJGgAgAAABAJKgAAAACRoAIAAAAQCSoAAAAAkaACAAAAEAkqAAAAAJGgAgAAABAJKgAAAACRoAIAAAAQCSoAAAAAkaACAAAAEAkqAAAAAJGgAgAAABAJKgAAAACRoAIAAAAQCSoAAAAAkaACAAAAEAkqAAAAAJGgAgAAABAJKgAAAACRoAIAAAAQCSoAAAAAkaACAAAAEAkqAAAAAJGgAgAAABAJKgAAAACRoAIAAAAQCSoAAAAAkaACAAAAEAkqAAAAAJGgAgAAABAJKgAAAACRoAIAAAAQCSoAAAAAkaACAAAAEAkqAAAAAJGgAgAAABAJKgAAAACRoAIAAAAQCSoAAAAAkaACAAAAEAkqAAAAANHBxcOzF3UIuJ633j6d+wgAAKzMxcOzuY8Ae8WGCgAAAEAkqAAAAABEggoAAABAJKgAAAAARIIKAAAAQCSoAAAAAESCCgAAAEAkqAAAAABEggoAAABAJKgAAAAARIIKAAAAQCSoAAAAAESCCgAAAEAkqAAAAABEggoAAABAJKgAAAAARIIKAAAAQCSoAAAAAESCCgAAAEAkqAAAAABEggoAAABAJKgAAAAARIIKAAAAQCSoAAAAAESCCgAAAEAkqAAAAABEggoAAABAtBm2p8MinJz1maW8tjUbc2/vcXcAALDOr6H9HmG53N372FABAAAAiAQVAAAAgEhQAQAAAIgEFQAAAIBIUAEAAACIBBUAAACASFABAAAAiAQVAAAAgEhQAQAAAIgEFQAAAIBIUAEAAACIBBUAAACASFABAAAAiAQVAAAAgEhQAQAAAIgEFQAAAIBIUAEAAACIBBUAAACASFABAAAAiAQVAAAAgEhQAQAAAIgEFQAAAIBIUAEAAACIBBUAAACASFABAAAAiAQVAAAAgEhQAQAAAIgEFQAAAIBIUAEAAACIBBUAAACASFABAAAAiAQVAAAAgEhQAQAAAIgEFQAAAIBIUAEAAACIBBUAAACASFABAAAAiAQVAAAAgEhQAQAAAIgEFQAAAIBIUAEAAACIBBUAAACASFABAAAAiAQVAAAAgEhQAQAAAIgEFQAAAIBIUAEAAACIBBUAAACASFABAAAAiAQVAAAAgEhQAQAAAIgEFQAAAIBIUAEAAACIBBUAAACA6ODi4dmLOgRcz1tvn859BAAAVubi4dncR4C9YkMFAAAAIBJUAAAAACJBBQAAACASVAAAAAAiQQUAAAAgElQAAAAAIkEFAAAAIBJUAAAAACJBBQAAACASVAAAAAAiQQUAAAAgElQAAAAAIkEFAAAAIBJUAAAAACJBBQAAACASVAAAAAAiQQUAAAAgElQAAAAAIkEFAAAAIBJUAAAAACJBBQAAACASVAAAAAAiQQUAAAAgElQAAAAAIkEFAAAAIBJUAAAAACJBBQAAACDaDNvTOrN+J2fj5nwsd8cdAABA42vhl/l9xXLvYXv778CGCgAAAEAkqAAAAABEggoAAABAJKgAAAAARIIKAAAAQCSoAAAAAESCCgAAAEAkqAAAAABEggoAAABAJKgAAAAARIIKAAAAQCSoAAAAAESCCgAAAEAkqAAAAABEggoAAABAJKgAAAAARIIKAAAAQCSoAAAAAESCCgAAAEAkqAAAAABEggoAAABAJKgAAAAARIIKAAAAQCSoAAAAAESCCgAAAEAkqAAAAABEggoAAABAJKgAAAAARIIKAAAAQCSoAAAAAESCCgAAAEAkqAAAAABEggoAAABAJKgAAAAARIIKAAAAQCSoAAAAAESCCgAAAEAkqAAAAABEggoAAABAJKgAAAAARIIKAAAAQCSoAAAAAESCCgAAAEAkqAAAAABEggoAAABAJKgAAAAARIIKAAAAQCSoAAAAAESCCgAAAEAkqAAAAABEggoAAABAJKgAAAAARIIKAAAAQCSoAAAAAESCCgAAAEC0qQPAfrj/6GjU3OMHlzs/C9NY+50//pthvQ7nPgCL8Xy6R93/xnTPAoA52FABAAAAiAQVAAAAgEhQAQAAAIgEFQAAAIBIUAEAAACIBBUAAACASFABAAAAiAQVAAAAgEhQAQAAAIgEFQAAAIBIUAEAAACIBBUAAACAaFMHAD7I/UdHo+YeP7jc+Vn21dg7YIcOJ37e8cTPY3fOF/LefD5M5tm9e9M9DG6pO0+ezH0E4BXYUAEAAACIBBUAAACASFABAAAAiAQVAAAAgEhQAQAAAIgEFQAAAIBIUAEAAACIBBUAAACASFABAAAAiAQVAAAAgEhQAQAAAIgEFQAAAIBIUAEAAACINnUA2A+PH1yOmrv/6GjSOea/81U7nPsArN7xyLntxO/pBXwu3HnyZO4jwEue3bs39xGAG2RDBQAAACASVAAAAAAiQQUAAAAgElQAAAAAIkEFAAAAIBJUAAAAACJBBQAAACASVAAAAAAiQQUAAAAgElQAAAAAIkEFAAAAIBJUAAAAACJBBQAAACDa1AEAWKTDCZ91PHLufOTcduTcycg5dud84vfz1O9NAFgxGyoAAAAAkaACAAAAEAkqAAAAAJGgAgAAABAJKgAAAACRoAIAAAAQCSoAAAAAkaACAAAAEAkqAAAAAJGgAgAAABAJKgAAAACRoAIAAAAQCSoAAAAA0cHFw7MXdQi4nrfePh1uu/uPjiZ93uMHl5M+b82vb82v7Toej/m0Ox6mdT7x856PnDvZ8TnWYOq7W8B78/7ZuEc9u3dv1NydJ0/GPRBu0NTv54uHIz/xgFFsqAAAAABEggoAAABAJKgAAAAARIIKAAAAQCSoAAAAAESCCgAAAEAkqAAAAABEggoAAABAJKgAAAAARIIKAAAAQCSoAAAAAESCCgAAAEAkqAAAAABEmzoALM/9R0dzH4EVG/v+evzgcudnWbzjkXPnI+cOJ37e2Nc3pbGvbVjxx4TFejpy7u6OzwGwVjZUAAAAACJBBQAAACASVAAAAAAiQQUAAAAgElQAAAAAIkEFAAAAIBJUAAAAACJBBQAAACASVAAAAAAiQQUAAAAgElQAAAAAIkEFAAAAIBJUAAAAAKLNsD0dFuHkrM8s5bWt2Zh7e4+7+4PuPzoa1mrNr20fXt+UH5PHDy53fpbFOx45tx05dzhy7nzC1zbmWdcx9pzwip6OmNkcjft19unluF9n746aYqeW8jW03yMsl7t7HxsqAAAAAJGgAgAAABAJKgAAAACRoAIAAAAQCSoAAAAAkaACAAAAEAkqAAAAAJGgAgAAABAJKgAAAACRoAIAAAAQCSoAAAAAkaACAAAAEAkqAAAAANGmDgDXd//R0dxHgP37/Pnm5a6PsnwnI+e2Oz7HbXnWdT4m8IqejpzbHE33tcPYZz29HPfr7N1RUwDzs6ECAAAAEAkqAAAAAJGgAgAAABAJKgAAAACRoAIAAAAQCSoAAAAAkaACAAAAEAkqAAAAAJGgAgAAABAJKgAAAACRoAIAAAAQCSoAAAAA0aYOAAAA49wdOff08jLPbI6ORj3rlyOedZ3XBrBUNlQAAAAAIkEFAAAAIBJUAAAAACJBBQAAACASVAAAAAAiQQUAAAAgElQAAAAAIkEFAAAAIBJUAAAAACJBBQAAACASVAAAAAAiQQUAAAAgElQAAAAAok0dAAD23OGEzzoeOXc+8dzYc8Irujti5unl5WTPAthHNlQAAAAAIkEFYAd+/atfz30EAABgQoIKwDW9ePFi+PfvPht+/UtRBQAA9oWgAnBNP/2Pnw/Pf/Lu8Ozf/mfuowAAABMRVACuuZ3yk3/66W/+/b9++DNbKgAAsCcEFYBrbqe8+9Nf/ubff/W/v7alAgAAe0JQAdjBdsoVWyoAALAfBBWAHWynXLGlAgAA+0FQAdjRdsoVWyoAALB+ggrAjrZTrthSAQCA9RNUAHa4nXLFlgoAAKyboAKww+2UK7ZUAABg3QQVgB1vp1yxpQIAAOu1GU7OhtVa82tbu9Xf3d/NfQBucDvl97dUPvn6x2/8XDDK+cTPOx7Wa+zHcs0fE2Z3d+4DML21fw299te3ZifrvDsbKgA3sJ1yxZYKAACsk6ACcAPbKVf8XSoAALBOggrADW2nXLGlAgAA6yOoANzQdsoVWyoAALA+ggrADW6nXLGlAgAA6yKoANzgdsoVWyoAALAuggrADW+nXLGlAgAA6yGoANzwdsoVWyoAALAeggrABNspV2ypAADAOggqABNsp1yxpQIAAOsgqABMtJ1yxZYKAAAsn6ACMNF2yhVbKgAAsHyCCsCE2ylXbKkAAMCybeY+AMA+baf8/pbKJ1//+I0+h2s6Hzl3PHJuO3LucJjW2Nc3paXcwdTvMQBgZ2yoAEy8nXLFlgoAACyXoAIw8XbKFX+XCgAALJegAjDDdsoVWyoAALBMggrADNspV2ypAADAMgkqADNtp1yxpQIAAMsjqADMtJ1yxZYKAAAsj6AC7L05t1Ou2FIBAIBlEVSAvTfndsoVWyoAALAsm7kPADC3j33iI8Nrf/Xno2b/5e//86XvG/tz/cnmYNQcAAAwPUEF2Hsf+dhm+MjHdvfz/dknPrK7nwwAALiV/JEfAAAAgEhQAQAAAIgEFQAAAIBoM2xP68z6nZyNm/Ox3J2V38Hjt6d93v1HR9M+EF7B4weX0z5wyl8etsMyHM99gFvoZOI7Pxw5dz5yDli3hXwtPKmV/75i1fewvf13YEMFAAAAIBJUAAAAACJBBQAAACASVAAAAAAiQQUAAAAgElQAAAAAIkEFAAAAIBJUAAAAACJBBQAAACASVAAAAAAiQQUAAAAgElQAAAAAIkEFAAAAINrUAWB5Hj+4nOxZ9x8d3foz7tTf3r7Xsnd38Kqej5g5HPmssXNjHU/8PF52MnJuu5D32JjPHwBYORsqAAAAAJGgAgAAABAJKgAAAACRoAIAAAAQCSoAAAAAkaACAAAAEAkqAAAAAJGgAgAAABAJKgAAAACRoAIAAAAQCSoAAAAAkaACAAAAEAkqAAAAANGmDgDwOx7NfQBu1PORc4c7PgfrdbiQ9/QCPLt3b+4jALBnBBWA6/jnuQ8AAADMwR/5AQAAAIgEFQAAAIBIUAEAAACIBBUAAACASFABAAAAiAQVAAAAgEhQAQAAAIgEFQAAAIBIUAEAAACIBBUAAACASFABAAAAiDZ1AGCf3blzZ/jCF77w23/e+Ms3hk/9xade+t8dHBzMcj4AAGAaggrAB/jc5z43fPnLXx7eeOON3wSU119/fe4jsQTPR84djpw7HznH/r3HFuDOkydzHwEAXomgAvABvvKVrwxf/epX5z4GAABwy/g7VAAAAAAiQQVghHfffXf47ne/O3zjm98Ynv33s7mPAwAATMwf+QH4EL/4xS+Gd955Z/jOd77z23++//3v/+b7h88Mwxf/+ovDnU/cmfuYAADAhAQVgA/w9a9/ffja1742/PznP5/7KAAAwC0iqAB8gB//+MdzHwEAALiF/B0qAAAAAJGgAgAAABAJKgAAAACRoAIAAAAQCSoAAAAAkaACAAAAEPnPJgM79fjB5dxH2HvuYMGej5w73PE5uP0OJ36PAQAvsaECAAAAEAkqAAAAAJGgAgAAABAJKgAAAACRoAIAAAAQCSoAAAAAkaACAAAAEAkqAAAAAJGgAgAAABAJKgAAAACRoAIAAAAQCSoAAAAAkaACAAAAEG3qAADwIQ4nft7xxM9jd84X8t58Pkzm2b170z0Mbqk7T57MfQTgFdhQAQAAAIgEFQAAAIBIUAEAAACI/B0qAB/iW9/61nB0dPSHf/BPh+Ho3ss/9r3vfe8Df84vfelLw49+9KNdHREAAJiYoALwIT772c8On/70p9PM5z//+Q/88Y9+9KPXPBUAADAnf+QHAAAAIBJUAAAAACJ/5AfgQ7z22mt//Ac/8we+7wc3eRoAAOA2sKECAAAAEAkqAAAAAJGgAgAAABAJKgAAAACRoAIAAAAQ+a/8AMAfczj3AVi945Fz24nf0wv4XLjz5MncR4CXPLt3b+4jADfIhgoAAABAJKgAAAAARIIKAAAAQCSoAAAAAESCCgAAAEAkqAAAAABEggoAAABAJKgAAAAARIIKAAAAQCSoAAAAAESCCgAAAEAkqAAAAABEmzoAwO/4wh/4vh/McA4AAGBSggrAdXxm7gPwyg4nfNbxyLnzkXPbkXMnI+fYnfOJ389TvzcBYMX8kR8AAACASFABAAAAiAQVAAAAgEhQAQAAAIgEFQAAAIBIUAEAAACIBBUAAACASFABAAAAiAQVAAAAgEhQAQAAAIgEFQAAAIBIUAEAAACIBBUAAACAaDOcnNUZ/hgfy/kt5Q6+fTr3CYBXcTwsw+HIue3IuZORc2t2PvHzlvLeBKa1lK+Fl8DHcn4nt/8ObKgAAAAARIIKAAAAQCSoAAAAAESCCgAAAEAkqAAAAABEggoAAABAJKgAAAAARIIKAAAAQCSoAAAAAESCCgAAAEAkqAAAAABEggoAAABAJKgAAAAARJs6AADckOORc+cj5w4nft7Y1zelsa9tWPHHhMV6OnLu7o7PAbBWNlQAAAAAIkEFAAAAIBJUAAAAACJBBQAAACASVAAAAAAiQQUAAAAgElQAAAAAIkEFAAAAIBJUAAAAACJBBQAAACASVAAAAAAiQQUAAAAgElQAAAAAos2wPR0W4eSszyzlta3ZmHt7j7sDeHXHI+e2I+cOR86dT/jaxjzrOsaeE17R0xEzm6Ojcc+6vBw1d3fUFDu1lK+h/R5hudzd+9hQAQAAAIgEFQAAAIBIUAEAAACIBBUAAACASFABAAAAiAQVAAAAgEhQAQAAAIgEFQAAAIBIUAEAAACIBBUAAACASFABAAAAiAQVAAAAgGhTBwCAlTgZObfd8Tluy7Ou8zGBV/R05Nzm6GjHJ9n9s55eXo6auztqCmB+NlQAAAAAIkEFAAAAIBJUAAAAACJBBQAAACASVAAAAAAiQQUAAAAgElQAruMffu/b/zrTOQAAgEkJKgDX8bMP+TYAALBKm7kPALBo722kvPidbz+Z8SwAAMBkBBWA6/jh//8DAADsFX/kBwAAACASVAAAAAAiQQUAAAAg8neoAADARO6OnHt6eZlnNkdHo571yxHPus5rA1gqGyoAAAAAkaACAAAAEAkqAAAAAJGgAgAAABAJKgAAAACRoAIAAAAQCSoAAAAAkaACAAAAEAkqAAAAAJGgAgAAABAJKgAAAACRoAIAAAAQCSoAAAAA0aYOAAB77nDCZx2PnDufeG7sOeEV3R0x8/TycrJnAewjGyoAAAAAkaACAAAAEAkqAAAAAJGgAgAAABAJKgAAAACRoAIAAAAQCSoAAAAAkaACAAAAEAkqAAAAAJGgAgAAABAJKgAAAACRoAIAAAAQCSoAAAAA0WY4ORtWa82vbe3WfnffPp37BADDcD7x846H9Rr7sVzzx4TZ3Z37AExv7V9Dr/31rdnJOu/OhgoAAABAJKgAAAAARIIKAAAAQCSoAAAAAESCCgAAAEAkqAAAAABEggoAAABAJKgAAAAARIIKAAAAQCSoAAAAAESCCgAAAEAkqAAAAABEggoAAABAtKkDALA3zkfOHY+c246cOxymNfb1TWkpdzD1ewwA2BkbKgAAAACRoAIAAAAQCSoAAAAAkaACAAAAEAkqAAAAAJGgAgAAABAJKgAAAACRoAIAAAAQCSoAAAAAkaACAAAAEAkqAAAAAJGgAgAAABAJKgAAAADRZtie1pn1OzkbN+djuTvuAFiy7bAMx3Mf4BY6mfjOD0fOnY+cA9bN18Iv8/uK5d7D9vbfgQ0VAAAAgEhQAQAAAIgEFQAAAIBIUAEAAACIBBUAAACASFABAAAAiAQVAAAAgEhQAQAAAIgEFQAAAIBIUAEAAACIBBUAAACASFABAAAAiAQVAAAAgGhTBwBgkZ6PmDkc+ayxc2MdT/w8XnYycm67kPfYmM8fAFg5GyoAAAAAkaACAAAAEAkqAAAAAJGgAgAAABAJKgAAAACRoAIAAAAQCSoAAAAAkaACAAAAEAkqAAAAAJGgAgAAABAJKgAAAACRoAIAAAAQbeoAAOyN5yPnDnd8DtbrcCHv6QV4du/e3EcAYM/YUAEAAACIBBUAAACASFABAAAAiAQVAAAAgEhQAQAAAIgEFQAAAIBIUAEAAACIBBUAAACASFABAAAAiAQVAAAAgEhQAQAAAIgEFQAAAIBIUAEAAACINnUAAPgQz0fOHY6cOx85x/69xxbgzpMncx8BAF6JDRUAAACASFABAAAAiAQVAAAAgEhQAQAAAIgEFQAAAIBIUAEAAACIBBUAAACASFABAAAAiAQVAAAAgEhQAQAAAIgEFQAAAIBIUAEAAACIBBUAAACAaFMHgOu7eHPuE9xCJ2fj5ranuz7J/lr5HfzjO3Of4BZa+Z0vworvwP/X7d+dL4Y7AHbEhgoAAABAJKgAAAAARIIKAAAAQCSoAAAAAESCCgAAAEAkqAAAAABEggoAAABAJKgAAAAARIIKAAAAQCSoAAAAAESCCgAAAEAkqAAAAABEggoAAABAJKgAAAAARIIKAAAAQCSoAAAAAESCCgAAAEAkqAAAAABEggoAAABAJKgAAAAARIIKAAAAQCSoAAAAAESCCgAAAEAkqAAAAABEggoAAABAJKgAAAAARIIKAAAAQCSoAAAAAESCCgAAAEAkqAAAAABEggoAAABAJKgAAAAARIIKAAAAQCSoAAAAAESCCgAAAEAkqAAAAABEggoAAABAJKgAAAAARIIKAAAAQCSoAAAAAESCCgAAAEAkqAAAAABEggoAAABAJKgAAAAARIIKAAAAQCSoAAAAAESCCgAAAEAkqAAAAABEggoAAABAJKgAAAAARIIKAAAAQCSoAAAAAESCCgAAAEAkqAAAAABEggoAAABAdHDx8OxFHQIAAADYZzZUAAAAACJBBQAAACASVAAAAAAiQQUAAAAgElQAAAAAIkEFAAAAIBJUAAAAACJBBQAAACASVAAAAAAiQQUAAAAgElQAAAAAIkEFAAAAIBJUAAAAACJBBQAAACASVAAAAAAiQQUAAAAgElQAAAAAIkEFAAAAIBJUAAAAACJBBQAAACASVAAAAAAiQQUAAAAgElQAAAAAIkEFAAAAIBJUAAAAACJBBQAAACA6uHhzeDEswclZn9me3sRJuOl7e4+7m5+7Wy53t1zubrnc3XK5u+Vyd8vl7pbL3b2PDRUAAACASFABAAAAiAQVAAAAgEhQAQAAAIgEFQAAAIBIUAEAAACIBBUAAACASFABAAAAiAQVAAAAgEhQAQAAAIgEFQAAAIBIUAEAAACIBBUAAACASFABAAAAiAQVAAAAgEhQAQAAAIgEFQAAAIBIUAEAAACIBBUAAACASFABAAAAiAQVAAAAgEhQAQAAAIgEFQAAAIBIUAEAAACIBBUAAACASFABAAAAiAQVAAAAgEhQAQAAAIgEFQAAAIBIUAEAAACIBBUAAACASFABAAAAiAQVAAAAgEhQAQAAAIgEFQAAAIBIUAEAAACIBBUAAACASFABAAAAiAQVAAAAgEhQAQAAAIgEFQAAAIBIUAEAAACIBBUAAACASFABAAAAiAQVAAAAgEhQAQAAAIgEFQAAAIBIUAEAAACIBBUAAACASFABAAAAiAQVAAAAgEhQAQAAAIgEFQAAAIBIUAEAAACIBBUAAACA6ODi4dmLOgQAAACwz2yoAAAAAESCCgAAAEAkqAAAAABEggoAAABAJKgAAAAARIIKAAAAQCSoAAAAAESCCgAAAEAkqAAAAABEggoAAABAJKgAAAAARIIKAAAAQCSoAAAAAESCCgAAAEAkqAAAAABEggoAAABAJKgAAAAARIIKAAAAQCSoAAAAAESCCgAAAEAkqAAAAABEggoAAABAJKgAAAAARIIKAAAAQCSoAAAAAESCCgAAAEAkqAAAAABEBxdvDi/q0OqdnI2b257u+iT7yx3sH3c+P3ewf9z5/NzB/nHn83MH+8V9L/cetrf/DmyoAAAAAESCCgAAAEAkqAAAAABEggoAAABAJKgAAAAARIIKAAAAQCSoAAAAAESCCgAAAEAkqAAAAABEggoAAABAJKgAAAAARIIKAAAAQCSoAAAAAESCCgAAAEAkqAAAAABEggoAAABAJKgAAAAARIIKAAAAQCSoAAAAAESCCgAAAEAkqAAAAABEggoAAABAJKgAAAAARIIKAAAAQCSoAAAAAESCCgAAAEAkqAAAAABEggoAAABAJKgAAAAARIIKAAAAQCSoAAAAAESCCgAAAEAkqAAAAABEggoAAABAJKgAAAAARIIKAAAAQCSoAAAAAESCCgAAAEAkqAAAAABEggoAAABAJKgAAAAARIIKAAAAQCSoAAAAAESCCgAAAEAkqAAAAABEggoAAABAJKgAAAAARIIKAAAAQCSoAAAAAESCCgAAAEAkqAAAAABEggoAAABAJKgAAAAARIIKAAAAwND8H4tpjtmvM+jaAAAAAElFTkSuQmCC;clipPath=inset(0% 0% 0% 0% round 49%);" parent="mhYo0zj6bfY33cigUTVe-23" vertex="1">
          <mxGeometry x="50" y="50" width="500" height="500" as="geometry" />
        </mxCell>
        <mxCell id="mhYo0zj6bfY33cigUTVe-26" value="" style="group" parent="1" vertex="1" connectable="0">
          <mxGeometry x="-100" y="900" width="600" height="600" as="geometry" />
        </mxCell>
        <mxCell id="oyaKjV_WXcEfCoysOoAM-7" value="" style="endArrow=classic;html=1;rounded=0;fontFamily=Helvetica;fontSize=18;fontColor=default;strokeWidth=20;fillColor=#f5f5f5;strokeColor=#666666;exitX=0.221;exitY=0.921;exitDx=0;exitDy=0;entryX=0.702;entryY=0.041;entryDx=0;entryDy=0;exitPerimeter=0;entryPerimeter=0;" parent="mhYo0zj6bfY33cigUTVe-26" edge="1">
          <mxGeometry width="50" height="50" relative="1" as="geometry">
            <mxPoint x="450" y="40" as="sourcePoint" />
            <mxPoint x="50" y="740" as="targetPoint" />
          </mxGeometry>
        </mxCell>
        <mxCell id="mhYo0zj6bfY33cigUTVe-21" value="" style="ellipse;whiteSpace=wrap;html=1;aspect=fixed;strokeWidth=20;fillColor=#d5e8d4;strokeColor=#82b366;" parent="mhYo0zj6bfY33cigUTVe-26" vertex="1">
          <mxGeometry width="600" height="600" as="geometry" />
        </mxCell>
        <mxCell id="mhYo0zj6bfY33cigUTVe-10" value="" style="shape=image;verticalLabelPosition=bottom;labelBackgroundColor=default;verticalAlign=top;aspect=fixed;imageAspect=0;image=data:image/png,iVBORw0KGgoAAAANSUhEUgAABFQAAARUCAYAAABY/UdQAAAAOnRFWHRTb2Z0d2FyZQBNYXRwbG90bGliIHZlcnNpb24zLjEwLjEsIGh0dHBzOi8vbWF0cGxvdGxpYi5vcmcvc2/+5QAAAAlwSFlzAAAuIwAALiMBeKU/dgAAJjJJREFUeJzt3c2PXfd92OEz5KUoa6g2oh0pmaaOXxo4tNuksQ0CBUx0EXRReCNM1rOqYG+NCbLwn+DN7LowkWYz+8F04T+gUlogghsHDWDaaPoGtBOLqKnWlmLJtD2FBDSBQFni5/DOPXPOfZ6VRM6X53fvd2Se+fhwuHN6ZzgfeK+Do3Fzx4frPsn2soPtY+fTs4PtY+fTs4PtY+fTs4PtYt/z3cPx5d/BlakPAAAAADA3ggoAAABAJKgAAAAARIIKAAAAQCSoAAAAAESCCgAAAEAkqAAAAABEggoAAABAJKgAAAAARIIKAAAAQCSoAAAAAESCCgAAAEAkqAAAAABEggoAAABAJKgAAAAARIIKAAAAQCSoAAAAAESCCgAAAEAkqAAAAABEggoAAABAJKgAAAAARIIKAAAAQCSoAAAAAESCCgAAAEAkqAAAAABEggoAAABAJKgAAAAARIIKAAAAQCSoAAAAAESCCgAAAEAkqAAAAABEggoAAABAJKgAAAAARIIKAAAAQCSoAAAAAESCCgAAAEAkqAAAAABEggoAAABAJKgAAAAARIIKAAAAQCSoAAAAAESCCgAAAEAkqAAAAABEggoAAABAJKgAAAAARIIKAAAAQCSoAAAAAESCCgAAAEAkqAAAAABEggoAAABAJKgAAAAARIIKAAAAQCSoAAAAAEQ7p3ePzusQAAAAwDbzhAoAAABAJKgAAAAARIIKAAAAQCSoAAAAAESCCgAAAEAkqAAAAABEggoAAABAJKgAAAAARIIKAAAAQCSoAAAAAESCCgAAAEAkqAAAAABEggoAAABAJKgAAAAARIIKAAAAQCSoAAAAAESCCgAAAEAkqAAAAABEggoAAABAJKgAAAAARIIKAAAAQCSoAAAAAESCCgAAAEAkqAAAAABEggoAAABAJKgAAAAARIIKAAAAQLRzemc4H+bg4KjPHB9exEm46L29w+6mZ3fzZXfzZXfzZXfzZXfzZXfzZXfzZXfv4QkVAAAAgEhQAQAAAIgEFQAAAIBIUAEAAACIBBUAAACASFABAAAAiAQVAAAAgEhQAQAAAIgEFQAAAIBIUAEAAACIBBUAAACASFABAAAAiAQVAAAAgEhQAQAAAIgEFQAAAIBIUAEAAACIBBUAAACASFABAAAAiAQVAAAAgEhQAQAAAIgEFQAAAIBIUAEAAACIBBUAAACASFABAAAAiAQVAAAAgEhQAQAAAIgEFQAAAIBIUAEAAACIBBUAAACASFABAAAAiAQVAAAAgEhQAQAAAIgEFQAAAIBIUAEAAACIBBUAAACASFABAAAAiAQVAAAAgEhQAQAAAIgEFQAAAIBIUAEAAACIBBUAAACASFABAAAAiAQVAAAAgEhQAQAAAIgEFQAAAIBIUAEAAACIBBUAAACASFABAAAAiAQVAAAAgEhQAQAAAIgEFQAAAIBIUAEAAACIBBUAAACASFABAAAAiAQVAAAAgGjn9O7ReR0CAAAA2GaeUAEAAACIBBUAAACASFABAAAAiAQVAAAAgEhQAQAAAIgEFQAAAIBIUAEAAACIBBUAAACASFABAAAAiAQVAAAAgEhQAQAAAIgEFQAAAIBIUAEAAACIBBUAAACASFABAAAAiAQVAAAAgEhQAQAAAIgEFQAAAIBIUAEAAACIBBUAAACASFABAAAAiAQVAAAAgEhQAQAAAIgEFQAAAIBIUAEAAACIBBUAAACAaOf0znBehxbv4Gjc3PHhuk+yvexg+9j59Oxg+9j59Oxg+9j59Oxgu9j3fPdwfPl34AkVAAAAgEhQAQAAAIgEFQAAAIBIUAEAAACIBBUAAACASFABAAAAiAQVAAAAgEhQAQAAAIgEFQAAAIBIUAEAAACIBBUAAACASFABAAAAiAQVAAAAgEhQAQAAAIgEFQAAAIBIUAEAAACIBBUAAACASFABAAAAiAQVAAAAgEhQAQAAAIgEFQAAAIBIUAEAAACIBBUAAACASFABAAAAiAQVAAAAgEhQAQAAAIgEFQAAAIBIUAEAAACIBBUAAACASFABAAAAiAQVAAAAgEhQAQAAAIgEFQAAAIBIUAEAAACIBBUAAACASFABAAAAiAQVAAAAgEhQAQAAAIgEFQAAAIBIUAEAAACIBBUAAACASFABAAAAiAQVAAAAgEhQAQAAAIgEFQAAAIBIUAEAAACIBBUAAACASFABAAAAiAQVAAAAgEhQAQAAAIgEFQAAAIBIUAEAAACIBBUAAACASFABAAAAiAQVAAAAgGhVB4An9+IrU5/gEnrlcOoTYAfbx86nZwfbx86nt+AdnN6Z+gSwXTyhAgAAABAJKgAAAACRoAIAAAAQCSoAAAAAkaACAAAAEAkqAAAAAJGgAgAAABAJKgAAAACRoAIAAAAQCSoAAAAAkaACAAAAEAkqAAAAAJGgAgAAABAJKgAAAACRoAIAAAAQCSoAAAAAkaACAAAAEAkqAAAAAJGgAgAAABAJKgAAAACRoAIAAAAQCSoAAAAAkaACAAAAEAkqAAAAAJGgAgAAABAJKgAAAACRoAIAAAAQCSoAAAAAkaACAAAAEAkqAAAAAJGgAgAAABAJKgAAAACRoAIAAAAQCSoAAAAAkaACAAAAEAkqAAAAAJGgAgAAABAJKgAAAACRoAIAAAAQCSoAAAAAkaACAAAAEAkqAAAAAJGgAgAAABAJKgAAAACRoAIAAAAQCSoAAAAAkaACAAAAEAkqAAAAAJGgAgAAABAJKgAAAACRoAIAAAAQCSoAAAAAkaACAAAAEAkqAAAAANHO6d2j8zoEPJkXv3I49REAAFiY07tHUx8BtoonVAAAAAAiQQUAAAAgElQAAAAAIkEFAAAAIBJUAAAAACJBBQAAACASVAAAAAAiQQUAAAAgElQAAAAAIkEFAAAAIBJUAAAAACJBBQAAACASVAAAAAAiQQUAAAAgElQAAAAAIkEFAAAAIBJUAAAAACJBBQAAACASVAAAAAAiQQUAAAAgElQAAAAAIkEFAAAAIBJUAAAAACJBBQAAACASVAAAAAAiQQUAAAAgElQAAAAAotVwfDjMwsFRn5nLa1uyMXt7h90BAMAy76F9jTBfdvcenlABAAAAiAQVAAAAgEhQAQAAAIgEFQAAAIBIUAEAAACIBBUAAACASFABAAAAiAQVAAAAgEhQAQAAAIgEFQAAAIBIUAEAAACIBBUAAACASFABAAAAiAQVAAAAgEhQAQAAAIgEFQAAAIBIUAEAAACIBBUAAACASFABAAAAiAQVAAAAgEhQAQAAAIgEFQAAAIBIUAEAAACIBBUAAACASFABAAAAiAQVAAAAgEhQAQAAAIgEFQAAAIBIUAEAAACIBBUAAACASFABAAAAiAQVAAAAgEhQAQAAAIgEFQAAAIBIUAEAAACIBBUAAACASFABAAAAiAQVAAAAgEhQAQAAAIgEFQAAAIBIUAEAAACIBBUAAACASFABAAAAiAQVAAAAgEhQAQAAAIgEFQAAAIBIUAEAAACIBBUAAACASFABAAAAiAQVAAAAgEhQAQAAAIgEFQAAAIBIUAEAAACIBBUAAACAaOf07tF5HQKezItfOZz6CAAALMzp3aOpjwBbxRMqAAAAAJGgAgAAABAJKgAAAACRoAIAAAAQCSoAAAAAkaACAAAAEAkqAAAAAJGgAgAAABAJKgAAAACRoAIAAAAQCSoAAAAAkaACAAAAEAkqAAAAAJGgAgAAABAJKgAAAACRoAIAAAAQCSoAAAAAkaACAAAAEAkqAAAAAJGgAgAAABAJKgAAAACRoAIAAAAQCSoAAAAAkaACAAAAEAkqAAAAAJGgAgAAABAJKgAAAADRajg+rDPLd3A0bs57uT52AAAAjXvhR/m6Yr57OL78O/CECgAAAEAkqAAAAABEggoAAABAJKgAAAAARIIKAAAAQCSoAAAAAESCCgAAAEAkqAAAAABEggoAAABAJKgAAAAARIIKAAAAQCSoAAAAAESCCgAAAEAkqAAAAABEggoAAABAJKgAAAAARIIKAAAAQCSoAAAAAESCCgAAAEAkqAAAAABEggoAAABAJKgAAAAARIIKAAAAQCSoAAAAAESCCgAAAEAkqAAAAABEggoAAABAJKgAAAAARIIKAAAAQCSoAAAAAESCCgAAAEAkqAAAAABEggoAAABAJKgAAAAARIIKAAAAQCSoAAAAAESCCgAAAEAkqAAAAABEggoAAABAJKgAAAAARIIKAAAAQCSoAAAAAESCCgAAAEAkqAAAAABEggoAAABAJKgAAAAARIIKAAAAQCSoAAAAAESCCgAAAEAkqAAAAABEggoAAABAJKgAAAAARIIKAAAAQCSoAAAAAESCCgAAAEC0qgMAMEf3vjos1+7UB2A23tzcpW59c3PXAoApeEIFAAAAIBJUAAAAACJBBQAAACASVAAAAAAiQQUAAAAgElQAAAAAIkEFAAAAIBJUAAAAACJBBQAAACASVAAAAAAiQQUAAAAgElQAAAAAolUdAAA+xO6Gr7e/4euxPicz+dx8c9iY159/fnMXg0vqufv3pz4C8Bg8oQIAAAAQCSoAAAAAkaACAAAAEAkqAAAAAJGgAgAAABAJKgAAAACRoAIAAAAQCSoAAAAAkaACAAAAEAkqAAAAAJGgAgAAABAJKgAAAACRoAIAAAAQreoAAGyN3akPwOLtj5w73vDn9Az+W3ju/v2pjwCPeP3556c+AnCBPKECAAAAEAkqAAAAAJGgAgAAABAJKgAAAACRoAIAAAAQCSoAAAAAkaACAAAAEAkqAAAAAJGgAgAAABAJKgAAAACRoAIAAAAQCSoAAAAAkaACAAAAEK3qAADM0u4Gr7U/cu5k5NzxyLmDkXOsz8mGP583/bkJAAvmCRUAAACASFABAAAAiAQVAAAAgEhQAQAAAIgEFQAAAIBIUAEAAACIBBUAAACASFABAAAAiAQVAAAAgEhQAQAAAIgEFQAAAIBIUAEAAACIBBUAAACAaDUcHNUZfhnv5fTmsoNXDqc+AfA49od52B05dzxy7mDk3JKdbPh6c/ncBDZrLvfCc+C9nN7B5d+BJ1QAAAAAIkEFAAAAIBJUAAAAACJBBQAAACASVAAAAAAiQQUAAAAgElQAAAAAIkEFAAAAIBJUAAAAACJBBQAAACASVAAAAAAiQQUAAAAgElQAAAAAolUdAAAuyP7IuZORc7sbvt7Y17dJY1/bsOD3hNl6MHLu5prPAbBUnlABAAAAiAQVAAAAgEhQAQAAAIgEFQAAAIBIUAEAAACIBBUAAACASFABAAAAiAQVAAAAgEhQAQAAAIgEFQAAAIBIUAEAAACIBBUAAACASFABAAAAiFbD8eEwCwdHfWYur23JxuztHXYH8Pj2R84dj5zbHTl3ssHXNuZaT2LsOeExPRgxs9rbG3ets7NRczdHTbFWc7mH9jXCfNnde3hCBQAAACASVAAAAAAiQQUAAAAgElQAAAAAIkEFAAAAIBJUAAAAACJBBQAAACASVAAAAAAiQQUAAAAgElQAAAAAIkEFAAAAIBJUAAAAACJBBQAAACBa1QEAYCEORs4dr/kcl+VaT/KewGN6MHJutbe35pOs/1oPzs5Gzd0cNQUwPU+oAAAAAESCCgAAAEAkqAAAAABEggoAAABAJKgAAAAARIIKAAAAQCSoAAAAAESCCgAAAEAkqAAAAABEggoAAABAJKgAAAAARIIKAAAAQLSqAwAAwDg3R849ODvLM6u9vVHX+tmIaz3JawOYK0+oAAAAAESCCgAAAEAkqAAAAABEggoAAABAJKgAAAAARIIKAAAAQCSoAAAAAESCCgAAAEAkqAAAAABEggoAAABAJKgAAAAARIIKAAAAQCSoAAAAAESrOgAAbLndDV5rf+TcyYbnxp4THtPNETMPzs42di2AbeQJFQAAAIBIUAEAAACIBBUAAACASFABAAAAiAQVAAAAgEhQAQAAAIgEFQAAAIBIUAEAAACIBBUAAACASFABAAAAiAQVAAAAgEhQAQAAAIgEFQAAAIBoNRwcDYu15Ne2dEvf3SuHU58AYBhONny9/WG5xr6XS35PmNzNqQ/A5i39Hnrpr2/JDpa5O0+oAAAAAESCCgAAAEAkqAAAAABEggoAAABAJKgAAAAARIIKAAAAQCSoAAAAAESCCgAAAEAkqAAAAABEggoAAABAJKgAAAAARIIKAAAAQCSoAAAAAESrOgAAW+Nk5Nz+yLnjkXO7w2aNfX2bNJcdbPpzDABYG0+oAAAAAESCCgAAAEAkqAAAAABEggoAAABAJKgAAAAARIIKAAAAQCSoAAAAAESCCgAAAEAkqAAAAABEggoAAABAJKgAAAAARIIKAAAAQCSoAAAAAESr4fiwzizfwdG4Oe/l+tgBMGfHwzzsT32AS+hgwzvfHTl3MnIOWDb3wo/ydcV893B8+XfgCRUAAACASFABAAAAiAQVAAAAgEhQAQAAAIgEFQAAAIBIUAEAAACIBBUAAACASFABAAAAiAQVAAAAgEhQAQAAAIgEFQAAAIBIUAEAAACIBBUAAACAaFUHAGCW3hwxszvyWmPnxtrf8PV41MHIueOZfI6N+e8HABbOEyoAAAAAkaACAAAAEAkqAAAAAJGgAgAAABAJKgAAAACRoAIAAAAQCSoAAAAAkaACAAAAEAkqAAAAAJGgAgAAABAJKgAAAACRoAIAAAAQCSoAAAAA0aoOAMDWeHPk3O6az8Fy7c7kc3oGXn/++amPAMCW8YQKAAAAQCSoAAAAAESCCgAAAEAkqAAAAABEggoAAABAJKgAAAAARIIKAAAAQCSoAAAAAESCCgAAAEAkqAAAAABEggoAAABAJKgAAAAARIIKAAAAQLSqAwDAh3hz5NzuyLmTkXNs3+fYDDx3//7URwCAx+IJFQAAAIBIUAEAAACIBBUAAACASFABAAAAiAQVAAAAgEhQAQAAAIgEFQAAAIBIUAEAAACIBBUAAACASFABAAAAiAQVAAAAgEhQAQAAAIhWdQAA5ujWN4dL79are6Pm7t0+W/tZ2Iwl7/zB1AeALfTy1AeALeMJFQAAAIBIUAEAAACIBBUAAACASFABAAAAiAQVAAAAgEhQAQAAAIgEFQAAAIBIUAEAAACIBBUAAACASFABAAAAiAQVAAAAgEhQAQAAAIgEFQAAAIBoVQcAgMvl1qt7o+bu3T5b+1m21dgdAADz5QkVAAAAgEhQAQAAAIgEFQAAAIBIUAEAAACIBBUAAACASFABAAAAiAQVAAAAgEhQAQAAAIgEFQAAAIBIUAEAAACIBBUAAACASFABAAAAiAQVAAAAgGhVBwCAi3Hv9tmouVuv7m10jul3zqNeO9zwBfc3fD2md9xHXvjmRRwEuCw8oQIAAAAQCSoAAAAAkaACAAAAEAkqAAAAAJGgAgAAABAJKgAAAACRoAIAAAAQCSoAAAAAkaACAAAAEAkqAAAAAJGgAgAAABAJKgAAAACRoAIAAAAQreoAAABcOvsj505Gzh2PnDsYOcf6jN357prPAcyeJ1QAAAAAIkEFAAAAIBJUAAAAACJBBQAAACASVAAAAAAiQQUAAAAgElQAAAAAIkEFAAAAIBJUAAAAACJBBQAAACASVAAAAAAiQQUAAAAgElQAAAAAop3Tu0fndQh4Mi9+5XDqIwCX0K1X9zZ6vXu3zxb7+pb82qZ4fWM82PD1XvvTkYMnw2a9OXLuYM3nWIJN726/j7zwpWGjXr57tNkLwpbzhAoAAABAJKgAAAAARIIKAAAAQCSoAAAAAESCCgAAAEAkqAAAAABEggoAAABAJKgAAAAARIIKAAAAQCSoAAAAAESCCgAAAEAkqAAAAABEggoAAABAtKoDAMAHu/Xq3tRHYOHGfo7du3229rPM3v7IuZORc7sbvN7Y17ZpY9/LsebyvgCXnidUAAAAACJBBQAAACASVAAAAAAiQQUAAAAgElQAAAAAIkEFAAAAIBJUAAAAACJBBQAAACASVAAAAAAiQQUAAAAgElQAAAAAIkEFAAAAIBJUAAAAAKKd0zvD+TAHB0d95vjwIk7CRe9tC3b34itTnwB4HB976caHf9DVneHK0zvD1Rs7w/XPXBue/q1rw87VnU0cDzbm3u2zPPNg2KzX/nSYh+ORc7vD5uyPnDsZNmvsOTfohS9t9nov3xnmwdcI82V377F6778CAP/fW997mD7+x//ureHKM1eGj/yTa8ONf/b08NTH/TYLALBU/sgPAKzRL/7mF8Obf/b2cP9f/2h46z+3IAMAwHwIKgBwAc4fng//+49/LKoAACyUoAIAFxlV/s2Ph1+8NY9vVwYAwOMTVADgAp3/9Hz4yXd/OvUxAABYM0EFAC7YT/5CUAEAWBpBBQAu2Fvff+iP/QAALIygAgAb+F4qP7v/86mPAQDAGgkqALABnlABAFgWQQUANkBQAQBYFkEFAAAAIBJUAAAAAKJVHQCAOfqH//LXht/77S8Mn//tzw+/95nPD//0M58fPv5rH3/k45698/Qk54PL7Nare33o9tlFHGX+DkbOHfeRF7458lpH48Ze++qG3xOAiQkqACzS5z73ueHLX/7y8IUvfGH44he/OHzqU5+a+kgAACyIoALAIr300kvD1772tamPAQDAQvkeKgAAAACRoALAVnn7p28P3/n+nw9/8m//eHj9x69PfZxL5Y37bw33v/ej4Wc//fnURwEAuPT8kR8AFuvhw4fDd7/73eHb3/728Jf/5y+G73zvz4e//Kv/NDz82cN3f/73b/+L4blnn5v6mJfGL35+Pvzwv74xPPgfbw43f3N3uPmp3WH11NWpjwUAcCkJKgAs0je+8Y3h61//+vDWW2+9++83vnR96iPNxrmwAgDwoQQVABbpBz/4wdRHmD1hBQDglxNUAIAPJKwAADxKUAEAHouwAgDwdwQVACARVgAABBUAYCRhBQDYZoIKAPBEhBUAYBsJKgDAWggrAMA2EVQAgLUSVgCAbSCoAAAXQlgBAJZMUAEALpSwAgAskaACAGyEsAIALImgAgBslLACACyBoAIwhd8fhuHTwzD86jAM16Y+zCX1/WEY/uP6frk37r/9vl/YP87HreX6/+HtYfifF/JLz5awAgDMmaACMIVfGYZhb+pDwOUgrAAAc3Rl6gMAAPxtWPlvbww//Ks3hvPzR58eAgC4TDyhAgBMb2cYfuU3nhk++ukbw1PPuD0BAC4/dywAU3jne4P8l2EYPjoMw29MfZhL6rVhGP5mfb/clb+/8+gPvs8PXbn2Pj+4Btf+3tXh6s3L/WDoT/7vw/f9vjIXSkgBAGbKnQvAFP771AfYPs984qlHfmznyqPx5JnnHv24dfjoP352eOZ3LubXXpcf/fVPhv/1ndc3czEhBQCYOXcwAMDmCCkAwEK4kwEALp6QAgAsjDsaAODiCCkAwEK5swEA1k9IgfXa7SOvHY681v7IuZMNz409J8CauMMBANZHSAEAtoQ7HQDgyQkpAMCWcccDAIwnpAAAW8qdDwCL9a1vfWvY29t795+v7O488vO//rFff+TH/v2f/NkH/pp/8EcvDj/44V+v8ZQzJaQAAFvOHRAAi/XZz352+MQnPpFmfue3fvcDf/6pa08NW01IAQB4lzshAODDCSkAAO/hjggA+OWEFACA9+XOCIDF+uQnP/m3/3zjS9cnPcvsCCkAAB/IHRIA8HeEFACAx+JOCQB41/Vnrw2f/ufPCykAAI/BHRMA8K7rN9wWAAA8riuP/ZEAAAAAvEtQAQAAAIhWw8HRsFhLfm1Lt/TdvXI49QkAgCmcbPBa+8OyjX0vl/y+LP0eeumvb8kOlrk7T6gAAAAARIIKAAAAQCSoAMAG7PgdFwBgUdzeAcAGXPnIztRHAABgjQQVANiAKzf8lgsAsCTu7gDggl197upw7YWrUx8DAIA1ElQA4II987tPTX0EAADWTFABgAv2EUEFAGBxBBUAuEDX/9G14fpvrqY+BgAAayaoAMAFuf7pa8PH/tWzUx8DAIAL4P8yA4ALejLlnZhy5bq/LhkAYIkEFQBYk9WvXn33G9C+8z1TnvoHfosFAFgyd3sAbIWPvXQxf/RmZ7UzXHl6Z7hyY2dY3fRXIwMAbAtBBYCt8JHP+pt2gPdxPHJud9is/eHy25/JDk4WvANgo3xTWgAAAIBIUAEAAACIBBUAAACASFABAAAAiAQVAAAAgEhQAQAAAIgEFQAAAIBIUAEAAACIBBUAAACASFABAAAAiAQVAAAAgEhQAQAAAIgEFQAAAIBo5/TOcF6HFu/gaNzc8eG6T7K9Fr6DF1+Z+gTARbr16t7UR4D3de/22cau9WDYrNe+uuEL7o6c21/zObbZ8YZ3N8ILI29px3r5zmavNwsL/7pi0Xs4vvw78IQKAAAAQCSoAAAAAESCCgAAAEAkqAAAAABEggoAAABAJKgAAAAARIIKAAAAQCSoAAAAAESCCgAAAEAkqAAAAABEggoAAABAJKgAAAAARIIKAAAAQLSqAwDAB7t3+2yj17v16t4szrlkdnAJ7G74evsbvh6POhg5dzyTzzHg0vOECgAAAEAkqAAAAABEggoAAABAJKgAAAAARIIKAAAAQCSoAAAAAESCCgAAAEAkqAAAAABEggoAAABAJKgAAAAARIIKAAAAQCSoAAAAAESrOgAAAJfNC0cbvuCmrwfApeMJFQAAAIBIUAEAAACIBBUAAACASFABAAAAiAQVAAAAgEhQAQAAAIgEFQAAAIBIUAEAAACIBBUAAACASFABAAAAiAQVAAAAgEhQAQAAAIgEFQAAAIBIUAEAAACIBBUAAACASFABAAAAiAQVAAAAgEhQAQAAAIgEFQAAAIBIUAEAAACIBBUAAACASFABAAAAiAQVAAAAgEhQAQAAAIgEFQAAAIBIUAEAAACIBBUAAACAaFUHgCd3emfqE1xCB0fj5o4P132S7WUH8/WHZ+Pm7tr52tjBI16e+gCXlf+tnZ4dAGviCRUAAACASFABAAAAiAQVAAAAgEhQAQAAAIgEFQAAAIBIUAEAAACIBBUAAACASFABAAAAiAQVAAAAgEhQAQAAAIgEFQAAAIBIUAEAAACIBBUAAACASFABAAAAiAQVAAAAgEhQAQAAAIgEFQAAAIBIUAEAAACIBBUAAACASFABAAAAiAQVAAAAgEhQAQAAAIgEFQAAAIBIUAEAAACIBBUAAACASFABAAAAiAQVAAAAgEhQAQAAAIgEFQAAAIBIUAEAAACIBBUAAACASFABAAAAiAQVAAAAgEhQAQAAAIgEFQAAAIBIUAEAAACIBBUAAACASFABAAAAiAQVAAAAgEhQAQAAAIgEFQAAAIBIUAEAAACIBBUAAACASFABAAAAiAQVAAAAgEhQAQAAAIgEFQAAAIBIUAEAAACIBBUAAACASFABAAAAiAQVAAAAgEhQAQAAAIgEFQAAAIBIUAEAAACIBBUAAACAaOf07tF5HQIAAADYZp5QAQAAAIgEFQAAAIBIUAEAAACIBBUAAACASFABAAAAiAQVAAAAgEhQAQAAAIgEFQAAAIBIUAEAAACIBBUAAACASFABAAAAiAQVAAAAgEhQAQAAAIgEFQAAAIBIUAEAAACIBBUAAACASFABAAAAiAQVAAAAgEhQAQAAAIgEFQAAAIBIUAEAAACIBBUAAACASFABAAAAiAQVAAAAgEhQAQAAAIgEFQAAAIBo5/TOcD7MwcFRnzk+vIiTcNF7e4fdTc/u5svu5svu5svu5svu5svu5svu5svu3sMTKgAAAACRoAIAAAAQCSoAAAAAkaACAAAAEAkqAAAAAJGgAgAAABAJKgAAAACRoAIAAAAQCSoAAAAAkaACAAAAEAkqAAAAAJGgAgAAABAJKgAAAACRoAIAAAAQCSoAAAAAkaACAAAAEAkqAAAAAJGgAgAAABAJKgAAAACRoAIAAAAQCSoAAAAAkaACAAAAEAkqAAAAAJGgAgAAABAJKgAAAACRoAIAAAAQCSoAAAAAkaACAAAAEAkqAAAAAJGgAgAAABAJKgAAAACRoAIAAAAQCSoAAAAAkaACAAAAEAkqAAAAAJGgAgAAABAJKgAAAACRoAIAAAAQCSoAAAAAkaACAAAAEAkqAAAAAJGgAgAAABAJKgAAAACRoAIAAAAQCSoAAAAAkaACAAAAEAkqAAAAAJGgAgAAABAJKgAAAACRoAIAAAAQCSoAAAAAkaACAAAAEAkqAAAAAJGgAgAAABAJKgAAAADRzundo/M6BAAAALDNPKECAAAAEAkqAAAAAJGgAgAAABAJKgAAAACRoAIAAAAQCSoAAAAAkaACAAAAEAkqAAAAAJGgAgAAABAJKgAAAACRoAIAAAAQCSoAAAAAkaACAAAAEAkqAAAAAJGgAgAAABAJKgAAAACRoAIAAAAQCSoAAAAAkaACAAAAEAkqAAAAAJGgAgAAABAJKgAAAACRoAIAAAAQCSoAAAAAkaACAAAAEAkqAAAAAJGgAgAAABDtnN4ZzuvQ4h0cjZs7Plz3SbaXHWwfO5+eHWwfO5+eHWwfO5+eHWwX+57vHo4v/w48oQIAAAAQCSoAAAAAkaACAAAAEAkqAAAAAJGgAgAAABAJKgAAAACRoAIAAAAQCSoAAAAAkaACAAAAEAkqAAAAAJGgAgAAABAJKgAAAACRoAIAAAAQCSoAAAAAkaACAAAAEAkqAAAAAJGgAgAAABAJKgAAAACRoAIAAAAQCSoAAAAAkaACAAAAEAkqAAAAAJGgAgAAABAJKgAAAACRoAIAAAAQCSoAAAAAkaACAAAAEAkqAAAAAJGgAgAAABAJKgAAAACRoAIAAAAQCSoAAAAAkaACAAAAEAkqAAAAAJGgAgAAABAJKgAAAACRoAIAAAAQCSoAAAAAkaACAAAAEAkqAAAAAJGgAgAAABAJKgAAAACRoAIAAAAQCSoAAAAAkaACAAAAEAkqAAAAAJGgAgAAABAJKgAAAACRoAIAAAAQCSoAAAAAkaACAAAAEAkqAAAAAJGgAgAAABAJKgAAAABD8/8AVZriZdwmSy8AAAAASUVORK5CYII=;clipPath=inset(0% 0% 0% 0% round 49%);" parent="mhYo0zj6bfY33cigUTVe-26" vertex="1">
          <mxGeometry x="50" y="50" width="500" height="500" as="geometry" />
        </mxCell>
        <mxCell id="oyaKjV_WXcEfCoysOoAM-3" style="edgeStyle=orthogonalEdgeStyle;rounded=0;orthogonalLoop=1;jettySize=auto;html=1;exitX=1;exitY=0.5;exitDx=0;exitDy=0;strokeWidth=20;fillColor=#f5f5f5;strokeColor=#666666;dashed=1;flowAnimation=1;entryX=0;entryY=0.5;entryDx=0;entryDy=0;" parent="1" source="mhYo0zj6bfY33cigUTVe-5" target="mhYo0zj6bfY33cigUTVe-6" edge="1">
          <mxGeometry relative="1" as="geometry">
            <mxPoint x="6220" y="210" as="sourcePoint" />
            <mxPoint x="7070" y="-80" as="targetPoint" />
          </mxGeometry>
        </mxCell>
        <mxCell id="oyaKjV_WXcEfCoysOoAM-4" style="edgeStyle=orthogonalEdgeStyle;rounded=0;orthogonalLoop=1;jettySize=auto;html=1;exitX=1;exitY=0.5;exitDx=0;exitDy=0;strokeWidth=20;fillColor=#f5f5f5;strokeColor=#666666;dashed=1;flowAnimation=1;entryX=0;entryY=0.5;entryDx=0;entryDy=0;" parent="1" source="mhYo0zj6bfY33cigUTVe-6" target="mhYo0zj6bfY33cigUTVe-2" edge="1">
          <mxGeometry relative="1" as="geometry">
            <mxPoint x="6720" y="630" as="sourcePoint" />
            <mxPoint x="3270" y="-810" as="targetPoint" />
            <Array as="points">
              <mxPoint x="8900" y="-60" />
              <mxPoint x="8900" y="-360" />
              <mxPoint x="-200" y="-360" />
              <mxPoint x="-200" y="-60" />
            </Array>
          </mxGeometry>
        </mxCell>
        <mxCell id="oyaKjV_WXcEfCoysOoAM-48" value="" style="endArrow=classic;html=1;rounded=0;fontFamily=Helvetica;fontSize=18;fontColor=default;strokeWidth=20;fillColor=#f5f5f5;strokeColor=#666666;exitX=0.221;exitY=0.921;exitDx=0;exitDy=0;entryX=0.702;entryY=0.041;entryDx=0;entryDy=0;exitPerimeter=0;entryPerimeter=0;" parent="1" edge="1">
          <mxGeometry width="50" height="50" relative="1" as="geometry">
            <mxPoint x="3250" y="235" as="sourcePoint" />
            <mxPoint x="2850" y="935" as="targetPoint" />
          </mxGeometry>
        </mxCell>
        <mxCell id="oyaKjV_WXcEfCoysOoAM-67" value="" style="endArrow=classic;html=1;rounded=0;fontFamily=Helvetica;fontSize=18;fontColor=default;strokeWidth=20;fillColor=#f5f5f5;strokeColor=#666666;exitX=0.221;exitY=0.921;exitDx=0;exitDy=0;entryX=0.702;entryY=0.041;entryDx=0;entryDy=0;exitPerimeter=0;entryPerimeter=0;" parent="1" edge="1">
          <mxGeometry width="50" height="50" relative="1" as="geometry">
            <mxPoint x="5750" y="235" as="sourcePoint" />
            <mxPoint x="5350" y="935" as="targetPoint" />
          </mxGeometry>
        </mxCell>
        <mxCell id="oyaKjV_WXcEfCoysOoAM-60" value="" style="ellipse;whiteSpace=wrap;html=1;aspect=fixed;strokeWidth=20;fillColor=#f5f5f5;fontColor=#333333;strokeColor=#666666;" parent="1" vertex="1">
          <mxGeometry x="2000" y="1600" width="600" height="600" as="geometry" />
        </mxCell>
        <mxCell id="oyaKjV_WXcEfCoysOoAM-50" value="" style="endArrow=classic;html=1;rounded=0;fontFamily=Helvetica;fontSize=18;fontColor=default;strokeWidth=20;fillColor=#f5f5f5;strokeColor=#666666;exitX=0.221;exitY=0.921;exitDx=0;exitDy=0;entryX=0.702;entryY=0.041;entryDx=0;entryDy=0;exitPerimeter=0;entryPerimeter=0;" parent="1" edge="1">
          <mxGeometry width="50" height="50" relative="1" as="geometry">
            <mxPoint x="2950" y="235" as="sourcePoint" />
            <mxPoint x="3350" y="935" as="targetPoint" />
          </mxGeometry>
        </mxCell>
        <mxCell id="oyaKjV_WXcEfCoysOoAM-51" value="" style="ellipse;whiteSpace=wrap;html=1;aspect=fixed;strokeWidth=20;fillColor=#f5f5f5;fontColor=#333333;strokeColor=#666666;" parent="1" vertex="1">
          <mxGeometry x="2800" y="200" width="600" height="600" as="geometry" />
        </mxCell>
        <mxCell id="oyaKjV_WXcEfCoysOoAM-63" value="" style="endArrow=classic;html=1;rounded=0;fontFamily=Helvetica;fontSize=18;fontColor=default;strokeWidth=20;fillColor=#f5f5f5;strokeColor=#666666;exitX=0.221;exitY=0.921;exitDx=0;exitDy=0;entryX=0.702;entryY=0.041;entryDx=0;entryDy=0;exitPerimeter=0;entryPerimeter=0;" parent="1" edge="1">
          <mxGeometry width="50" height="50" relative="1" as="geometry">
            <mxPoint x="2850" y="940" as="sourcePoint" />
            <mxPoint x="2450" y="1640" as="targetPoint" />
          </mxGeometry>
        </mxCell>
        <mxCell id="oyaKjV_WXcEfCoysOoAM-54" value="" style="ellipse;whiteSpace=wrap;html=1;aspect=fixed;strokeWidth=20;fillColor=#f5f5f5;fontColor=#333333;strokeColor=#666666;" parent="1" vertex="1">
          <mxGeometry x="3200" y="900" width="600" height="600" as="geometry" />
        </mxCell>
        <mxCell id="oyaKjV_WXcEfCoysOoAM-79" value="" style="ellipse;whiteSpace=wrap;html=1;aspect=fixed;strokeWidth=20;fillColor=#f5f5f5;fontColor=#333333;strokeColor=#666666;" parent="1" vertex="1">
          <mxGeometry x="4500" y="1600" width="600" height="600" as="geometry" />
        </mxCell>
        <mxCell id="oyaKjV_WXcEfCoysOoAM-82" value="" style="endArrow=classic;html=1;rounded=0;fontFamily=Helvetica;fontSize=18;fontColor=default;strokeWidth=20;fillColor=#f5f5f5;strokeColor=#666666;exitX=0.221;exitY=0.921;exitDx=0;exitDy=0;entryX=0.702;entryY=0.041;entryDx=0;entryDy=0;exitPerimeter=0;entryPerimeter=0;" parent="1" edge="1">
          <mxGeometry width="50" height="50" relative="1" as="geometry">
            <mxPoint x="5350" y="940" as="sourcePoint" />
            <mxPoint x="4950" y="1640" as="targetPoint" />
          </mxGeometry>
        </mxCell>
        <mxCell id="oyaKjV_WXcEfCoysOoAM-84" value="" style="ellipse;whiteSpace=wrap;html=1;aspect=fixed;strokeWidth=20;fillColor=#f5f5f5;strokeColor=#666666;fontColor=#333333;" parent="1" vertex="1">
          <mxGeometry x="4900" y="900" width="600" height="600" as="geometry" />
        </mxCell>
        <mxCell id="oyaKjV_WXcEfCoysOoAM-69" value="" style="endArrow=classic;html=1;rounded=0;fontFamily=Helvetica;fontSize=18;fontColor=default;strokeWidth=20;fillColor=#f5f5f5;strokeColor=#666666;exitX=0.221;exitY=0.921;exitDx=0;exitDy=0;entryX=0.702;entryY=0.041;entryDx=0;entryDy=0;exitPerimeter=0;entryPerimeter=0;" parent="1" edge="1">
          <mxGeometry width="50" height="50" relative="1" as="geometry">
            <mxPoint x="5450" y="235" as="sourcePoint" />
            <mxPoint x="5850" y="935" as="targetPoint" />
          </mxGeometry>
        </mxCell>
        <mxCell id="oyaKjV_WXcEfCoysOoAM-70" value="" style="ellipse;whiteSpace=wrap;html=1;aspect=fixed;strokeWidth=20;fillColor=#f5f5f5;fontColor=#333333;strokeColor=#666666;" parent="1" vertex="1">
          <mxGeometry x="5300" y="200" width="600" height="600" as="geometry" />
        </mxCell>
        <mxCell id="oyaKjV_WXcEfCoysOoAM-73" value="" style="ellipse;whiteSpace=wrap;html=1;aspect=fixed;strokeWidth=20;fillColor=#f5f5f5;fontColor=#333333;strokeColor=#666666;" parent="1" vertex="1">
          <mxGeometry x="5700" y="900" width="600" height="600" as="geometry" />
        </mxCell>
        <mxCell id="oyaKjV_WXcEfCoysOoAM-107" value="" style="group" parent="1" vertex="1" connectable="0">
          <mxGeometry x="2400" y="900" width="1258.2" height="1140.98" as="geometry" />
        </mxCell>
        <mxCell id="oyaKjV_WXcEfCoysOoAM-65" value="" style="ellipse;whiteSpace=wrap;html=1;aspect=fixed;strokeWidth=20;fillColor=#d5e8d4;strokeColor=#82b366;" parent="oyaKjV_WXcEfCoysOoAM-107" vertex="1">
          <mxGeometry width="600" height="600" as="geometry" />
        </mxCell>
        <mxCell id="oyaKjV_WXcEfCoysOoAM-66" value="" style="shape=image;verticalLabelPosition=bottom;labelBackgroundColor=default;verticalAlign=top;aspect=fixed;imageAspect=0;image=data:image/png,iVBORw0KGgoAAAANSUhEUgAABFQAAARUCAYAAABY/UdQAAAAOnRFWHRTb2Z0d2FyZQBNYXRwbG90bGliIHZlcnNpb24zLjEwLjEsIGh0dHBzOi8vbWF0cGxvdGxpYi5vcmcvc2/+5QAAAAlwSFlzAAAuIwAALiMBeKU/dgAAJjJJREFUeJzt3c2PXfd92OEz5KUoa6g2oh0pmaaOXxo4tNuksQ0CBUx0EXRReCNM1rOqYG+NCbLwn+DN7LowkWYz+8F04T+gUlogghsHDWDaaPoGtBOLqKnWlmLJtD2FBDSBQFni5/DOPXPOfZ6VRM6X53fvd2Se+fhwuHN6ZzgfeK+Do3Fzx4frPsn2soPtY+fTs4PtY+fTs4PtY+fTs4PtYt/z3cPx5d/BlakPAAAAADA3ggoAAABAJKgAAAAARIIKAAAAQCSoAAAAAESCCgAAAEAkqAAAAABEggoAAABAJKgAAAAARIIKAAAAQCSoAAAAAESCCgAAAEAkqAAAAABEggoAAABAJKgAAAAARIIKAAAAQCSoAAAAAESCCgAAAEAkqAAAAABEggoAAABAJKgAAAAARIIKAAAAQCSoAAAAAESCCgAAAEAkqAAAAABEggoAAABAJKgAAAAARIIKAAAAQCSoAAAAAESCCgAAAEAkqAAAAABEggoAAABAJKgAAAAARIIKAAAAQCSoAAAAAESCCgAAAEAkqAAAAABEggoAAABAJKgAAAAARIIKAAAAQCSoAAAAAESCCgAAAEAkqAAAAABEggoAAABAJKgAAAAARIIKAAAAQCSoAAAAAESCCgAAAEAkqAAAAABEggoAAABAJKgAAAAARIIKAAAAQCSoAAAAAEQ7p3ePzusQAAAAwDbzhAoAAABAJKgAAAAARIIKAAAAQCSoAAAAAESCCgAAAEAkqAAAAABEggoAAABAJKgAAAAARIIKAAAAQCSoAAAAAESCCgAAAEAkqAAAAABEggoAAABAJKgAAAAARIIKAAAAQCSoAAAAAESCCgAAAEAkqAAAAABEggoAAABAJKgAAAAARIIKAAAAQCSoAAAAAESCCgAAAEAkqAAAAABEggoAAABAJKgAAAAARIIKAAAAQLRzemc4H+bg4KjPHB9exEm46L29w+6mZ3fzZXfzZXfzZXfzZXfzZXfzZXfzZXfv4QkVAAAAgEhQAQAAAIgEFQAAAIBIUAEAAACIBBUAAACASFABAAAAiAQVAAAAgEhQAQAAAIgEFQAAAIBIUAEAAACIBBUAAACASFABAAAAiAQVAAAAgEhQAQAAAIgEFQAAAIBIUAEAAACIBBUAAACASFABAAAAiAQVAAAAgEhQAQAAAIgEFQAAAIBIUAEAAACIBBUAAACASFABAAAAiAQVAAAAgEhQAQAAAIgEFQAAAIBIUAEAAACIBBUAAACASFABAAAAiAQVAAAAgEhQAQAAAIgEFQAAAIBIUAEAAACIBBUAAACASFABAAAAiAQVAAAAgEhQAQAAAIgEFQAAAIBIUAEAAACIBBUAAACASFABAAAAiAQVAAAAgEhQAQAAAIgEFQAAAIBIUAEAAACIBBUAAACASFABAAAAiAQVAAAAgEhQAQAAAIgEFQAAAIBIUAEAAACIBBUAAACASFABAAAAiAQVAAAAgGjn9O7ReR0CAAAA2GaeUAEAAACIBBUAAACASFABAAAAiAQVAAAAgEhQAQAAAIgEFQAAAIBIUAEAAACIBBUAAACASFABAAAAiAQVAAAAgEhQAQAAAIgEFQAAAIBIUAEAAACIBBUAAACASFABAAAAiAQVAAAAgEhQAQAAAIgEFQAAAIBIUAEAAACIBBUAAACASFABAAAAiAQVAAAAgEhQAQAAAIgEFQAAAIBIUAEAAACIBBUAAACAaOf0znBehxbv4Gjc3PHhuk+yvexg+9j59Oxg+9j59Oxg+9j59Oxgu9j3fPdwfPl34AkVAAAAgEhQAQAAAIgEFQAAAIBIUAEAAACIBBUAAACASFABAAAAiAQVAAAAgEhQAQAAAIgEFQAAAIBIUAEAAACIBBUAAACASFABAAAAiAQVAAAAgEhQAQAAAIgEFQAAAIBIUAEAAACIBBUAAACASFABAAAAiAQVAAAAgEhQAQAAAIgEFQAAAIBIUAEAAACIBBUAAACASFABAAAAiAQVAAAAgEhQAQAAAIgEFQAAAIBIUAEAAACIBBUAAACASFABAAAAiAQVAAAAgEhQAQAAAIgEFQAAAIBIUAEAAACIBBUAAACASFABAAAAiAQVAAAAgEhQAQAAAIgEFQAAAIBIUAEAAACIBBUAAACASFABAAAAiAQVAAAAgEhQAQAAAIgEFQAAAIBIUAEAAACIBBUAAACASFABAAAAiAQVAAAAgEhQAQAAAIgEFQAAAIBIUAEAAACIBBUAAACASFABAAAAiAQVAAAAgGhVB4An9+IrU5/gEnrlcOoTYAfbx86nZwfbx86nt+AdnN6Z+gSwXTyhAgAAABAJKgAAAACRoAIAAAAQCSoAAAAAkaACAAAAEAkqAAAAAJGgAgAAABAJKgAAAACRoAIAAAAQCSoAAAAAkaACAAAAEAkqAAAAAJGgAgAAABAJKgAAAACRoAIAAAAQCSoAAAAAkaACAAAAEAkqAAAAAJGgAgAAABAJKgAAAACRoAIAAAAQCSoAAAAAkaACAAAAEAkqAAAAAJGgAgAAABAJKgAAAACRoAIAAAAQCSoAAAAAkaACAAAAEAkqAAAAAJGgAgAAABAJKgAAAACRoAIAAAAQCSoAAAAAkaACAAAAEAkqAAAAAJGgAgAAABAJKgAAAACRoAIAAAAQCSoAAAAAkaACAAAAEAkqAAAAAJGgAgAAABAJKgAAAACRoAIAAAAQCSoAAAAAkaACAAAAEAkqAAAAAJGgAgAAABAJKgAAAACRoAIAAAAQCSoAAAAAkaACAAAAEAkqAAAAANHO6d2j8zoEPJkXv3I49REAAFiY07tHUx8BtoonVAAAAAAiQQUAAAAgElQAAAAAIkEFAAAAIBJUAAAAACJBBQAAACASVAAAAAAiQQUAAAAgElQAAAAAIkEFAAAAIBJUAAAAACJBBQAAACASVAAAAAAiQQUAAAAgElQAAAAAIkEFAAAAIBJUAAAAACJBBQAAACASVAAAAAAiQQUAAAAgElQAAAAAIkEFAAAAIBJUAAAAACJBBQAAACASVAAAAAAiQQUAAAAgElQAAAAAotVwfDjMwsFRn5nLa1uyMXt7h90BAMAy76F9jTBfdvcenlABAAAAiAQVAAAAgEhQAQAAAIgEFQAAAIBIUAEAAACIBBUAAACASFABAAAAiAQVAAAAgEhQAQAAAIgEFQAAAIBIUAEAAACIBBUAAACASFABAAAAiAQVAAAAgEhQAQAAAIgEFQAAAIBIUAEAAACIBBUAAACASFABAAAAiAQVAAAAgEhQAQAAAIgEFQAAAIBIUAEAAACIBBUAAACASFABAAAAiAQVAAAAgEhQAQAAAIgEFQAAAIBIUAEAAACIBBUAAACASFABAAAAiAQVAAAAgEhQAQAAAIgEFQAAAIBIUAEAAACIBBUAAACASFABAAAAiAQVAAAAgEhQAQAAAIgEFQAAAIBIUAEAAACIBBUAAACASFABAAAAiAQVAAAAgEhQAQAAAIgEFQAAAIBIUAEAAACIBBUAAACASFABAAAAiAQVAAAAgEhQAQAAAIgEFQAAAIBIUAEAAACIBBUAAACAaOf07tF5HQKezItfOZz6CAAALMzp3aOpjwBbxRMqAAAAAJGgAgAAABAJKgAAAACRoAIAAAAQCSoAAAAAkaACAAAAEAkqAAAAAJGgAgAAABAJKgAAAACRoAIAAAAQCSoAAAAAkaACAAAAEAkqAAAAAJGgAgAAABAJKgAAAACRoAIAAAAQCSoAAAAAkaACAAAAEAkqAAAAAJGgAgAAABAJKgAAAACRoAIAAAAQCSoAAAAAkaACAAAAEAkqAAAAAJGgAgAAABAJKgAAAADRajg+rDPLd3A0bs57uT52AAAAjXvhR/m6Yr57OL78O/CECgAAAEAkqAAAAABEggoAAABAJKgAAAAARIIKAAAAQCSoAAAAAESCCgAAAEAkqAAAAABEggoAAABAJKgAAAAARIIKAAAAQCSoAAAAAESCCgAAAEAkqAAAAABEggoAAABAJKgAAAAARIIKAAAAQCSoAAAAAESCCgAAAEAkqAAAAABEggoAAABAJKgAAAAARIIKAAAAQCSoAAAAAESCCgAAAEAkqAAAAABEggoAAABAJKgAAAAARIIKAAAAQCSoAAAAAESCCgAAAEAkqAAAAABEggoAAABAJKgAAAAARIIKAAAAQCSoAAAAAESCCgAAAEAkqAAAAABEggoAAABAJKgAAAAARIIKAAAAQCSoAAAAAESCCgAAAEAkqAAAAABEggoAAABAJKgAAAAARIIKAAAAQCSoAAAAAESCCgAAAEAkqAAAAABEggoAAABAJKgAAAAARIIKAAAAQCSoAAAAAESCCgAAAEC0qgMAMEf3vjos1+7UB2A23tzcpW59c3PXAoApeEIFAAAAIBJUAAAAACJBBQAAACASVAAAAAAiQQUAAAAgElQAAAAAIkEFAAAAIBJUAAAAACJBBQAAACASVAAAAAAiQQUAAAAgElQAAAAAolUdAAA+xO6Gr7e/4euxPicz+dx8c9iY159/fnMXg0vqufv3pz4C8Bg8oQIAAAAQCSoAAAAAkaACAAAAEAkqAAAAAJGgAgAAABAJKgAAAACRoAIAAAAQCSoAAAAAkaACAAAAEAkqAAAAAJGgAgAAABAJKgAAAACRoAIAAAAQreoAAGyN3akPwOLtj5w73vDn9Az+W3ju/v2pjwCPeP3556c+AnCBPKECAAAAEAkqAAAAAJGgAgAAABAJKgAAAACRoAIAAAAQCSoAAAAAkaACAAAAEAkqAAAAAJGgAgAAABAJKgAAAACRoAIAAAAQCSoAAAAAkaACAAAAEK3qAADM0u4Gr7U/cu5k5NzxyLmDkXOsz8mGP583/bkJAAvmCRUAAACASFABAAAAiAQVAAAAgEhQAQAAAIgEFQAAAIBIUAEAAACIBBUAAACASFABAAAAiAQVAAAAgEhQAQAAAIgEFQAAAIBIUAEAAACIBBUAAACAaDUcHNUZfhnv5fTmsoNXDqc+AfA49od52B05dzxy7mDk3JKdbPh6c/ncBDZrLvfCc+C9nN7B5d+BJ1QAAAAAIkEFAAAAIBJUAAAAACJBBQAAACASVAAAAAAiQQUAAAAgElQAAAAAIkEFAAAAIBJUAAAAACJBBQAAACASVAAAAAAiQQUAAAAgElQAAAAAolUdAAAuyP7IuZORc7sbvt7Y17dJY1/bsOD3hNl6MHLu5prPAbBUnlABAAAAiAQVAAAAgEhQAQAAAIgEFQAAAIBIUAEAAACIBBUAAACASFABAAAAiAQVAAAAgEhQAQAAAIgEFQAAAIBIUAEAAACIBBUAAACASFABAAAAiFbD8eEwCwdHfWYur23JxuztHXYH8Pj2R84dj5zbHTl3ssHXNuZaT2LsOeExPRgxs9rbG3ets7NRczdHTbFWc7mH9jXCfNnde3hCBQAAACASVAAAAAAiQQUAAAAgElQAAAAAIkEFAAAAIBJUAAAAACJBBQAAACASVAAAAAAiQQUAAAAgElQAAAAAIkEFAAAAIBJUAAAAACJBBQAAACBa1QEAYCEORs4dr/kcl+VaT/KewGN6MHJutbe35pOs/1oPzs5Gzd0cNQUwPU+oAAAAAESCCgAAAEAkqAAAAABEggoAAABAJKgAAAAARIIKAAAAQCSoAAAAAESCCgAAAEAkqAAAAABEggoAAABAJKgAAAAARIIKAAAAQLSqAwAAwDg3R849ODvLM6u9vVHX+tmIaz3JawOYK0+oAAAAAESCCgAAAEAkqAAAAABEggoAAABAJKgAAAAARIIKAAAAQCSoAAAAAESCCgAAAEAkqAAAAABEggoAAABAJKgAAAAARIIKAAAAQCSoAAAAAESrOgAAbLndDV5rf+TcyYbnxp4THtPNETMPzs42di2AbeQJFQAAAIBIUAEAAACIBBUAAACASFABAAAAiAQVAAAAgEhQAQAAAIgEFQAAAIBIUAEAAACIBBUAAACASFABAAAAiAQVAAAAgEhQAQAAAIgEFQAAAIBoNRwcDYu15Ne2dEvf3SuHU58AYBhONny9/WG5xr6XS35PmNzNqQ/A5i39Hnrpr2/JDpa5O0+oAAAAAESCCgAAAEAkqAAAAABEggoAAABAJKgAAAAARIIKAAAAQCSoAAAAAESCCgAAAEAkqAAAAABEggoAAABAJKgAAAAARIIKAAAAQCSoAAAAAESrOgAAW+Nk5Nz+yLnjkXO7w2aNfX2bNJcdbPpzDABYG0+oAAAAAESCCgAAAEAkqAAAAABEggoAAABAJKgAAAAARIIKAAAAQCSoAAAAAESCCgAAAEAkqAAAAABEggoAAABAJKgAAAAARIIKAAAAQCSoAAAAAESr4fiwzizfwdG4Oe/l+tgBMGfHwzzsT32AS+hgwzvfHTl3MnIOWDb3wo/ydcV893B8+XfgCRUAAACASFABAAAAiAQVAAAAgEhQAQAAAIgEFQAAAIBIUAEAAACIBBUAAACASFABAAAAiAQVAAAAgEhQAQAAAIgEFQAAAIBIUAEAAACIBBUAAACAaFUHAGCW3hwxszvyWmPnxtrf8PV41MHIueOZfI6N+e8HABbOEyoAAAAAkaACAAAAEAkqAAAAAJGgAgAAABAJKgAAAACRoAIAAAAQCSoAAAAAkaACAAAAEAkqAAAAAJGgAgAAABAJKgAAAACRoAIAAAAQCSoAAAAA0aoOAMDWeHPk3O6az8Fy7c7kc3oGXn/++amPAMCW8YQKAAAAQCSoAAAAAESCCgAAAEAkqAAAAABEggoAAABAJKgAAAAARIIKAAAAQCSoAAAAAESCCgAAAEAkqAAAAABEggoAAABAJKgAAAAARIIKAAAAQLSqAwDAh3hz5NzuyLmTkXNs3+fYDDx3//7URwCAx+IJFQAAAIBIUAEAAACIBBUAAACASFABAAAAiAQVAAAAgEhQAQAAAIgEFQAAAIBIUAEAAACIBBUAAACASFABAAAAiAQVAAAAgEhQAQAAAIhWdQAA5ujWN4dL79are6Pm7t0+W/tZ2Iwl7/zB1AeALfTy1AeALeMJFQAAAIBIUAEAAACIBBUAAACASFABAAAAiAQVAAAAgEhQAQAAAIgEFQAAAIBIUAEAAACIBBUAAACASFABAAAAiAQVAAAAgEhQAQAAAIgEFQAAAIBoVQcAgMvl1qt7o+bu3T5b+1m21dgdAADz5QkVAAAAgEhQAQAAAIgEFQAAAIBIUAEAAACIBBUAAACASFABAAAAiAQVAAAAgEhQAQAAAIgEFQAAAIBIUAEAAACIBBUAAACASFABAAAAiAQVAAAAgGhVBwCAi3Hv9tmouVuv7m10jul3zqNeO9zwBfc3fD2md9xHXvjmRRwEuCw8oQIAAAAQCSoAAAAAkaACAAAAEAkqAAAAAJGgAgAAABAJKgAAAACRoAIAAAAQCSoAAAAAkaACAAAAEAkqAAAAAJGgAgAAABAJKgAAAACRoAIAAAAQreoAAABcOvsj505Gzh2PnDsYOcf6jN357prPAcyeJ1QAAAAAIkEFAAAAIBJUAAAAACJBBQAAACASVAAAAAAiQQUAAAAgElQAAAAAIkEFAAAAIBJUAAAAACJBBQAAACASVAAAAAAiQQUAAAAgElQAAAAAop3Tu0fndQh4Mi9+5XDqIwCX0K1X9zZ6vXu3zxb7+pb82qZ4fWM82PD1XvvTkYMnw2a9OXLuYM3nWIJN726/j7zwpWGjXr57tNkLwpbzhAoAAABAJKgAAAAARIIKAAAAQCSoAAAAAESCCgAAAEAkqAAAAABEggoAAABAJKgAAAAARIIKAAAAQCSoAAAAAESCCgAAAEAkqAAAAABEggoAAABAtKoDAMAHu/Xq3tRHYOHGfo7du3229rPM3v7IuZORc7sbvN7Y17ZpY9/LsebyvgCXnidUAAAAACJBBQAAACASVAAAAAAiQQUAAAAgElQAAAAAIkEFAAAAIBJUAAAAACJBBQAAACASVAAAAAAiQQUAAAAgElQAAAAAIkEFAAAAIBJUAAAAAKKd0zvD+TAHB0d95vjwIk7CRe9tC3b34itTnwB4HB976caHf9DVneHK0zvD1Rs7w/XPXBue/q1rw87VnU0cDzbm3u2zPPNg2KzX/nSYh+ORc7vD5uyPnDsZNmvsOTfohS9t9nov3xnmwdcI82V377F6778CAP/fW997mD7+x//ureHKM1eGj/yTa8ONf/b08NTH/TYLALBU/sgPAKzRL/7mF8Obf/b2cP9f/2h46z+3IAMAwHwIKgBwAc4fng//+49/LKoAACyUoAIAFxlV/s2Ph1+8NY9vVwYAwOMTVADgAp3/9Hz4yXd/OvUxAABYM0EFAC7YT/5CUAEAWBpBBQAu2Fvff+iP/QAALIygAgAb+F4qP7v/86mPAQDAGgkqALABnlABAFgWQQUANkBQAQBYFkEFAAAAIBJUAAAAAKJVHQCAOfqH//LXht/77S8Mn//tzw+/95nPD//0M58fPv5rH3/k45698/Qk54PL7Nare33o9tlFHGX+DkbOHfeRF7458lpH48Ze++qG3xOAiQkqACzS5z73ueHLX/7y8IUvfGH44he/OHzqU5+a+kgAACyIoALAIr300kvD1772tamPAQDAQvkeKgAAAACRoALAVnn7p28P3/n+nw9/8m//eHj9x69PfZxL5Y37bw33v/ej4Wc//fnURwEAuPT8kR8AFuvhw4fDd7/73eHb3/728Jf/5y+G73zvz4e//Kv/NDz82cN3f/73b/+L4blnn5v6mJfGL35+Pvzwv74xPPgfbw43f3N3uPmp3WH11NWpjwUAcCkJKgAs0je+8Y3h61//+vDWW2+9++83vnR96iPNxrmwAgDwoQQVABbpBz/4wdRHmD1hBQDglxNUAIAPJKwAADxKUAEAHouwAgDwdwQVACARVgAABBUAYCRhBQDYZoIKAPBEhBUAYBsJKgDAWggrAMA2EVQAgLUSVgCAbSCoAAAXQlgBAJZMUAEALpSwAgAskaACAGyEsAIALImgAgBslLACACyBoAIwhd8fhuHTwzD86jAM16Y+zCX1/WEY/uP6frk37r/9vl/YP87HreX6/+HtYfifF/JLz5awAgDMmaACMIVfGYZhb+pDwOUgrAAAc3Rl6gMAAPxtWPlvbww//Ks3hvPzR58eAgC4TDyhAgBMb2cYfuU3nhk++ukbw1PPuD0BAC4/dywAU3jne4P8l2EYPjoMw29MfZhL6rVhGP5mfb/clb+/8+gPvs8PXbn2Pj+4Btf+3tXh6s3L/WDoT/7vw/f9vjIXSkgBAGbKnQvAFP771AfYPs984qlHfmznyqPx5JnnHv24dfjoP352eOZ3LubXXpcf/fVPhv/1ndc3czEhBQCYOXcwAMDmCCkAwEK4kwEALp6QAgAsjDsaAODiCCkAwEK5swEA1k9IgfXa7SOvHY681v7IuZMNz409J8CauMMBANZHSAEAtoQ7HQDgyQkpAMCWcccDAIwnpAAAW8qdDwCL9a1vfWvY29t795+v7O488vO//rFff+TH/v2f/NkH/pp/8EcvDj/44V+v8ZQzJaQAAFvOHRAAi/XZz352+MQnPpFmfue3fvcDf/6pa08NW01IAQB4lzshAODDCSkAAO/hjggA+OWEFACA9+XOCIDF+uQnP/m3/3zjS9cnPcvsCCkAAB/IHRIA8HeEFACAx+JOCQB41/Vnrw2f/ufPCykAAI/BHRMA8K7rN9wWAAA8riuP/ZEAAAAAvEtQAQAAAIhWw8HRsFhLfm1Lt/TdvXI49QkAgCmcbPBa+8OyjX0vl/y+LP0eeumvb8kOlrk7T6gAAAAARIIKAAAAQCSoAMAG7PgdFwBgUdzeAcAGXPnIztRHAABgjQQVANiAKzf8lgsAsCTu7gDggl197upw7YWrUx8DAIA1ElQA4II987tPTX0EAADWTFABgAv2EUEFAGBxBBUAuEDX/9G14fpvrqY+BgAAayaoAMAFuf7pa8PH/tWzUx8DAIAL4P8yA4ALejLlnZhy5bq/LhkAYIkEFQBYk9WvXn33G9C+8z1TnvoHfosFAFgyd3sAbIWPvXQxf/RmZ7UzXHl6Z7hyY2dY3fRXIwMAbAtBBYCt8JHP+pt2gPdxPHJud9is/eHy25/JDk4WvANgo3xTWgAAAIBIUAEAAACIBBUAAACASFABAAAAiAQVAAAAgEhQAQAAAIgEFQAAAIBIUAEAAACIBBUAAACASFABAAAAiAQVAAAAgEhQAQAAAIgEFQAAAIBo5/TOcF6HFu/gaNzc8eG6T7K9Fr6DF1+Z+gTARbr16t7UR4D3de/22cau9WDYrNe+uuEL7o6c21/zObbZ8YZ3N8ILI29px3r5zmavNwsL/7pi0Xs4vvw78IQKAAAAQCSoAAAAAESCCgAAAEAkqAAAAABEggoAAABAJKgAAAAARIIKAAAAQCSoAAAAAESCCgAAAEAkqAAAAABEggoAAABAJKgAAAAARIIKAAAAQLSqAwDAB7t3+2yj17v16t4szrlkdnAJ7G74evsbvh6POhg5dzyTzzHg0vOECgAAAEAkqAAAAABEggoAAABAJKgAAAAARIIKAAAAQCSoAAAAAESCCgAAAEAkqAAAAABEggoAAABAJKgAAAAARIIKAAAAQCSoAAAAAESrOgAAAJfNC0cbvuCmrwfApeMJFQAAAIBIUAEAAACIBBUAAACASFABAAAAiAQVAAAAgEhQAQAAAIgEFQAAAIBIUAEAAACIBBUAAACASFABAAAAiAQVAAAAgEhQAQAAAIgEFQAAAIBIUAEAAACIBBUAAACASFABAAAAiAQVAAAAgEhQAQAAAIgEFQAAAIBIUAEAAACIBBUAAACASFABAAAAiAQVAAAAgEhQAQAAAIgEFQAAAIBIUAEAAACIBBUAAACAaFUHgCd3emfqE1xCB0fj5o4P132S7WUH8/WHZ+Pm7tr52tjBI16e+gCXlf+tnZ4dAGviCRUAAACASFABAAAAiAQVAAAAgEhQAQAAAIgEFQAAAIBIUAEAAACIBBUAAACASFABAAAAiAQVAAAAgEhQAQAAAIgEFQAAAIBIUAEAAACIBBUAAACASFABAAAAiAQVAAAAgEhQAQAAAIgEFQAAAIBIUAEAAACIBBUAAACASFABAAAAiAQVAAAAgEhQAQAAAIgEFQAAAIBIUAEAAACIBBUAAACASFABAAAAiAQVAAAAgEhQAQAAAIgEFQAAAIBIUAEAAACIBBUAAACASFABAAAAiAQVAAAAgEhQAQAAAIgEFQAAAIBIUAEAAACIBBUAAACASFABAAAAiAQVAAAAgEhQAQAAAIgEFQAAAIBIUAEAAACIBBUAAACASFABAAAAiAQVAAAAgEhQAQAAAIgEFQAAAIBIUAEAAACIBBUAAACASFABAAAAiAQVAAAAgEhQAQAAAIgEFQAAAIBIUAEAAACIBBUAAACAaOf07tF5HQIAAADYZp5QAQAAAIgEFQAAAIBIUAEAAACIBBUAAACASFABAAAAiAQVAAAAgEhQAQAAAIgEFQAAAIBIUAEAAACIBBUAAACASFABAAAAiAQVAAAAgEhQAQAAAIgEFQAAAIBIUAEAAACIBBUAAACASFABAAAAiAQVAAAAgEhQAQAAAIgEFQAAAIBIUAEAAACIBBUAAACASFABAAAAiAQVAAAAgEhQAQAAAIgEFQAAAIBo5/TOcD7MwcFRnzk+vIiTcNF7e4fdTc/u5svu5svu5svu5svu5svu5svu5svu3sMTKgAAAACRoAIAAAAQCSoAAAAAkaACAAAAEAkqAAAAAJGgAgAAABAJKgAAAACRoAIAAAAQCSoAAAAAkaACAAAAEAkqAAAAAJGgAgAAABAJKgAAAACRoAIAAAAQCSoAAAAAkaACAAAAEAkqAAAAAJGgAgAAABAJKgAAAACRoAIAAAAQCSoAAAAAkaACAAAAEAkqAAAAAJGgAgAAABAJKgAAAACRoAIAAAAQCSoAAAAAkaACAAAAEAkqAAAAAJGgAgAAABAJKgAAAACRoAIAAAAQCSoAAAAAkaACAAAAEAkqAAAAAJGgAgAAABAJKgAAAACRoAIAAAAQCSoAAAAAkaACAAAAEAkqAAAAAJGgAgAAABAJKgAAAACRoAIAAAAQCSoAAAAAkaACAAAAEAkqAAAAAJGgAgAAABAJKgAAAACRoAIAAAAQCSoAAAAAkaACAAAAEAkqAAAAAJGgAgAAABAJKgAAAADRzundo/M6BAAAALDNPKECAAAAEAkqAAAAAJGgAgAAABAJKgAAAACRoAIAAAAQCSoAAAAAkaACAAAAEAkqAAAAAJGgAgAAABAJKgAAAACRoAIAAAAQCSoAAAAAkaACAAAAEAkqAAAAAJGgAgAAABAJKgAAAACRoAIAAAAQCSoAAAAAkaACAAAAEAkqAAAAAJGgAgAAABAJKgAAAACRoAIAAAAQCSoAAAAAkaACAAAAEAkqAAAAAJGgAgAAABDtnN4ZzuvQ4h0cjZs7Plz3SbaXHWwfO5+eHWwfO5+eHWwfO5+eHWwX+57vHo4v/w48oQIAAAAQCSoAAAAAkaACAAAAEAkqAAAAAJGgAgAAABAJKgAAAACRoAIAAAAQCSoAAAAAkaACAAAAEAkqAAAAAJGgAgAAABAJKgAAAACRoAIAAAAQCSoAAAAAkaACAAAAEAkqAAAAAJGgAgAAABAJKgAAAACRoAIAAAAQCSoAAAAAkaACAAAAEAkqAAAAAJGgAgAAABAJKgAAAACRoAIAAAAQCSoAAAAAkaACAAAAEAkqAAAAAJGgAgAAABAJKgAAAACRoAIAAAAQCSoAAAAAkaACAAAAEAkqAAAAAJGgAgAAABAJKgAAAACRoAIAAAAQCSoAAAAAkaACAAAAEAkqAAAAAJGgAgAAABAJKgAAAACRoAIAAAAQCSoAAAAAkaACAAAAEAkqAAAAAJGgAgAAABAJKgAAAACRoAIAAAAQCSoAAAAAkaACAAAAEAkqAAAAAJGgAgAAABAJKgAAAABD8/8AVZriZdwmSy8AAAAASUVORK5CYII=;clipPath=inset(0% 0% 0% 0% round 49%);" parent="oyaKjV_WXcEfCoysOoAM-107" vertex="1">
          <mxGeometry x="50" y="50" width="500" height="500" as="geometry" />
        </mxCell>
        <mxCell id="oyaKjV_WXcEfCoysOoAM-279" value="" style="rounded=1;whiteSpace=wrap;html=1;rotation=60;fillColor=none;fontColor=#333333;strokeColor=#666666;arcSize=50;strokeWidth=8;dashed=1;dashPattern=8 8;" parent="oyaKjV_WXcEfCoysOoAM-107" vertex="1">
          <mxGeometry x="-243.22" y="314.72" width="1501.42" height="675.95" as="geometry" />
        </mxCell>
        <mxCell id="oyaKjV_WXcEfCoysOoAM-98" value="" style="ellipse;whiteSpace=wrap;html=1;aspect=fixed;strokeWidth=20;fillColor=#f5f5f5;fontColor=#333333;strokeColor=#666666;" parent="1" vertex="1">
          <mxGeometry x="6990" y="1600" width="600" height="600" as="geometry" />
        </mxCell>
        <mxCell id="oyaKjV_WXcEfCoysOoAM-95" value="" style="ellipse;whiteSpace=wrap;html=1;aspect=fixed;strokeWidth=20;fillColor=#d5e8d4;strokeColor=#82b366;" parent="1" vertex="1">
          <mxGeometry x="7790" y="1600" width="600" height="600" as="geometry" />
        </mxCell>
        <mxCell id="oyaKjV_WXcEfCoysOoAM-101" value="" style="endArrow=classic;html=1;rounded=0;fontFamily=Helvetica;fontSize=18;fontColor=default;strokeWidth=20;fillColor=#f5f5f5;strokeColor=#666666;exitX=0.221;exitY=0.921;exitDx=0;exitDy=0;entryX=0.702;entryY=0.041;entryDx=0;entryDy=0;exitPerimeter=0;entryPerimeter=0;" parent="1" edge="1">
          <mxGeometry width="50" height="50" relative="1" as="geometry">
            <mxPoint x="7850" y="940" as="sourcePoint" />
            <mxPoint x="7450" y="1640" as="targetPoint" />
          </mxGeometry>
        </mxCell>
        <mxCell id="oyaKjV_WXcEfCoysOoAM-103" value="" style="ellipse;whiteSpace=wrap;html=1;aspect=fixed;strokeWidth=20;fillColor=#d5e8d4;strokeColor=#82b366;" parent="1" vertex="1">
          <mxGeometry x="7400" y="900" width="600" height="600" as="geometry" />
        </mxCell>
        <mxCell id="oyaKjV_WXcEfCoysOoAM-88" value="" style="endArrow=classic;html=1;rounded=0;fontFamily=Helvetica;fontSize=18;fontColor=default;strokeWidth=20;fillColor=#f5f5f5;strokeColor=#666666;exitX=0.221;exitY=0.921;exitDx=0;exitDy=0;entryX=0.702;entryY=0.041;entryDx=0;entryDy=0;exitPerimeter=0;entryPerimeter=0;" parent="1" edge="1">
          <mxGeometry width="50" height="50" relative="1" as="geometry">
            <mxPoint x="7950" y="235" as="sourcePoint" />
            <mxPoint x="8350" y="935" as="targetPoint" />
          </mxGeometry>
        </mxCell>
        <mxCell id="oyaKjV_WXcEfCoysOoAM-89" value="" style="ellipse;whiteSpace=wrap;html=1;aspect=fixed;strokeWidth=20;fillColor=#d5e8d4;strokeColor=#82b366;" parent="1" vertex="1">
          <mxGeometry x="7800" y="200" width="600" height="600" as="geometry" />
        </mxCell>
        <mxCell id="oyaKjV_WXcEfCoysOoAM-92" value="" style="ellipse;whiteSpace=wrap;html=1;aspect=fixed;strokeWidth=20;fillColor=#f5f5f5;fontColor=#333333;strokeColor=#666666;" parent="1" vertex="1">
          <mxGeometry x="8200" y="900" width="600" height="600" as="geometry" />
        </mxCell>
        <mxCell id="oyaKjV_WXcEfCoysOoAM-114" value="&lt;span style=&quot;font-size:125%;line-height:1em&quot;&gt;V(s)&lt;/span&gt;" style="text;html=1;align=center;verticalAlign=middle;whiteSpace=wrap;rounded=0;fontSize=128;fontColor=#82B366;fontStyle=1" parent="1" vertex="1">
          <mxGeometry x="7820" y="1800" width="540" height="200" as="geometry" />
        </mxCell>
        <mxCell id="oyaKjV_WXcEfCoysOoAM-115" value="&lt;span style=&quot;font-size:125%;line-height:1em&quot;&gt;V(s)&lt;/span&gt;" style="text;html=1;align=center;verticalAlign=middle;whiteSpace=wrap;rounded=0;fontSize=128;fontColor=#82B366;fontStyle=1" parent="1" vertex="1">
          <mxGeometry x="7430" y="1100" width="540" height="200" as="geometry" />
        </mxCell>
        <mxCell id="oyaKjV_WXcEfCoysOoAM-118" value="&lt;b&gt;V(s)&lt;/b&gt;" style="text;html=1;align=center;verticalAlign=middle;whiteSpace=wrap;rounded=0;fontSize=128;fontColor=#82B366;" parent="1" vertex="1">
          <mxGeometry x="5450" y="2520" width="300" height="200" as="geometry" />
        </mxCell>
        <mxCell id="oyaKjV_WXcEfCoysOoAM-119" value="&lt;span style=&quot;font-size: 160px;&quot;&gt;&lt;b&gt;V(s)&lt;/b&gt;&lt;/span&gt;" style="text;html=1;align=center;verticalAlign=middle;whiteSpace=wrap;rounded=0;fontSize=128;fontColor=#82B366;" parent="1" vertex="1">
          <mxGeometry x="7830" y="400" width="540" height="200" as="geometry" />
        </mxCell>
        <mxCell id="oyaKjV_WXcEfCoysOoAM-223" value="" style="group" parent="1" vertex="1" connectable="0">
          <mxGeometry x="5300" y="1600" width="600" height="600" as="geometry" />
        </mxCell>
        <mxCell id="oyaKjV_WXcEfCoysOoAM-76" value="" style="ellipse;whiteSpace=wrap;html=1;aspect=fixed;strokeWidth=20;fillColor=#d5e8d4;strokeColor=#82b366;" parent="oyaKjV_WXcEfCoysOoAM-223" vertex="1">
          <mxGeometry width="600" height="600" as="geometry" />
        </mxCell>
        <mxCell id="oyaKjV_WXcEfCoysOoAM-222" value="" style="shape=image;verticalLabelPosition=bottom;labelBackgroundColor=default;verticalAlign=top;aspect=fixed;imageAspect=0;image=data:image/png,iVBORw0KGgoAAAANSUhEUgAABFQAAARUCAYAAABY/UdQAAAAOnRFWHRTb2Z0d2FyZQBNYXRwbG90bGliIHZlcnNpb24zLjEwLjEsIGh0dHBzOi8vbWF0cGxvdGxpYi5vcmcvc2/+5QAAAAlwSFlzAAAuIwAALiMBeKU/dgAALCxJREFUeJzt3X+s3XWd5/HPbU8p9Bb5TZeOgYUMix3HraDg7iyFjUKUqAleWETlqowCJoS4uWYn0ewGd0xkXYfLLhPZtMMM6NVq/HG5uMb4j9EAmxVQdmZWBybOuONs9koLLb/6i/66m3t3ZebObUtf3977/Z7v9zweSaM9t+9+Pud8LuH2yafnDk1tKDOF+UbHq81NjC32TgaXMxg8zrx5zmDwOPPmOYPB48yb5wwGi/Nu7zlM9P8ZLGt6AwAAAABtI6gAAAAAhAQVAAAAgJCgAgAAABASVAAAAABCggoAAABASFABAAAACAkqAAAAACFBBQAAACAkqAAAAACEBBUAAACAkKACAAAAEBJUAAAAAEKCCgAAAEBIUAEAAAAICSoAAAAAIUEFAAAAICSoAAAAAIQEFQAAAICQoAIAAAAQElQAAAAAQoIKAAAAQEhQAQAAAAgJKgAAAAAhQQUAAAAgJKgAAAAAhAQVAAAAgJCgAgAAABASVAAAAABCggoAAABASFABAAAACAkqAAAAACFBBQAAACAkqAAAAACEBBUAAACAkKACAAAAEBJUAAAAAEKCCgAAAEBIUAEAAAAICSoAAAAAIUEFAAAAICSoAAAAAIQEFQAAAICQoAIAAAAQElQAAAAAQoIKAAAAQEhQAQAAAAgJKgAAAAAhQQUAAAAgJKgAAAAAhAQVAAAAgJCgAgAAABASVAAAAABCQ1ObxmfSIQAAAIBB5oYKAAAAQEhQAQAAAAgJKgAAAAAhQQUAAAAgJKgAAAAAhAQVAAAAgJCgAgAAABASVAAAAABCggoAAABASFABAAAACAkqAAAAACFBBQAAACAkqAAAAACEBBUAAACAkKACAAAAEBJUAAAAAEKCCgAAAEBIUAEAAAAICSoAAAAAIUEFAAAAICSoAAAAAIQEFQAAAICQoAIAAAAQElQAAAAAQoIKAAAAQEhQAQAAAAgJKgAAAAChoakNZaa0weh4PjMxthQ7YanPbZaza56zay9n117Orr2cXXs5u/Zydu3l7NrL2c3jhgoAAABASFABAAAACAkqAAAAACFBBQAAACAkqAAAAACEBBUAAACAkKACAAAAEBJUAAAAAEKCCgAAAEBIUAEAAAAICSoAAAAAIUEFAAAAICSoAAAAAIQEFQAAAICQoAIAAAAQElQAAAAAQoIKAAAAQEhQAQAAAAgJKgAAAAAhQQUAAAAgJKgAAAAAhAQVAAAAgJCgAgAAABASVAAAAABCggoAAABASFABAAAACAkqAAAAACFBBQAAACAkqAAAAACEBBUAAACAkKACAAAAEBJUAAAAAEKCCgAAAEBIUAEAAAAICSoAAAAAIUEFAAAAICSoAAAAAIQEFQAAAICQoAIAAAAQElQAAAAAQoIKAAAAQEhQAQAAAAgJKgAAAAAhQQUAAAAgJKgAAAAAhAQVAAAAgJCgAgAAABASVAAAAABCggoAAABASFABAAAACAkqAAAAACFBBQAAACAkqAAAAACEBBUAAACAkKACAAAAEBqa2jQ+kw4BAAAADDI3VAAAAABCggoAAABASFABAAAACAkqAAAAACFBBQAAACAkqAAAAACEBBUAAACAkKACAAAAEBJUAAAAAEKCCgAAAEBIUAEAAAAICSoAAAAAIUEFAAAAICSoAAAAAIQEFQAAAICQoAIAAAAQElQAAAAAQoIKAAAAQEhQAQAAAAgJKgAAAAAhQQUAAAAgJKgAAAAAhAQVAAAAgJCgAgAAABASVAAAAABCggoAAABAaGhqQ5lJhzpvdLza3MTYYu9kcDmDwePMm+cMBo8zb54zGDzOvHnOYLA47/aew0T/n4EbKgAAAAAhQQUAAAAgJKgAAAAAhAQVAAAAgJCgAgAAABASVAAAAABCggoAAABASFABAAAACAkqAAAAACFBBQAAACAkqAAAAACEBBUAAACAkKACAAAAEBJUAAAAAEKCCgAAAEBIUAEAAAAICSoAAAAAIUEFAAAAICSoAAAAAIQEFQAAAICQoAIAAAAQElQAAAAAQoIKAAAAQEhQAQAAAAgJKgAAAAAhQQUAAAAgJKgAAAAAhAQVAAAAgJCgAgAAABASVAAAAABCggoAAABASFABAAAACAkqAAAAACFBBQAAACAkqAAAAACEBBUAAACAkKACAAAAEBJUAAAAAEKCCgAAAEBIUAEAAAAICSoAAAAAIUEFAAAAICSoAAAAAIQEFQAAAICQoAIAAAAQElQAAAAAQoIKAAAAQEhQAQAAAAgJKgAAAAAhQQUAAAAgJKgAAAAAhAQVAAAAgJCgAgAAABASVAAAAABCggoAAABAqJcOAMfu6oeb3kEfenis6R3gDAaPM2+eMxg8zrx5HT6DqQ1N7wAGixsqAAAAACFBBQAAACAkqAAAAACEBBUAAACAkKACAAAAEBJUAAAAAEKCCgAAAEBIUAEAAAAICSoAAAAAIUEFAAAAICSoAAAAAIQEFQAAAICQoAIAAAAQElQAAAAAQoIKAAAAQEhQAQAAAAgJKgAAAAAhQQUAAAAgJKgAAAAAhAQVAAAAgJCgAgAAABASVAAAAABCggoAAABASFABAAAACAkqAAAAACFBBQAAACAkqAAAAACEBBUAAACAkKACAAAAEBJUAAAAAEKCCgAAAEBIUAEAAAAICSoAAAAAIUEFAAAAICSoAAAAAIQEFQAAAICQoAIAAAAQElQAAAAAQoIKAAAAQEhQAQAAAAgJKgAAAAAhQQUAAAAgJKgAAAAAhAQVAAAAgJCgAgAAABASVAAAAABCggoAAABASFABAAAACAkqAAAAACFBBQAAACAkqAAAAACEBBUAAACAkKACAAAAEBJUAAAAAEJDU5vGZ9Ih4NhcffNY01sAAKBjpjaNN70FGChuqAAAAACEBBUAAACAkKACAAAAEBJUAAAAAEKCCgAAAEBIUAEAAAAICSoAAAAAIUEFAAAAICSoAAAAAIQEFQAAAICQoAIAAAAQElQAAAAAQoIKAAAAQEhQAQAAAAgJKgAAAAAhQQUAAAAgJKgAAAAAhAQVAAAAgJCgAgAAABASVAAAAABCggoAAABASFABAAAACAkqAAAAACFBBQAAACAkqAAAAACEBBUAAACAkKACAAAAEOqVibHSCqPj+UxbnluXVTm3Wc4OAAC6+TW0PyO0l7Obxw0VAAAAgJCgAgAAABASVAAAAABCggoAAABASFABAAAACAkqAAAAACFBBQAAACAkqAAAAACEBBUAAACAkKACAAAAEBJUAAAAAEKCCgAAAEBIUAEAAAAICSoAAAAAIUEFAAAAICSoAAAAAIQEFQAAAICQoAIAAAAQElQAAAAAQoIKAAAAQEhQAQAAAAgJKgAAAAAhQQUAAAAgJKgAAAAAhAQVAAAAgJCgAgAAABASVAAAAABCggoAAABASFABAAAACAkqAAAAACFBBQAAACAkqAAAAACEBBUAAACAkKACAAAAEBJUAAAAAEKCCgAAAEBIUAEAAAAICSoAAAAAIUEFAAAAICSoAAAAAIQEFQAAAICQoAIAAAAQElQAAAAAQoIKAAAAQEhQAQAAAAgJKgAAAAAhQQUAAAAgJKgAAAAAhAQVAAAAgJCgAgAAABASVAAAAABCggoAAABASFABAAAACAkqAAAAAKGhqU3jM+kQcGyuvnms6S0AANAxU5vGm94CDBQ3VAAAAABCggoAAABASFABAAAACAkqAAAAACFBBQAAACAkqAAAAACEBBUAAACAkKACAAAAEBJUAAAAAEKCCgAAAEBIUAEAAAAICSoAAAAAIUEFAAAAICSoAAAAAIQEFQAAAICQoAIAAAAQElQAAAAAQoIKAAAAQEhQAQAAAAgJKgAAAAAhQQUAAAAgJKgAAAAAhAQVAAAAgJCgAgAAABASVAAAAABCggoAAABASFABAAAACPXKxFg6032j49XmvJaLxxkAAEDG18IL+XNFe89hov/PwA0VAAAAgJCgAgAAABASVAAAAABCggoAAABASFABAAAACAkqAAAAACFBBQAAACAkqAAAAACEBBUAAACAkKACAAAAEBJUAAAAAEKCCgAAAEBIUAEAAAAICSoAAAAAIUEFAAAAICSoAAAAAIQEFQAAAICQoAIAAAAQElQAAAAAQoIKAAAAQEhQAQAAAAgJKgAAAAAhQQUAAAAgJKgAAAAAhAQVAAAAgJCgAgAAABASVAAAAABCggoAAABASFABAAAACAkqAAAAACFBBQAAACAkqAAAAACEBBUAAACAkKACAAAAEBJUAAAAAEKCCgAAAEBIUAEAAAAICSoAAAAAIUEFAAAAICSoAAAAAIQEFQAAAICQoAIAAAAQElQAAAAAQoIKAAAAQEhQAQAAAAgJKgAAAAAhQQUAAAAgJKgAAAAAhAQVAAAAgJCgAgAAABASVAAAAABCggoAAABASFABAAAACAkqAAAAACFBBQAAACDUSwcAoI2evKV013DTG6A1dta31LqN9a0FAE1wQwUAAAAgJKgAAAAAhAQVAAAAgJCgAgAAABASVAAAAABCggoAAABASFABAAAACAkqAAAAACFBBQAAACAkqAAAAACEBBUAAACAkKACAAAAEOqlAwDAqxiueb2Rmtdj8Uy25HNzZ6nNc2eeWd9i0KdO2bq16S0AR8ENFQAAAICQoAIAAAAQElQAAAAAQoIKAAAAQEhQAQAAAAgJKgAAAAAhQQUAAAAgJKgAAAAAhAQVAAAAgJCgAgAAABASVAAAAABCggoAAABASFABAAAACPXSAQAYGMNNb4DOG6k4N1Hz53QL/lk4ZevWprcACzx35plNbwFYQm6oAAAAAIQEFQAAAICQoAIAAAAQElQAAAAAQoIKAAAAQEhQAQAAAAgJKgAAAAAhQQUAAAAgJKgAAAAAhAQVAAAAgJCgAgAAABASVAAAAABCggoAAABAqJcOAEArDde41kjFucmKcxMV50YrzrF4Jmv+fK77cxMAOswNFQAAAICQoAIAAAAQElQAAAAAQoIKAAAAQEhQAQAAAAgJKgAAAAAhQQUAAAAgJKgAAAAAhAQVAAAAgJCgAgAAABASVAAAAABCggoAAABASFABAAAACPXK6Hg6w+F4LZvXljN4eKzpHQBHY6S0w3DFuYmKc6MV57pssub12vK5CdSrLV8Lt4HXsnmj/X8GbqgAAAAAhAQVAAAAgJCgAgAAABASVAAAAABCggoAAABASFABAAAACAkqAAAAACFBBQAAACAkqAAAAACEBBUAAACAkKACAAAAEBJUAAAAAEKCCgAAAEColw4AAEtkpOLcZMW54ZrXq/r86lT1uZUOvya01vaKc6cu8j4AusoNFQAAAICQoAIAAAAQElQAAAAAQoIKAAAAQEhQAQAAAAgJKgAAAAAhQQUAAAAgJKgAAAAAhAQVAAAAgJCgAgAAABASVAAAAABCggoAAABASFABAAAACPXKxFhphdHxfKYtz63LqpzbLGcHcPRGKs5NVJwbrjg3WeNzq7LWsai6TzhK2yvM9NaurbbW9HSluVMrTbGo2vI1tD8jtJezm8cNFQAAAICQoAIAAAAQElQAAAAAQoIKAAAAQEhQAQAAAAgJKgAAAAAhQQUAAAAgJKgAAAAAhAQVAAAAgJCgAgAAABASVAAAAABCggoAAABASFABAAAACPXSAQCgI0Yrzk0s8j76Za1jeU3gKG2vONdbu3aRd7L4a22fnq40d2qlKYDmuaECAAAAEBJUAAAAAEKCCgAAAEBIUAEAAAAICSoAAAAAIUEFAAAAICSoAAAAAIQEFQAAAICQoAIAAAAQElQAAAAAQoIKAAAAQEhQAQAAAAj10gEAAKCaUyvObZ+ejmd6a9dWWmt/hbWO5bkBtJUbKgAAAAAhQQUAAAAgJKgAAAAAhAQVAAAAgJCgAgAAABASVAAAAABCggoAAABASFABAAAACAkqAAAAACFBBQAAACAkqAAAAACEBBUAAACAkKACAAAAEOqlAwDAgBuuca2RinOTNc9V3SccpVMrzGyfnq5tLYBB5IYKAAAAQEhQAQAAAAgJKgAAAAAhQQUAAAAgJKgAAAAAhAQVAAAAgJCgAgAAABASVAAAAABCggoAAABASFABAAAACAkqAAAAACFBBQAAACAkqAAAAACEemV0vHRWl59b13X97B4ea3oHAKVM1rzeSOmuqq9ll18TGndq0xugfl3/Grrrz6/LRrt5dm6oAAAAAIQEFQAAAICQoAIAAAAQElQAAAAAQoIKAAAAQEhQAQAAAAgJKgAAAAAhQQUAAAAgJKgAAAAAhAQVAAAAgJCgAgAAABASVAAAAABCggoAAABAqJcOAMDAmKw4N1JxbqLi3HCpV9XnV6e2nEHdn2MAwKJxQwUAAAAgJKgAAAAAhAQVAAAAgJCgAgAAABASVAAAAABCggoAAABASFABAAAACAkqAAAAACFBBQAAACAkqAAAAACEBBUAAACAkKACAAAAEBJUAAAAAEK9MjGWznTf6Hi1Oa/l4nEGQJtNlHYYaXoDfWi05jMfrjg3WXEO6DZfCy/kzxXtPYeJ/j8DN1QAAAAAQoIKAAAAQEhQAQAAAAgJKgAAAAAhQQUAAAAgJKgAAAAAhAQVAAAAgJCgAgAAABASVAAAAABCggoAAABASFABAAAACAkqAAAAACFBBQAAACDUSwcAoJV2VpgZrrhW1bmqRmpej4VGK85NtORzrMo/PwDQcW6oAAAAAIQEFQAAAICQoAIAAAAQElQAAAAAQoIKAAAAQEhQAQAAAAgJKgAAAAAhQQUAAAAgJKgAAAAAhAQVAAAAgJCgAgAAABASVAAAAABCggoAAABAqJcOAMDA2FlxbniR90F3Dbfkc7oFnjvzzKa3AMCAcUMFAAAAICSoAAAAAIQEFQAAAICQoAIAAAAQElQAAAAAQoIKAAAAQEhQAQAAAAgJKgAAAAAhQQUAAAAgJKgAAAAAhAQVAAAAgJCgAgAAABASVAAAAABCvXQAAHgVOyvODVecm6w4x+B9jrXAKVu3Nr0FADgqbqgAAAAAhAQVAAAAgJCgAgAAABASVAAAAABCggoAAABASFABAAAACAkqAAAAACFBBQAAACAkqAAAAACEBBUAAACAkKACAAAAEBJUAAAAAEK9dAAYDOseW1tp7slLphd9L9Sj62e+bmPTO4DBsr3pDcAAeqjpDcCAcUMFAAAAICSoAAAAAIQEFQAAAICQoAIAAAAQElQAAAAAQoIKAAAAQEhQAQAAAAgJKgAAAAAhQQUAAAAgJKgAAAAAhAQVAAAAgJCgAgAAABASVAAAAABCvXQA4EjWPba20tyTl0wv+l4GVdUzAAAAjp4bKgAAAAAhQQUAAAAgJKgAAAAAhAQVAAAAgJCgAgAAABASVAAAAABCggoAAABASFABAAAACAkqAAAAACFBBQAAACAkqAAAAACEBBUAAACAkKACAAAAEOqlA8BgePKS6Upz6x5bW+sczZ85QD/YMlbzgiM1r0fzJvKRNRuXYiNAv3BDBQAAACAkqAAAAACEBBUAAACAkKACAAAAEBJUAAAAAEKCCgAAAEBIUAEAAAAICSoAAAAAIUEFAAAAICSoAAAAAIQEFQAAAICQoAIAAAAQElQAAAAAQr10AAAA+s5IxbnJinMTFedGK86xeKqe+fAi7wNoPTdUAAAAAEKCCgAAAEBIUAEAAAAICSoAAAAAIUEFAAAAICSoAAAAAIQEFQAAAICQoAIAAAAQElQAAAAAQoIKAAAAQEhQAQAAAAgJKgAAAAAhQQUAAAAgNDS1aXwmHQKOzdU3j5V+t+6xtbWu9+Ql07Wu1+Xn1+XnBrTH9prX2/JIxcHJUq+dFedGF3kfXVD32Y3kI2suLbV6aNN4vQvCgHNDBQAAACAkqAAAAACEBBUAAACAkKACAAAAEBJUAAAAAEKCCgAAAEBIUAEAAAAICSoAAAAAIUEFAAAAICSoAAAAAIQEFQAAAICQoAIAAAAQElQAAAAAQr10AGifdY+tbXoLdFjVz68nL5le9L0AxEYqzk1WnBuucb2qz61uVV/LqtryugB9zw0VAAAAgJCgAgAAABASVAAAAABCggoAAABASFABAAAACAkqAAAAACFBBQAAACAkqAAAAACEBBUAAACAkKACAAAAEBJUAAAAAEKCCgAAAEBIUAEAAAAIDU1tKDOlDUbH85mJsaXYCUt9bgNwdlc/XG1u3WNrF3srEJuZmSl7/2Z/2f0X+8rBFw+Wg7tmysyB+v5V8uy9O2pbC6hue83rbXmktMNExbnhUp+RinOTpV5V91mjNZfWu95DG0o7+DNCezm7eXrzfwoAh7bv2QNlxyN7yu4/31sOPH+w6e0AAECjBBUAXtW+LQfK1nteLAdfElIAAGCW91AB4IjEFAAAWEhQAeCInv3jl8QUAAD4BwQVAA5r79/uL/ufPdD0NgAAoO8IKgAc1q4/29v0FgAAoC8JKgAclqACAACHJqgAcEgH9xwsB7b76z4AAHAoggoAh3Rw10zTWwAAgL4lqABwSDMvCyoAAHA4ggoAhzSjpwAAwGH1Dv8hAGCxHH/88WXdunXlggsuKKeddlo56aSTyu7du8tzzz1Xnn766fL444+Xbdu2Nb1NAACOkqACDVj32NqmtwC1O+XEU8qFr3tTueh1F5ULL7iovPGCi8rZ/+jsBb/uxA3HH/H3WX3pykrr73jk5VJ3QLnyyivLW9/61rkfr3/968vy5cuPOPPzn/+8bN68uWzatKlMT0/XtlegRqMV5ybykTUbK641Xm1syy01vyYADRNUAFgS6879rfKOf35VeeMFF86FlHPXnlsGwaWXXlpuvfXW8q53vausXr06mj3//PPL7bffXj71qU+Vz3/+8+XTn/502bdv35LtFQCA6gQVAJbEh951Y7n1utvKoPnIRz5Srr/++mP6PVasWDEXVd75znfO3XJ55plnFm1/AAAsDkEFAGqwY8eO8qMf/Wjux+x7psxGkpUrV5bXvva15fLLLy9XXHHFgr8StH79+vL9739/7uOz77UCAED/EFQABsi+PQfKtr/eUU76jRPKCScf18geXt77cvmL//Wz8j+eeqK8563XzL23Slft2rWrPPDAA+W+++4rP/zhD8uBAwcO+evuuOOOct5555V77rmnvP3tb5/3sTe84Q1lfHy83HjjjUu/4fNLKbNva/PfZze/9MsBALSZoAIwQCHl+f+9s8wcLOU1Zx1fz7r795Wn/ubJuXjyxF/+ZO5//+df/fnc47PedsmVnQwqs7dJ7rrrrnL33XeXF1544ahmfvGLX5R3vOMdc29Ie9NNN8372Ac/+MHyhS98ofz4xz8uS2pFKWVDKeUtpZRHhRUAgCMRVAAGKKTU6a7Nd5ZPb/x3Zc/ePWWQfPGLXywf//jHy4svvlhp/mMf+1h585vfXC688MJXHlu2bFm54YYblj6o/Nrs5SVhBQDgiJYd+cMAtDWkPP2zF8pf/3BLee6X9ceUWVu2PT1wMWXW7F/tqRpTZh08eLB85jOfWfD47HcNqt2vw8q/nr1OVEpZVf8WAAD6lRsqAB3S5I0UFs/3vve9ufdb+ftvUnvOOeeUoaGhMjMzU/+G3FgBAFhAUAHoACGlW3bv3l22bdtWzjzzzFce6/V65Ywzzihbt25tbmPCCgDAKwQVgBYTUrpr1apVhwwtfUFYAQAQVADaSEjptjVr1pTVq1fPe2znzp3lpZdeKn1FWAEABpigAtAiQspguPbaaxc89vjjj5e+JawAAANIUAFoASFlsNx0000LHnvwwQdL3xNWAIABIqgA9DEhZfB8+MMfLuvXr5/32K5du8pXvvKV0hrCCgAwAAQVgD4kpAyms88+u9x1110LHr/zzjvLM888U1pHWAEAOkxQAegjQsrgOu6448o3v/nNcvLJJ897/Kmnniqf/exnS6sJKwBABwkqAH1ASOH+++8vF1988bzH9uzZUz7wgQ/M/W8nCCsAQIcIKgANElKY9bnPfa68733vW/D4bbfdVp544onSOcIKANABggpAA371s+fLS9N7yoF9zVSUX/5o26v/oudKKVuXdh8zB2YWPLZj68tLs9g/KX3pk7d8svze2O8tePz3v/D75d6H7l28fV9TSllZ+jOsXDp78LPfG7qU8lDTmwIAODqCCkATN1J+6T/HU8pto7eVz44tfH+U8fvGy+13314GxlAp5cRSyuWllBVurAAA7bCs6Q0ADIqDB2bKM3/5Ynnulzub3gp94Jbrbyl3/9u7Fzx+z+Z7yif+wyfKQFpeSvmd/39rZTayAAD0MTdUAGqybPlQWbv+lHLaeavL3z6+vezfc6DpLdGQG6+5sdxz+z0LHr/3G/eWW//9rWVgbSmlfLWU8nzTGwEAeHWCCkDNVp64oqxdf3LZtX1vefFXu8veHftr38PQUClDy498BWCmN1NmlvqWwKF+/6Vas/6X+ZBGrx4tf/SZPyrLls2/JHr/t+4vN3/q5lIWvq3M4tg9e03qVX7Nygburs4+3+lSys9m39xHTAEA2kNQAWjA8Gkr536ccf6J5eWX9pVn/2rHXFypy9lvOa2sOvXI71C6d3p/2fLoC0u6j6FlC+vJ6jOW5p1TdzyyRG92G5j9Tj73fe6+snz57N9t+Ttf/vKXy+9+8HfLzMxS1ZRSyn86il/zW6WU60o9Zi9o/Wkp5WERBQBoJ0EFoA9urPzGhaeU039zde1hhfq8973vLV/60pcWxJSvfvWr5UMf+tDSxpR+IqQAAB0hqAD0CWGlu6699tq5Wyi93vx/7X79618vN9xwQzl4sJlvn10rIQUA6BhBBaDPCCvd8p73vKds3rx5QUz51re+Vd7//vd3P6YIKQBARwkqAH1KWGm/d7/73eVrX/taWbFixbzHH3jggXL99deXAwc6/J2ehBRYXMP5yJaximuNVJybrHmu6j4BFomgAtDnhJV2uuqqq8o3vvGNctxxx817/Nvf/na57rrryv79ffJthxabkAIADIi6vzkiAMcYVs7bcEZ5zVknNL2dvveBq0bLSw/veeXH7Ju+/uAHP6hl7SuuuKJMTk6WlSvnf8ei73znO3Pvp9LJmDIbUn5SSvnDUsp/FVMAgO5zQwWgZdxY6W+XXXZZefDBB8vxxx8/7/Hvfve75Zprrin79u0rneJGCgAwoAQVgJZqQ1j55n+cKmedftZhP36oj/23P3n0iL/nNf/m6vL0tl+VfnXvvfeWVatWLXj83HPPLY8+euTn9mo++tGPlp/8ZPYaSB8QUgCAASeoALRcP4eV1/3jdeWcs86JZv7p+euP+PHjVsx/T5J+8w/fgPbX1q1bd8y/9+rVq0vjhBQAgDmCCkBH9HNYacLpJ5++4LGf/vSnjeylE4QUAIB5BBWAjhFW/p8NF14+7+d79uwpd9xxR2P7aS0hBQDgkAQVgI7qh7Dy29ddUJqwfPny8jvr/8W8xzZu3Fimp6eXfO3Z90rpBCEFAOCIBBWAjuuHsFK3N73uzeXEVSe+8vNde3a5nXK0hBQAgKMiqAAMYFhZ1ltWuuyyi/7lvJ/f+8DGsmXLlsb20xqzL9EfCikAAEdDUAEYwLDSdZdd9Hfvn7Jj145y1+Y7G91Pa2xregMAAO3R7f9ECcDAmf22ym/57X/2ys83Tv6X8uzzzza6JwAAukdQAaBTLn79W8qq41fN/f8Xd75Y/vPm8aa3BABABw1NbRqfaXoTMGg++cY/aHoL8Kr2Tu8vW/7ghdIVOx55uektwEDZXvN6Wx4p7TBZ41ojpbvPrSWvy5pLS60e2uQ/IkCd3FABAAAACAkqAAAAACFBBYBDGlo+1PQWAACgbwkqABzSshMEFQAAOBxBBYBDWrZqqJRlogoAAByKoALAIQ31hsrK3+w1vQ0AAOhLggoAh7Vq/XFNbwEAAPqSoALAYZ3whuP8tR8AADgEQQWAw1q+elkZvmRl09sAAIC+I6gAcESn/KtVZdWbRBUAAPj7BBUAjmhoaKic+v7hMnyxqAIAAL/m2zcAcHRR5X2ry4lXnlB2/9nesutP95Z9/2d/09sCAIDGCCoAHLUVpy8vK952QnnN204oB144WA68dLAc3DVTZvbPlH6345GXm94CAAAdIqgAUMnyk5bN/QBotYmKc8OlXiOl/4205AwmO3wGQK18JQwAAAAQElQAAAAAQoIKAAAAQEhQAQAAAAgJKgAAAAAhQQUAAAAgJKgAAAAAhAQVAAAAgJCgAgAAABASVAAAAABCggoAAABASFABAAAACAkqAAAAAKGhqQ1lJh3qvNHxanMTY4u9k8HV8TO4+uF611v32Np6F4Sj8OQl001vAVhC22teb8stNS84XHFuZJH3Mcgmaj67CtZU/JK2qoc21LteK3T8zxWdPoeJ/j8DN1QAAAAAQoIKAAAAQEhQAQAAAAgJKgAAAAAhQQUAAAAgJKgAAAAAhAQVAAAAgJCgAgAAABASVAAAAABCggoAAABASFABAAAACAkqAAAAACFBBQAAACDUSweA9nnykuna1lr32Nq+32PXOQNgIA3XvN5Izeux0GjFuYmWfI4Bfc8NFQAAAICQoAIAAAAQElQAAAAAQoIKAAAAQEhQAQAAAAgJKgAAAAAhQQUAAAAgJKgAAAAAhAQVAAAAgJCgAgAAABASVAAAAABCggoAAABAqJcOAABAv1kzXvOCda8HQN9xQwUAAAAgJKgAAAAAhAQVAAAAgJCgAgAAABASVAAAAABCggoAAABASFABAAAACAkqAAAAACFBBQAAACAkqAAAAACEBBUAAACAkKACAAAAEBJUAAAAAEKCCgAAAEBIUAEAAAAICSoAAAAAIUEFAAAAICSoAAAAAIQEFQAAAICQoAIAAAAQElQAAAAAQoIKAAAAQEhQAQAAAAgJKgAAAAAhQQUAAAAgJKgAAAAAhAQVAAAAgFAvHQCO3dSG0l2fmK42t2m82tzEWLW5LnMGHK1RZ964Dp/BQ01voF91+MxbwxkAi8QNFQAAAICQoAIAAAAQElQAAAAAQoIKAAAAQEhQAQAAAAgJKgAAAAAhQQUAAAAgJKgAAAAAhAQVAAAAgJCgAgAAABASVAAAAABCggoAAABASFABAAAACAkqAAAAACFBBQAAACAkqAAAAACEBBUAAACAkKACAAAAEBJUAAAAAEKCCgAAAEBIUAEAAAAICSoAAAAAIUEFAAAAICSoAAAAAIQEFQAAAICQoAIAAAAQElQAAAAAQoIKAAAAQEhQAQAAAAgJKgAAAAAhQQUAAAAgJKgAAAAAhAQVAAAAgJCgAgAAABASVAAAAABCggoAAABASFABAAAACAkqAAAAACFBBQAAACAkqAAAAACEBBUAAACAkKACAAAAEBJUAAAAAEKCCgAAAEBIUAEAAAAICSoAAAAAIUEFAAAAICSoAAAAAIQEFQAAAICQoAIAAAAQElQAAAAAQoIKAAAAQEhQAQAAAAgJKgAAAAAhQQUAAAAgNDS1aXwmHQIAAAAYZG6oAAAAAIQEFQAAAICQoAIAAAAQElQAAAAAQoIKAAAAQEhQAQAAAAgJKgAAAAAhQQUAAAAgJKgAAAAAhAQVAAAAgJCgAgAAABASVAAAAABCggoAAABASFABAAAACAkqAAAAACFBBQAAACAkqAAAAACEBBUAAACAkKACAAAAEBJUAAAAAEKCCgAAAEBIUAEAAAAICSoAAAAAIUEFAAAAICSoAAAAAIQEFQAAAIDQ0NSGMlPaYHQ8n5kYW4qdsNTnNsvZNc/ZtZezay9n117Orr2cXXs5u/Zydu3l7OZxQwUAAAAgJKgAAAAAhAQVAAAAgJCgAgAAABASVAAAAABCggoAAABASFABAAAACAkqAAAAACFBBQAAACAkqAAAAACEBBUAAACAkKACAAAAEBJUAAAAAEKCCgAAAEBIUAEAAAAICSoAAAAAIUEFAAAAICSoAAAAAIQEFQAAAICQoAIAAAAQElQAAAAAQoIKAAAAQEhQAQAAAAgJKgAAAAAhQQUAAAAgJKgAAAAAhAQVAAAAgJCgAgAAABASVAAAAABCggoAAABASFABAAAACAkqAAAAACFBBQAAACAkqAAAAACEBBUAAACAkKACAAAAEBJUAAAAAEKCCgAAAEBIUAEAAAAICSoAAAAAIUEFAAAAICSoAAAAAIQEFQAAAICQoAIAAAAQElQAAAAAQoIKAAAAQEhQAQAAAAgJKgAAAAAhQQUAAAAgJKgAAAAAhAQVAAAAgJCgAgAAABASVAAAAABCggoAAABASFABAAAACA1NbRqfSYcAAAAABpkbKgAAAAAhQQUAAAAgJKgAAAAAhAQVAAAAgJCgAgAAABASVAAAAABCggoAAABASFABAAAACAkqAAAAACFBBQAAACAkqAAAAACEBBUAAACAkKACAAAAEBJUAAAAAEKCCgAAAEBIUAEAAAAICSoAAAAAIUEFAAAAICSoAAAAAIQEFQAAAICQoAIAAAAQElQAAAAAQoIKAAAAQEhQAQAAAAgJKgAAAAAhQQUAAAAgJKgAAAAAhIamNpSZdKjzRserzU2MLfZOBpczGDzOvHnOYPA48+Y5g8HjzJvnDAaL827vOUz0/xm4oQIAAAAQElQAAAAAQoIKAAAAQEhQAQAAAAgJKgAAAAAhQQUAAAAgJKgAAAAAhAQVAAAAgJCgAgAAABASVAAAAABCggoAAABASFABAAAACAkqAAAAACFBBQAAACAkqAAAAACEBBUAAACAkKACAAAAEBJUAAAAAEKCCgAAAEBIUAEAAAAICSoAAAAAIUEFAAAAICSoAAAAAIQEFQAAAICQoAIAAAAQElQAAAAAQoIKAAAAQEhQAQAAAAgJKgAAAAAhQQUAAAAgJKgAAAAAhAQVAAAAgJCgAgAAABASVAAAAABCggoAAABASFABAAAACAkqAAAAACFBBQAAACAkqAAAAACEBBUAAACAkKACAAAAEBJUAAAAAEKCCgAAAEBIUAEAAAAICSoAAAAAIUEFAAAAICSoAAAAAIQEFQAAAICQoAIAAAAQElQAAAAAQoIKAAAAQEhQAQAAAAgJKgAAAAAhQQUAAACgZP4vuaBXMftYbvwAAAAASUVORK5CYII=;clipPath=inset(0% 0% 0% 0% round 49%);" parent="oyaKjV_WXcEfCoysOoAM-223" vertex="1">
          <mxGeometry x="50" y="50" width="500" height="500" as="geometry" />
        </mxCell>
        <mxCell id="oyaKjV_WXcEfCoysOoAM-224" value="" style="group" parent="1" vertex="1" connectable="0">
          <mxGeometry x="2800" y="1600" width="875.6599999999999" height="600" as="geometry" />
        </mxCell>
        <mxCell id="oyaKjV_WXcEfCoysOoAM-57" value="" style="ellipse;whiteSpace=wrap;html=1;aspect=fixed;strokeWidth=14;fillColor=#d5e8d4;strokeColor=#82b366;" parent="oyaKjV_WXcEfCoysOoAM-224" vertex="1">
          <mxGeometry width="600" height="600" as="geometry" />
        </mxCell>
        <mxCell id="mhYo0zj6bfY33cigUTVe-12" value="" style="shape=image;verticalLabelPosition=bottom;labelBackgroundColor=default;verticalAlign=top;aspect=fixed;imageAspect=0;image=data:image/png,iVBORw0KGgoAAAANSUhEUgAABFQAAARUCAYAAABY/UdQAAAAOnRFWHRTb2Z0d2FyZQBNYXRwbG90bGliIHZlcnNpb24zLjEwLjEsIGh0dHBzOi8vbWF0cGxvdGxpYi5vcmcvc2/+5QAAAAlwSFlzAAAuIwAALiMBeKU/dgAALCxJREFUeJzt3X+s3XWd5/HPbU8p9Bb5TZeOgYUMix3HraDg7iyFjUKUqAleWETlqowCJoS4uWYn0ewGd0xkXYfLLhPZtMMM6NVq/HG5uMb4j9EAmxVQdmZWBybOuONs9koLLb/6i/66m3t3ZebObUtf3977/Z7v9zweSaM9t+9+Pud8LuH2yafnDk1tKDOF+UbHq81NjC32TgaXMxg8zrx5zmDwOPPmOYPB48yb5wwGi/Nu7zlM9P8ZLGt6AwAAAABtI6gAAAAAhAQVAAAAgJCgAgAAABASVAAAAABCggoAAABASFABAAAACAkqAAAAACFBBQAAACAkqAAAAACEBBUAAACAkKACAAAAEBJUAAAAAEKCCgAAAEBIUAEAAAAICSoAAAAAIUEFAAAAICSoAAAAAIQEFQAAAICQoAIAAAAQElQAAAAAQoIKAAAAQEhQAQAAAAgJKgAAAAAhQQUAAAAgJKgAAAAAhAQVAAAAgJCgAgAAABASVAAAAABCggoAAABASFABAAAACAkqAAAAACFBBQAAACAkqAAAAACEBBUAAACAkKACAAAAEBJUAAAAAEKCCgAAAEBIUAEAAAAICSoAAAAAIUEFAAAAICSoAAAAAIQEFQAAAICQoAIAAAAQElQAAAAAQoIKAAAAQEhQAQAAAAgJKgAAAAAhQQUAAAAgJKgAAAAAhAQVAAAAgJCgAgAAABASVAAAAABCQ1ObxmfSIQAAAIBB5oYKAAAAQEhQAQAAAAgJKgAAAAAhQQUAAAAgJKgAAAAAhAQVAAAAgJCgAgAAABASVAAAAABCggoAAABASFABAAAACAkqAAAAACFBBQAAACAkqAAAAACEBBUAAACAkKACAAAAEBJUAAAAAEKCCgAAAEBIUAEAAAAICSoAAAAAIUEFAAAAICSoAAAAAIQEFQAAAICQoAIAAAAQElQAAAAAQoIKAAAAQEhQAQAAAAgJKgAAAAChoakNZaa0weh4PjMxthQ7YanPbZaza56zay9n117Orr2cXXs5u/Zydu3l7NrL2c3jhgoAAABASFABAAAACAkqAAAAACFBBQAAACAkqAAAAACEBBUAAACAkKACAAAAEBJUAAAAAEKCCgAAAEBIUAEAAAAICSoAAAAAIUEFAAAAICSoAAAAAIQEFQAAAICQoAIAAAAQElQAAAAAQoIKAAAAQEhQAQAAAAgJKgAAAAAhQQUAAAAgJKgAAAAAhAQVAAAAgJCgAgAAABASVAAAAABCggoAAABASFABAAAACAkqAAAAACFBBQAAACAkqAAAAACEBBUAAACAkKACAAAAEBJUAAAAAEKCCgAAAEBIUAEAAAAICSoAAAAAIUEFAAAAICSoAAAAAIQEFQAAAICQoAIAAAAQElQAAAAAQoIKAAAAQEhQAQAAAAgJKgAAAAAhQQUAAAAgJKgAAAAAhAQVAAAAgJCgAgAAABASVAAAAABCggoAAABASFABAAAACAkqAAAAACFBBQAAACAkqAAAAACEBBUAAACAkKACAAAAEBqa2jQ+kw4BAAAADDI3VAAAAABCggoAAABASFABAAAACAkqAAAAACFBBQAAACAkqAAAAACEBBUAAACAkKACAAAAEBJUAAAAAEKCCgAAAEBIUAEAAAAICSoAAAAAIUEFAAAAICSoAAAAAIQEFQAAAICQoAIAAAAQElQAAAAAQoIKAAAAQEhQAQAAAAgJKgAAAAAhQQUAAAAgJKgAAAAAhAQVAAAAgJCgAgAAABASVAAAAABCggoAAABAaGhqQ5lJhzpvdLza3MTYYu9kcDmDwePMm+cMBo8zb54zGDzOvHnOYLA47/aew0T/n4EbKgAAAAAhQQUAAAAgJKgAAAAAhAQVAAAAgJCgAgAAABASVAAAAABCggoAAABASFABAAAACAkqAAAAACFBBQAAACAkqAAAAACEBBUAAACAkKACAAAAEBJUAAAAAEKCCgAAAEBIUAEAAAAICSoAAAAAIUEFAAAAICSoAAAAAIQEFQAAAICQoAIAAAAQElQAAAAAQoIKAAAAQEhQAQAAAAgJKgAAAAAhQQUAAAAgJKgAAAAAhAQVAAAAgJCgAgAAABASVAAAAABCggoAAABASFABAAAACAkqAAAAACFBBQAAACAkqAAAAACEBBUAAACAkKACAAAAEBJUAAAAAEKCCgAAAEBIUAEAAAAICSoAAAAAIUEFAAAAICSoAAAAAIQEFQAAAICQoAIAAAAQElQAAAAAQoIKAAAAQEhQAQAAAAgJKgAAAAAhQQUAAAAgJKgAAAAAhAQVAAAAgJCgAgAAABASVAAAAABCggoAAABAqJcOAMfu6oeb3kEfenis6R3gDAaPM2+eMxg8zrx5HT6DqQ1N7wAGixsqAAAAACFBBQAAACAkqAAAAACEBBUAAACAkKACAAAAEBJUAAAAAEKCCgAAAEBIUAEAAAAICSoAAAAAIUEFAAAAICSoAAAAAIQEFQAAAICQoAIAAAAQElQAAAAAQoIKAAAAQEhQAQAAAAgJKgAAAAAhQQUAAAAgJKgAAAAAhAQVAAAAgJCgAgAAABASVAAAAABCggoAAABASFABAAAACAkqAAAAACFBBQAAACAkqAAAAACEBBUAAACAkKACAAAAEBJUAAAAAEKCCgAAAEBIUAEAAAAICSoAAAAAIUEFAAAAICSoAAAAAIQEFQAAAICQoAIAAAAQElQAAAAAQoIKAAAAQEhQAQAAAAgJKgAAAAAhQQUAAAAgJKgAAAAAhAQVAAAAgJCgAgAAABASVAAAAABCggoAAABASFABAAAACAkqAAAAACFBBQAAACAkqAAAAACEBBUAAACAkKACAAAAEBJUAAAAAEJDU5vGZ9Ih4NhcffNY01sAAKBjpjaNN70FGChuqAAAAACEBBUAAACAkKACAAAAEBJUAAAAAEKCCgAAAEBIUAEAAAAICSoAAAAAIUEFAAAAICSoAAAAAIQEFQAAAICQoAIAAAAQElQAAAAAQoIKAAAAQEhQAQAAAAgJKgAAAAAhQQUAAAAgJKgAAAAAhAQVAAAAgJCgAgAAABASVAAAAABCggoAAABASFABAAAACAkqAAAAACFBBQAAACAkqAAAAACEBBUAAACAkKACAAAAEOqVibHSCqPj+UxbnluXVTm3Wc4OAAC6+TW0PyO0l7Obxw0VAAAAgJCgAgAAABASVAAAAABCggoAAABASFABAAAACAkqAAAAACFBBQAAACAkqAAAAACEBBUAAACAkKACAAAAEBJUAAAAAEKCCgAAAEBIUAEAAAAICSoAAAAAIUEFAAAAICSoAAAAAIQEFQAAAICQoAIAAAAQElQAAAAAQoIKAAAAQEhQAQAAAAgJKgAAAAAhQQUAAAAgJKgAAAAAhAQVAAAAgJCgAgAAABASVAAAAABCggoAAABASFABAAAACAkqAAAAACFBBQAAACAkqAAAAACEBBUAAACAkKACAAAAEBJUAAAAAEKCCgAAAEBIUAEAAAAICSoAAAAAIUEFAAAAICSoAAAAAIQEFQAAAICQoAIAAAAQElQAAAAAQoIKAAAAQEhQAQAAAAgJKgAAAAAhQQUAAAAgJKgAAAAAhAQVAAAAgJCgAgAAABASVAAAAABCggoAAABASFABAAAACAkqAAAAAKGhqU3jM+kQcGyuvnms6S0AANAxU5vGm94CDBQ3VAAAAABCggoAAABASFABAAAACAkqAAAAACFBBQAAACAkqAAAAACEBBUAAACAkKACAAAAEBJUAAAAAEKCCgAAAEBIUAEAAAAICSoAAAAAIUEFAAAAICSoAAAAAIQEFQAAAICQoAIAAAAQElQAAAAAQoIKAAAAQEhQAQAAAAgJKgAAAAAhQQUAAAAgJKgAAAAAhAQVAAAAgJCgAgAAABASVAAAAABCggoAAABASFABAAAACPXKxFg6032j49XmvJaLxxkAAEDG18IL+XNFe89hov/PwA0VAAAAgJCgAgAAABASVAAAAABCggoAAABASFABAAAACAkqAAAAACFBBQAAACAkqAAAAACEBBUAAACAkKACAAAAEBJUAAAAAEKCCgAAAEBIUAEAAAAICSoAAAAAIUEFAAAAICSoAAAAAIQEFQAAAICQoAIAAAAQElQAAAAAQoIKAAAAQEhQAQAAAAgJKgAAAAAhQQUAAAAgJKgAAAAAhAQVAAAAgJCgAgAAABASVAAAAABCggoAAABASFABAAAACAkqAAAAACFBBQAAACAkqAAAAACEBBUAAACAkKACAAAAEBJUAAAAAEKCCgAAAEBIUAEAAAAICSoAAAAAIUEFAAAAICSoAAAAAIQEFQAAAICQoAIAAAAQElQAAAAAQoIKAAAAQEhQAQAAAAgJKgAAAAAhQQUAAAAgJKgAAAAAhAQVAAAAgJCgAgAAABASVAAAAABCggoAAABASFABAAAACAkqAAAAACFBBQAAACDUSwcAoI2evKV013DTG6A1dta31LqN9a0FAE1wQwUAAAAgJKgAAAAAhAQVAAAAgJCgAgAAABASVAAAAABCggoAAABASFABAAAACAkqAAAAACFBBQAAACAkqAAAAACEBBUAAACAkKACAAAAEOqlAwDAqxiueb2Rmtdj8Uy25HNzZ6nNc2eeWd9i0KdO2bq16S0AR8ENFQAAAICQoAIAAAAQElQAAAAAQoIKAAAAQEhQAQAAAAgJKgAAAAAhQQUAAAAgJKgAAAAAhAQVAAAAgJCgAgAAABASVAAAAABCggoAAABASFABAAAACPXSAQAYGMNNb4DOG6k4N1Hz53QL/lk4ZevWprcACzx35plNbwFYQm6oAAAAAIQEFQAAAICQoAIAAAAQElQAAAAAQoIKAAAAQEhQAQAAAAgJKgAAAAAhQQUAAAAgJKgAAAAAhAQVAAAAgJCgAgAAABASVAAAAABCggoAAABAqJcOAEArDde41kjFucmKcxMV50YrzrF4Jmv+fK77cxMAOswNFQAAAICQoAIAAAAQElQAAAAAQoIKAAAAQEhQAQAAAAgJKgAAAAAhQQUAAAAgJKgAAAAAhAQVAAAAgJCgAgAAABASVAAAAABCggoAAABASFABAAAACPXK6Hg6w+F4LZvXljN4eKzpHQBHY6S0w3DFuYmKc6MV57pssub12vK5CdSrLV8Lt4HXsnmj/X8GbqgAAAAAhAQVAAAAgJCgAgAAABASVAAAAABCggoAAABASFABAAAACAkqAAAAACFBBQAAACAkqAAAAACEBBUAAACAkKACAAAAEBJUAAAAAEKCCgAAAEColw4AAEtkpOLcZMW54ZrXq/r86lT1uZUOvya01vaKc6cu8j4AusoNFQAAAICQoAIAAAAQElQAAAAAQoIKAAAAQEhQAQAAAAgJKgAAAAAhQQUAAAAgJKgAAAAAhAQVAAAAgJCgAgAAABASVAAAAABCggoAAABASFABAAAACPXKxFhphdHxfKYtz63LqpzbLGcHcPRGKs5NVJwbrjg3WeNzq7LWsai6TzhK2yvM9NaurbbW9HSluVMrTbGo2vI1tD8jtJezm8cNFQAAAICQoAIAAAAQElQAAAAAQoIKAAAAQEhQAQAAAAgJKgAAAAAhQQUAAAAgJKgAAAAAhAQVAAAAgJCgAgAAABASVAAAAABCggoAAABASFABAAAACPXSAQCgI0Yrzk0s8j76Za1jeU3gKG2vONdbu3aRd7L4a22fnq40d2qlKYDmuaECAAAAEBJUAAAAAEKCCgAAAEBIUAEAAAAICSoAAAAAIUEFAAAAICSoAAAAAIQEFQAAAICQoAIAAAAQElQAAAAAQoIKAAAAQEhQAQAAAAj10gEAAKCaUyvObZ+ejmd6a9dWWmt/hbWO5bkBtJUbKgAAAAAhQQUAAAAgJKgAAAAAhAQVAAAAgJCgAgAAABASVAAAAABCggoAAABASFABAAAACAkqAAAAACFBBQAAACAkqAAAAACEBBUAAACAkKACAAAAEOqlAwDAgBuuca2RinOTNc9V3SccpVMrzGyfnq5tLYBB5IYKAAAAQEhQAQAAAAgJKgAAAAAhQQUAAAAgJKgAAAAAhAQVAAAAgJCgAgAAABASVAAAAABCggoAAABASFABAAAACAkqAAAAACFBBQAAACAkqAAAAACEemV0vHRWl59b13X97B4ea3oHAKVM1rzeSOmuqq9ll18TGndq0xugfl3/Grrrz6/LRrt5dm6oAAAAAIQEFQAAAICQoAIAAAAQElQAAAAAQoIKAAAAQEhQAQAAAAgJKgAAAAAhQQUAAAAgJKgAAAAAhAQVAAAAgJCgAgAAABASVAAAAABCggoAAABAqJcOAMDAmKw4N1JxbqLi3HCpV9XnV6e2nEHdn2MAwKJxQwUAAAAgJKgAAAAAhAQVAAAAgJCgAgAAABASVAAAAABCggoAAABASFABAAAACAkqAAAAACFBBQAAACAkqAAAAACEBBUAAACAkKACAAAAEBJUAAAAAEK9MjGWznTf6Hi1Oa/l4nEGQJtNlHYYaXoDfWi05jMfrjg3WXEO6DZfCy/kzxXtPYeJ/j8DN1QAAAAAQoIKAAAAQEhQAQAAAAgJKgAAAAAhQQUAAAAgJKgAAAAAhAQVAAAAgJCgAgAAABASVAAAAABCggoAAABASFABAAAACAkqAAAAACFBBQAAACDUSwcAoJV2VpgZrrhW1bmqRmpej4VGK85NtORzrMo/PwDQcW6oAAAAAIQEFQAAAICQoAIAAAAQElQAAAAAQoIKAAAAQEhQAQAAAAgJKgAAAAAhQQUAAAAgJKgAAAAAhAQVAAAAgJCgAgAAABASVAAAAABCggoAAABAqJcOAMDA2FlxbniR90F3Dbfkc7oFnjvzzKa3AMCAcUMFAAAAICSoAAAAAIQEFQAAAICQoAIAAAAQElQAAAAAQoIKAAAAQEhQAQAAAAgJKgAAAAAhQQUAAAAgJKgAAAAAhAQVAAAAgJCgAgAAABASVAAAAABCvXQAAHgVOyvODVecm6w4x+B9jrXAKVu3Nr0FADgqbqgAAAAAhAQVAAAAgJCgAgAAABASVAAAAABCggoAAABASFABAAAACAkqAAAAACFBBQAAACAkqAAAAACEBBUAAACAkKACAAAAEBJUAAAAAEK9dAAYDOseW1tp7slLphd9L9Sj62e+bmPTO4DBsr3pDcAAeqjpDcCAcUMFAAAAICSoAAAAAIQEFQAAAICQoAIAAAAQElQAAAAAQoIKAAAAQEhQAQAAAAgJKgAAAAAhQQUAAAAgJKgAAAAAhAQVAAAAgJCgAgAAABASVAAAAABCvXQA4EjWPba20tyTl0wv+l4GVdUzAAAAjp4bKgAAAAAhQQUAAAAgJKgAAAAAhAQVAAAAgJCgAgAAABASVAAAAABCggoAAABASFABAAAACAkqAAAAACFBBQAAACAkqAAAAACEBBUAAACAkKACAAAAEOqlA8BgePKS6Upz6x5bW+sczZ85QD/YMlbzgiM1r0fzJvKRNRuXYiNAv3BDBQAAACAkqAAAAACEBBUAAACAkKACAAAAEBJUAAAAAEKCCgAAAEBIUAEAAAAICSoAAAAAIUEFAAAAICSoAAAAAIQEFQAAAICQoAIAAAAQElQAAAAAQr10AAAA+s5IxbnJinMTFedGK86xeKqe+fAi7wNoPTdUAAAAAEKCCgAAAEBIUAEAAAAICSoAAAAAIUEFAAAAICSoAAAAAIQEFQAAAICQoAIAAAAQElQAAAAAQoIKAAAAQEhQAQAAAAgJKgAAAAAhQQUAAAAgNDS1aXwmHQKOzdU3j5V+t+6xtbWu9+Ql07Wu1+Xn1+XnBrTH9prX2/JIxcHJUq+dFedGF3kfXVD32Y3kI2suLbV6aNN4vQvCgHNDBQAAACAkqAAAAACEBBUAAACAkKACAAAAEBJUAAAAAEKCCgAAAEBIUAEAAAAICSoAAAAAIUEFAAAAICSoAAAAAIQEFQAAAICQoAIAAAAQElQAAAAAQr10AGifdY+tbXoLdFjVz68nL5le9L0AxEYqzk1WnBuucb2qz61uVV/LqtryugB9zw0VAAAAgJCgAgAAABASVAAAAABCggoAAABASFABAAAACAkqAAAAACFBBQAAACAkqAAAAACEBBUAAACAkKACAAAAEBJUAAAAAEKCCgAAAEBIUAEAAAAIDU1tKDOlDUbH85mJsaXYCUt9bgNwdlc/XG1u3WNrF3srEJuZmSl7/2Z/2f0X+8rBFw+Wg7tmysyB+v5V8uy9O2pbC6hue83rbXmktMNExbnhUp+RinOTpV5V91mjNZfWu95DG0o7+DNCezm7eXrzfwoAh7bv2QNlxyN7yu4/31sOPH+w6e0AAECjBBUAXtW+LQfK1nteLAdfElIAAGCW91AB4IjEFAAAWEhQAeCInv3jl8QUAAD4BwQVAA5r79/uL/ufPdD0NgAAoO8IKgAc1q4/29v0FgAAoC8JKgAclqACAACHJqgAcEgH9xwsB7b76z4AAHAoggoAh3Rw10zTWwAAgL4lqABwSDMvCyoAAHA4ggoAhzSjpwAAwGH1Dv8hAGCxHH/88WXdunXlggsuKKeddlo56aSTyu7du8tzzz1Xnn766fL444+Xbdu2Nb1NAACOkqACDVj32NqmtwC1O+XEU8qFr3tTueh1F5ULL7iovPGCi8rZ/+jsBb/uxA3HH/H3WX3pykrr73jk5VJ3QLnyyivLW9/61rkfr3/968vy5cuPOPPzn/+8bN68uWzatKlMT0/XtlegRqMV5ybykTUbK641Xm1syy01vyYADRNUAFgS6879rfKOf35VeeMFF86FlHPXnlsGwaWXXlpuvfXW8q53vausXr06mj3//PPL7bffXj71qU+Vz3/+8+XTn/502bdv35LtFQCA6gQVAJbEh951Y7n1utvKoPnIRz5Srr/++mP6PVasWDEXVd75znfO3XJ55plnFm1/AAAsDkEFAGqwY8eO8qMf/Wjux+x7psxGkpUrV5bXvva15fLLLy9XXHHFgr8StH79+vL9739/7uOz77UCAED/EFQABsi+PQfKtr/eUU76jRPKCScf18geXt77cvmL//Wz8j+eeqK8563XzL23Slft2rWrPPDAA+W+++4rP/zhD8uBAwcO+evuuOOOct5555V77rmnvP3tb5/3sTe84Q1lfHy83HjjjUu/4fNLKbNva/PfZze/9MsBALSZoAIwQCHl+f+9s8wcLOU1Zx1fz7r795Wn/ubJuXjyxF/+ZO5//+df/fnc47PedsmVnQwqs7dJ7rrrrnL33XeXF1544ahmfvGLX5R3vOMdc29Ie9NNN8372Ac/+MHyhS98ofz4xz8uS2pFKWVDKeUtpZRHhRUAgCMRVAAGKKTU6a7Nd5ZPb/x3Zc/ePWWQfPGLXywf//jHy4svvlhp/mMf+1h585vfXC688MJXHlu2bFm54YYblj6o/Nrs5SVhBQDgiJYd+cMAtDWkPP2zF8pf/3BLee6X9ceUWVu2PT1wMWXW7F/tqRpTZh08eLB85jOfWfD47HcNqt2vw8q/nr1OVEpZVf8WAAD6lRsqAB3S5I0UFs/3vve9ufdb+ftvUnvOOeeUoaGhMjMzU/+G3FgBAFhAUAHoACGlW3bv3l22bdtWzjzzzFce6/V65Ywzzihbt25tbmPCCgDAKwQVgBYTUrpr1apVhwwtfUFYAQAQVADaSEjptjVr1pTVq1fPe2znzp3lpZdeKn1FWAEABpigAtAiQspguPbaaxc89vjjj5e+JawAAANIUAFoASFlsNx0000LHnvwwQdL3xNWAIABIqgA9DEhZfB8+MMfLuvXr5/32K5du8pXvvKV0hrCCgAwAAQVgD4kpAyms88+u9x1110LHr/zzjvLM888U1pHWAEAOkxQAegjQsrgOu6448o3v/nNcvLJJ897/Kmnniqf/exnS6sJKwBABwkqAH1ASOH+++8vF1988bzH9uzZUz7wgQ/M/W8nCCsAQIcIKgANElKY9bnPfa68733vW/D4bbfdVp544onSOcIKANABggpAA371s+fLS9N7yoF9zVSUX/5o26v/oudKKVuXdh8zB2YWPLZj68tLs9g/KX3pk7d8svze2O8tePz3v/D75d6H7l28fV9TSllZ+jOsXDp78LPfG7qU8lDTmwIAODqCCkATN1J+6T/HU8pto7eVz44tfH+U8fvGy+13314GxlAp5cRSyuWllBVurAAA7bCs6Q0ADIqDB2bKM3/5Ynnulzub3gp94Jbrbyl3/9u7Fzx+z+Z7yif+wyfKQFpeSvmd/39rZTayAAD0MTdUAGqybPlQWbv+lHLaeavL3z6+vezfc6DpLdGQG6+5sdxz+z0LHr/3G/eWW//9rWVgbSmlfLWU8nzTGwEAeHWCCkDNVp64oqxdf3LZtX1vefFXu8veHftr38PQUClDy498BWCmN1NmlvqWwKF+/6Vas/6X+ZBGrx4tf/SZPyrLls2/JHr/t+4vN3/q5lIWvq3M4tg9e03qVX7Nygburs4+3+lSys9m39xHTAEA2kNQAWjA8Gkr536ccf6J5eWX9pVn/2rHXFypy9lvOa2sOvXI71C6d3p/2fLoC0u6j6FlC+vJ6jOW5p1TdzyyRG92G5j9Tj73fe6+snz57N9t+Ttf/vKXy+9+8HfLzMxS1ZRSyn86il/zW6WU60o9Zi9o/Wkp5WERBQBoJ0EFoA9urPzGhaeU039zde1hhfq8973vLV/60pcWxJSvfvWr5UMf+tDSxpR+IqQAAB0hqAD0CWGlu6699tq5Wyi93vx/7X79618vN9xwQzl4sJlvn10rIQUA6BhBBaDPCCvd8p73vKds3rx5QUz51re+Vd7//vd3P6YIKQBARwkqAH1KWGm/d7/73eVrX/taWbFixbzHH3jggXL99deXAwc6/J2ehBRYXMP5yJaximuNVJybrHmu6j4BFomgAtDnhJV2uuqqq8o3vvGNctxxx817/Nvf/na57rrryv79ffJthxabkAIADIi6vzkiAMcYVs7bcEZ5zVknNL2dvveBq0bLSw/veeXH7Ju+/uAHP6hl7SuuuKJMTk6WlSvnf8ei73znO3Pvp9LJmDIbUn5SSvnDUsp/FVMAgO5zQwWgZdxY6W+XXXZZefDBB8vxxx8/7/Hvfve75Zprrin79u0rneJGCgAwoAQVgJZqQ1j55n+cKmedftZhP36oj/23P3n0iL/nNf/m6vL0tl+VfnXvvfeWVatWLXj83HPPLY8+euTn9mo++tGPlp/8ZPYaSB8QUgCAASeoALRcP4eV1/3jdeWcs86JZv7p+euP+PHjVsx/T5J+8w/fgPbX1q1bd8y/9+rVq0vjhBQAgDmCCkBH9HNYacLpJ5++4LGf/vSnjeylE4QUAIB5BBWAjhFW/p8NF14+7+d79uwpd9xxR2P7aS0hBQDgkAQVgI7qh7Dy29ddUJqwfPny8jvr/8W8xzZu3Fimp6eXfO3Z90rpBCEFAOCIBBWAjuuHsFK3N73uzeXEVSe+8vNde3a5nXK0hBQAgKMiqAAMYFhZ1ltWuuyyi/7lvJ/f+8DGsmXLlsb20xqzL9EfCikAAEdDUAEYwLDSdZdd9Hfvn7Jj145y1+Y7G91Pa2xregMAAO3R7f9ECcDAmf22ym/57X/2ys83Tv6X8uzzzza6JwAAukdQAaBTLn79W8qq41fN/f8Xd75Y/vPm8aa3BABABw1NbRqfaXoTMGg++cY/aHoL8Kr2Tu8vW/7ghdIVOx55uektwEDZXvN6Wx4p7TBZ41ojpbvPrSWvy5pLS60e2uQ/IkCd3FABAAAACAkqAAAAACFBBYBDGlo+1PQWAACgbwkqABzSshMEFQAAOBxBBYBDWrZqqJRlogoAAByKoALAIQ31hsrK3+w1vQ0AAOhLggoAh7Vq/XFNbwEAAPqSoALAYZ3whuP8tR8AADgEQQWAw1q+elkZvmRl09sAAIC+I6gAcESn/KtVZdWbRBUAAPj7BBUAjmhoaKic+v7hMnyxqAIAAL/m2zcAcHRR5X2ry4lXnlB2/9nesutP95Z9/2d/09sCAIDGCCoAHLUVpy8vK952QnnN204oB144WA68dLAc3DVTZvbPlH6345GXm94CAAAdIqgAUMnyk5bN/QBotYmKc8OlXiOl/4205AwmO3wGQK18JQwAAAAQElQAAAAAQoIKAAAAQEhQAQAAAAgJKgAAAAAhQQUAAAAgJKgAAAAAhAQVAAAAgJCgAgAAABASVAAAAABCggoAAABASFABAAAACAkqAAAAAKGhqQ1lJh3qvNHxanMTY4u9k8HV8TO4+uF611v32Np6F4Sj8OQl001vAVhC22teb8stNS84XHFuZJH3Mcgmaj67CtZU/JK2qoc21LteK3T8zxWdPoeJ/j8DN1QAAAAAQoIKAAAAQEhQAQAAAAgJKgAAAAAhQQUAAAAgJKgAAAAAhAQVAAAAgJCgAgAAABASVAAAAABCggoAAABASFABAAAACAkqAAAAACFBBQAAACDUSweA9nnykuna1lr32Nq+32PXOQNgIA3XvN5Izeux0GjFuYmWfI4Bfc8NFQAAAICQoAIAAAAQElQAAAAAQoIKAAAAQEhQAQAAAAgJKgAAAAAhQQUAAAAgJKgAAAAAhAQVAAAAgJCgAgAAABASVAAAAABCggoAAABAqJcOAABAv1kzXvOCda8HQN9xQwUAAAAgJKgAAAAAhAQVAAAAgJCgAgAAABASVAAAAABCggoAAABASFABAAAACAkqAAAAACFBBQAAACAkqAAAAACEBBUAAACAkKACAAAAEBJUAAAAAEKCCgAAAEBIUAEAAAAICSoAAAAAIUEFAAAAICSoAAAAAIQEFQAAAICQoAIAAAAQElQAAAAAQoIKAAAAQEhQAQAAAAgJKgAAAAAhQQUAAAAgJKgAAAAAhAQVAAAAgFAvHQCO3dSG0l2fmK42t2m82tzEWLW5LnMGHK1RZ964Dp/BQ01voF91+MxbwxkAi8QNFQAAAICQoAIAAAAQElQAAAAAQoIKAAAAQEhQAQAAAAgJKgAAAAAhQQUAAAAgJKgAAAAAhAQVAAAAgJCgAgAAABASVAAAAABCggoAAABASFABAAAACAkqAAAAACFBBQAAACAkqAAAAACEBBUAAACAkKACAAAAEBJUAAAAAEKCCgAAAEBIUAEAAAAICSoAAAAAIUEFAAAAICSoAAAAAIQEFQAAAICQoAIAAAAQElQAAAAAQoIKAAAAQEhQAQAAAAgJKgAAAAAhQQUAAAAgJKgAAAAAhAQVAAAAgJCgAgAAABASVAAAAABCggoAAABASFABAAAACAkqAAAAACFBBQAAACAkqAAAAACEBBUAAACAkKACAAAAEBJUAAAAAEKCCgAAAEBIUAEAAAAICSoAAAAAIUEFAAAAICSoAAAAAIQEFQAAAICQoAIAAAAQElQAAAAAQoIKAAAAQEhQAQAAAAgJKgAAAAAhQQUAAAAgNDS1aXwmHQIAAAAYZG6oAAAAAIQEFQAAAICQoAIAAAAQElQAAAAAQoIKAAAAQEhQAQAAAAgJKgAAAAAhQQUAAAAgJKgAAAAAhAQVAAAAgJCgAgAAABASVAAAAABCggoAAABASFABAAAACAkqAAAAACFBBQAAACAkqAAAAACEBBUAAACAkKACAAAAEBJUAAAAAEKCCgAAAEBIUAEAAAAICSoAAAAAIUEFAAAAICSoAAAAAIQEFQAAAIDQ0NSGMlPaYHQ8n5kYW4qdsNTnNsvZNc/ZtZezay9n117Orr2cXXs5u/Zydu3l7OZxQwUAAAAgJKgAAAAAhAQVAAAAgJCgAgAAABASVAAAAABCggoAAABASFABAAAACAkqAAAAACFBBQAAACAkqAAAAACEBBUAAACAkKACAAAAEBJUAAAAAEKCCgAAAEBIUAEAAAAICSoAAAAAIUEFAAAAICSoAAAAAIQEFQAAAICQoAIAAAAQElQAAAAAQoIKAAAAQEhQAQAAAAgJKgAAAAAhQQUAAAAgJKgAAAAAhAQVAAAAgJCgAgAAABASVAAAAABCggoAAABASFABAAAACAkqAAAAACFBBQAAACAkqAAAAACEBBUAAACAkKACAAAAEBJUAAAAAEKCCgAAAEBIUAEAAAAICSoAAAAAIUEFAAAAICSoAAAAAIQEFQAAAICQoAIAAAAQElQAAAAAQoIKAAAAQEhQAQAAAAgJKgAAAAAhQQUAAAAgJKgAAAAAhAQVAAAAgJCgAgAAABASVAAAAABCggoAAABASFABAAAACA1NbRqfSYcAAAAABpkbKgAAAAAhQQUAAAAgJKgAAAAAhAQVAAAAgJCgAgAAABASVAAAAABCggoAAABASFABAAAACAkqAAAAACFBBQAAACAkqAAAAACEBBUAAACAkKACAAAAEBJUAAAAAEKCCgAAAEBIUAEAAAAICSoAAAAAIUEFAAAAICSoAAAAAIQEFQAAAICQoAIAAAAQElQAAAAAQoIKAAAAQEhQAQAAAAgJKgAAAAAhQQUAAAAgJKgAAAAAhIamNpSZdKjzRserzU2MLfZOBpczGDzOvHnOYPA48+Y5g8HjzJvnDAaL827vOUz0/xm4oQIAAAAQElQAAAAAQoIKAAAAQEhQAQAAAAgJKgAAAAAhQQUAAAAgJKgAAAAAhAQVAAAAgJCgAgAAABASVAAAAABCggoAAABASFABAAAACAkqAAAAACFBBQAAACAkqAAAAACEBBUAAACAkKACAAAAEBJUAAAAAEKCCgAAAEBIUAEAAAAICSoAAAAAIUEFAAAAICSoAAAAAIQEFQAAAICQoAIAAAAQElQAAAAAQoIKAAAAQEhQAQAAAAgJKgAAAAAhQQUAAAAgJKgAAAAAhAQVAAAAgJCgAgAAABASVAAAAABCggoAAABASFABAAAACAkqAAAAACFBBQAAACAkqAAAAACEBBUAAACAkKACAAAAEBJUAAAAAEKCCgAAAEBIUAEAAAAICSoAAAAAIUEFAAAAICSoAAAAAIQEFQAAAICQoAIAAAAQElQAAAAAQoIKAAAAQEhQAQAAAAgJKgAAAAAhQQUAAACgZP4vuaBXMftYbvwAAAAASUVORK5CYII=;clipPath=inset(0% 0% 0% 0% round 49%);" parent="oyaKjV_WXcEfCoysOoAM-224" vertex="1">
          <mxGeometry x="50" y="50" width="500" height="500" as="geometry" />
        </mxCell>
        <mxCell id="oyaKjV_WXcEfCoysOoAM-320" value="&lt;font style=&quot;font-size: 160px;&quot;&gt;Expansion&lt;/font&gt;" style="swimlane;horizontal=0;whiteSpace=wrap;html=1;startSize=200;fillColor=#f5f5f5;fontColor=#333333;strokeColor=#666666;strokeWidth=8;" parent="1" vertex="1">
          <mxGeometry x="-830" y="2790" width="9860" height="1710" as="geometry" />
        </mxCell>
        <mxCell id="oyaKjV_WXcEfCoysOoAM-412" value="&lt;font&gt;Backpropagation&lt;/font&gt;" style="text;html=1;align=center;verticalAlign=middle;whiteSpace=wrap;rounded=0;fontStyle=1;fontSize=128;fillColor=#f5f5f5;fontColor=#333333;strokeColor=#666666;strokeWidth=8;" parent="oyaKjV_WXcEfCoysOoAM-320" vertex="1">
          <mxGeometry x="2730" y="1400" width="1200" height="200" as="geometry" />
        </mxCell>
        <mxCell id="oyaKjV_WXcEfCoysOoAM-398" value="&lt;div&gt;&lt;br/&gt;&lt;/div&gt;" style="rounded=0;whiteSpace=wrap;html=1;fillColor=#f5f5f5;strokeColor=#666666;strokeWidth=20;fontColor=#333333;" parent="oyaKjV_WXcEfCoysOoAM-320" vertex="1">
          <mxGeometry x="1790" y="180" width="1080" height="1080" as="geometry" />
        </mxCell>
        <mxCell id="oyaKjV_WXcEfCoysOoAM-214" value="&lt;font style=&quot;font-size: 128px;&quot;&gt;Knowledge Graph&lt;/font&gt;" style="swimlane;whiteSpace=wrap;html=1;startSize=200;strokeWidth=20;fillColor=#d5e8d4;strokeColor=#82b366;container=0;fontColor=#82B366;" parent="oyaKjV_WXcEfCoysOoAM-320" vertex="1">
          <mxGeometry x="3830" y="180" width="2000" height="1080" as="geometry" />
        </mxCell>
        <mxCell id="oyaKjV_WXcEfCoysOoAM-233" value="&lt;font style=&quot;font-size: 128px;&quot;&gt;LLM Agent&lt;/font&gt;" style="swimlane;whiteSpace=wrap;html=1;startSize=200;strokeWidth=20;fillColor=#d5e8d4;strokeColor=#82b366;container=0;fontColor=#82B366;" parent="oyaKjV_WXcEfCoysOoAM-320" vertex="1">
          <mxGeometry x="6730" y="180" width="1010" height="1080" as="geometry" />
        </mxCell>
        <mxCell id="oyaKjV_WXcEfCoysOoAM-215" value="&lt;font style=&quot;&quot;&gt;Environment&lt;/font&gt;" style="text;html=1;align=center;verticalAlign=middle;whiteSpace=wrap;rounded=0;fontSize=128;container=0;fontColor=#82B366;fontStyle=1" parent="oyaKjV_WXcEfCoysOoAM-320" vertex="1">
          <mxGeometry x="4830" y="382" width="1000" height="200" as="geometry" />
        </mxCell>
        <mxCell id="oyaKjV_WXcEfCoysOoAM-216" value="&lt;font style=&quot;&quot;&gt;MCST&lt;/font&gt;" style="text;html=1;align=center;verticalAlign=middle;whiteSpace=wrap;rounded=0;fontSize=128;container=0;fontStyle=1;fontColor=#82B366;" parent="oyaKjV_WXcEfCoysOoAM-320" vertex="1">
          <mxGeometry x="3830" y="382" width="1000" height="200" as="geometry" />
        </mxCell>
        <mxCell id="oyaKjV_WXcEfCoysOoAM-164" value="" style="endArrow=classic;html=1;rounded=0;fontFamily=Helvetica;fontSize=18;fontColor=default;strokeWidth=8;fillColor=#f5f5f5;strokeColor=#666666;exitX=0.221;exitY=0.921;exitDx=0;exitDy=0;entryX=0.702;entryY=0.041;entryDx=0;entryDy=0;exitPerimeter=0;entryPerimeter=0;" parent="oyaKjV_WXcEfCoysOoAM-320" edge="1">
          <mxGeometry width="50" height="50" relative="1" as="geometry">
            <mxPoint x="4377.5" y="601.4499999999998" as="sourcePoint" />
            <mxPoint x="4269.5" y="790.4499999999998" as="targetPoint" />
          </mxGeometry>
        </mxCell>
        <mxCell id="oyaKjV_WXcEfCoysOoAM-168" value="" style="ellipse;whiteSpace=wrap;html=1;aspect=fixed;strokeWidth=8;fillColor=#f5f5f5;fontColor=#333333;strokeColor=#666666;container=0;" parent="oyaKjV_WXcEfCoysOoAM-320" vertex="1">
          <mxGeometry x="4040" y="970" width="162.00000000000003" height="162.00000000000003" as="geometry" />
        </mxCell>
        <mxCell id="oyaKjV_WXcEfCoysOoAM-169" value="" style="endArrow=classic;html=1;rounded=0;fontFamily=Helvetica;fontSize=18;fontColor=default;strokeWidth=8;fillColor=#f5f5f5;strokeColor=#666666;exitX=0.221;exitY=0.921;exitDx=0;exitDy=0;entryX=0.702;entryY=0.041;entryDx=0;entryDy=0;exitPerimeter=0;entryPerimeter=0;" parent="oyaKjV_WXcEfCoysOoAM-320" edge="1">
          <mxGeometry width="50" height="50" relative="1" as="geometry">
            <mxPoint x="4269.5" y="791.8000000000002" as="sourcePoint" />
            <mxPoint x="4161.5" y="980.8000000000002" as="targetPoint" />
          </mxGeometry>
        </mxCell>
        <mxCell id="oyaKjV_WXcEfCoysOoAM-170" value="" style="ellipse;whiteSpace=wrap;html=1;aspect=fixed;strokeWidth=8;fillColor=#f5f5f5;strokeColor=#666666;fontColor=#333333;container=0;" parent="oyaKjV_WXcEfCoysOoAM-320" vertex="1">
          <mxGeometry x="4148" y="781" width="162.00000000000003" height="162.00000000000003" as="geometry" />
        </mxCell>
        <mxCell id="oyaKjV_WXcEfCoysOoAM-171" value="" style="endArrow=classic;html=1;rounded=0;fontFamily=Helvetica;fontSize=18;fontColor=default;strokeWidth=8;fillColor=#f5f5f5;strokeColor=#666666;exitX=0.221;exitY=0.921;exitDx=0;exitDy=0;entryX=0.702;entryY=0.041;entryDx=0;entryDy=0;exitPerimeter=0;entryPerimeter=0;" parent="oyaKjV_WXcEfCoysOoAM-320" edge="1">
          <mxGeometry width="50" height="50" relative="1" as="geometry">
            <mxPoint x="4296.5" y="601.4499999999998" as="sourcePoint" />
            <mxPoint x="4404.5" y="790.4499999999998" as="targetPoint" />
          </mxGeometry>
        </mxCell>
        <mxCell id="oyaKjV_WXcEfCoysOoAM-172" value="" style="ellipse;whiteSpace=wrap;html=1;aspect=fixed;strokeWidth=8;fillColor=#f5f5f5;fontColor=#333333;strokeColor=#666666;container=0;" parent="oyaKjV_WXcEfCoysOoAM-320" vertex="1">
          <mxGeometry x="4256" y="592" width="162.00000000000003" height="162.00000000000003" as="geometry" />
        </mxCell>
        <mxCell id="oyaKjV_WXcEfCoysOoAM-173" value="" style="ellipse;whiteSpace=wrap;html=1;aspect=fixed;strokeWidth=8;fillColor=#f5f5f5;fontColor=#333333;strokeColor=#666666;container=0;" parent="oyaKjV_WXcEfCoysOoAM-320" vertex="1">
          <mxGeometry x="4364" y="781" width="162.00000000000003" height="162.00000000000003" as="geometry" />
        </mxCell>
        <mxCell id="oyaKjV_WXcEfCoysOoAM-178" value="" style="ellipse;whiteSpace=wrap;html=1;aspect=fixed;strokeWidth=8;fillColor=#f5f5f5;fontColor=#333333;strokeColor=#666666;container=0;" parent="oyaKjV_WXcEfCoysOoAM-320" vertex="1">
          <mxGeometry x="5020" y="1050" width="162.00000000000003" height="162.00000000000003" as="geometry" />
        </mxCell>
        <mxCell id="oyaKjV_WXcEfCoysOoAM-179" value="" style="endArrow=classic;html=1;rounded=0;fontFamily=Helvetica;fontSize=18;fontColor=default;strokeWidth=8;fillColor=#f5f5f5;strokeColor=#666666;exitX=0.5;exitY=1;exitDx=0;exitDy=0;entryX=0.5;entryY=0;entryDx=0;entryDy=0;startArrow=classic;startFill=1;" parent="oyaKjV_WXcEfCoysOoAM-320" source="oyaKjV_WXcEfCoysOoAM-180" target="oyaKjV_WXcEfCoysOoAM-178" edge="1">
          <mxGeometry width="50" height="50" relative="1" as="geometry">
            <mxPoint x="5249.5" y="871.8000000000002" as="sourcePoint" />
            <mxPoint x="5141.5" y="1060.8000000000002" as="targetPoint" />
          </mxGeometry>
        </mxCell>
        <mxCell id="oyaKjV_WXcEfCoysOoAM-180" value="" style="ellipse;whiteSpace=wrap;html=1;aspect=fixed;strokeWidth=8;fillColor=#f5f5f5;strokeColor=#666666;fontColor=#333333;container=0;" parent="oyaKjV_WXcEfCoysOoAM-320" vertex="1">
          <mxGeometry x="5020" y="822" width="162.00000000000003" height="162.00000000000003" as="geometry" />
        </mxCell>
        <mxCell id="oyaKjV_WXcEfCoysOoAM-182" value="" style="ellipse;whiteSpace=wrap;html=1;aspect=fixed;strokeWidth=8;fillColor=#f5f5f5;fontColor=#333333;strokeColor=#666666;container=0;" parent="oyaKjV_WXcEfCoysOoAM-320" vertex="1">
          <mxGeometry x="5020" y="592" width="162.00000000000003" height="162.00000000000003" as="geometry" />
        </mxCell>
        <mxCell id="oyaKjV_WXcEfCoysOoAM-184" value="" style="endArrow=classic;html=1;rounded=0;fontFamily=Helvetica;fontSize=18;fontColor=default;strokeWidth=8;fillColor=#f5f5f5;strokeColor=#666666;exitX=0.5;exitY=1;exitDx=0;exitDy=0;entryX=0.5;entryY=0;entryDx=0;entryDy=0;startArrow=classic;startFill=1;" parent="oyaKjV_WXcEfCoysOoAM-320" edge="1">
          <mxGeometry width="50" height="50" relative="1" as="geometry">
            <mxPoint x="5100.73" y="756" as="sourcePoint" />
            <mxPoint x="5100.73" y="822" as="targetPoint" />
          </mxGeometry>
        </mxCell>
        <mxCell id="oyaKjV_WXcEfCoysOoAM-185" value="" style="endArrow=classic;html=1;rounded=0;fontFamily=Helvetica;fontSize=18;fontColor=default;strokeWidth=8;fillColor=#f5f5f5;strokeColor=#666666;entryX=1;entryY=0.5;entryDx=0;entryDy=0;startArrow=classic;startFill=1;" parent="oyaKjV_WXcEfCoysOoAM-320" target="oyaKjV_WXcEfCoysOoAM-180" edge="1">
          <mxGeometry width="50" height="50" relative="1" as="geometry">
            <mxPoint x="5250" y="903" as="sourcePoint" />
            <mxPoint x="5250" y="888" as="targetPoint" />
          </mxGeometry>
        </mxCell>
        <mxCell id="oyaKjV_WXcEfCoysOoAM-187" value="" style="endArrow=classic;html=1;rounded=0;fontFamily=Helvetica;fontSize=18;fontColor=default;strokeWidth=8;fillColor=#f5f5f5;strokeColor=#666666;entryX=1;entryY=0.5;entryDx=0;entryDy=0;startArrow=classic;startFill=1;" parent="oyaKjV_WXcEfCoysOoAM-320" edge="1">
          <mxGeometry width="50" height="50" relative="1" as="geometry">
            <mxPoint x="5250" y="662" as="sourcePoint" />
            <mxPoint x="5182" y="662" as="targetPoint" />
          </mxGeometry>
        </mxCell>
        <mxCell id="oyaKjV_WXcEfCoysOoAM-189" value="" style="endArrow=classic;html=1;rounded=0;fontFamily=Helvetica;fontSize=18;fontColor=default;strokeWidth=8;fillColor=#f5f5f5;strokeColor=#666666;entryX=1;entryY=0.5;entryDx=0;entryDy=0;startArrow=classic;startFill=1;" parent="oyaKjV_WXcEfCoysOoAM-320" edge="1">
          <mxGeometry width="50" height="50" relative="1" as="geometry">
            <mxPoint x="5250" y="1130.8000000000002" as="sourcePoint" />
            <mxPoint x="5182" y="1130.8000000000002" as="targetPoint" />
          </mxGeometry>
        </mxCell>
        <mxCell id="oyaKjV_WXcEfCoysOoAM-198" value="" style="ellipse;whiteSpace=wrap;html=1;aspect=fixed;strokeWidth=8;fillColor=#f5f5f5;fontColor=#333333;strokeColor=#666666;container=0;" parent="oyaKjV_WXcEfCoysOoAM-320" vertex="1">
          <mxGeometry x="5250" y="1050" width="162.00000000000003" height="162.00000000000003" as="geometry" />
        </mxCell>
        <mxCell id="oyaKjV_WXcEfCoysOoAM-199" value="" style="endArrow=classic;html=1;rounded=0;fontFamily=Helvetica;fontSize=18;fontColor=default;strokeWidth=8;fillColor=#f5f5f5;strokeColor=#666666;exitX=0.5;exitY=1;exitDx=0;exitDy=0;entryX=0.5;entryY=0;entryDx=0;entryDy=0;startArrow=classic;startFill=1;" parent="oyaKjV_WXcEfCoysOoAM-320" source="oyaKjV_WXcEfCoysOoAM-200" target="oyaKjV_WXcEfCoysOoAM-198" edge="1">
          <mxGeometry width="50" height="50" relative="1" as="geometry">
            <mxPoint x="5479.5" y="871.8000000000002" as="sourcePoint" />
            <mxPoint x="5371.5" y="1060.8000000000002" as="targetPoint" />
          </mxGeometry>
        </mxCell>
        <mxCell id="oyaKjV_WXcEfCoysOoAM-200" value="" style="ellipse;whiteSpace=wrap;html=1;aspect=fixed;strokeWidth=8;fillColor=#f5f5f5;strokeColor=#666666;fontColor=#333333;container=0;" parent="oyaKjV_WXcEfCoysOoAM-320" vertex="1">
          <mxGeometry x="5250" y="822" width="162.00000000000003" height="162.00000000000003" as="geometry" />
        </mxCell>
        <mxCell id="oyaKjV_WXcEfCoysOoAM-201" value="" style="ellipse;whiteSpace=wrap;html=1;aspect=fixed;strokeWidth=8;fillColor=#f5f5f5;fontColor=#333333;strokeColor=#666666;container=0;" parent="oyaKjV_WXcEfCoysOoAM-320" vertex="1">
          <mxGeometry x="5250" y="592" width="162.00000000000003" height="162.00000000000003" as="geometry" />
        </mxCell>
        <mxCell id="oyaKjV_WXcEfCoysOoAM-202" value="" style="endArrow=classic;html=1;rounded=0;fontFamily=Helvetica;fontSize=18;fontColor=default;strokeWidth=8;fillColor=#f5f5f5;strokeColor=#666666;exitX=0.5;exitY=1;exitDx=0;exitDy=0;entryX=0.5;entryY=0;entryDx=0;entryDy=0;startArrow=classic;startFill=1;" parent="oyaKjV_WXcEfCoysOoAM-320" edge="1">
          <mxGeometry width="50" height="50" relative="1" as="geometry">
            <mxPoint x="5330.73" y="756" as="sourcePoint" />
            <mxPoint x="5330.73" y="822" as="targetPoint" />
          </mxGeometry>
        </mxCell>
        <mxCell id="oyaKjV_WXcEfCoysOoAM-203" value="" style="endArrow=classic;html=1;rounded=0;fontFamily=Helvetica;fontSize=18;fontColor=default;strokeWidth=8;fillColor=#f5f5f5;strokeColor=#666666;entryX=1;entryY=0.5;entryDx=0;entryDy=0;startArrow=classic;startFill=1;" parent="oyaKjV_WXcEfCoysOoAM-320" edge="1">
          <mxGeometry width="50" height="50" relative="1" as="geometry">
            <mxPoint x="5480" y="903" as="sourcePoint" />
            <mxPoint x="5412" y="903" as="targetPoint" />
          </mxGeometry>
        </mxCell>
        <mxCell id="oyaKjV_WXcEfCoysOoAM-204" value="" style="endArrow=classic;html=1;rounded=0;fontFamily=Helvetica;fontSize=18;fontColor=default;strokeWidth=8;fillColor=#f5f5f5;strokeColor=#666666;entryX=1;entryY=0.5;entryDx=0;entryDy=0;startArrow=classic;startFill=1;" parent="oyaKjV_WXcEfCoysOoAM-320" edge="1">
          <mxGeometry width="50" height="50" relative="1" as="geometry">
            <mxPoint x="5480" y="662" as="sourcePoint" />
            <mxPoint x="5412" y="662" as="targetPoint" />
          </mxGeometry>
        </mxCell>
        <mxCell id="oyaKjV_WXcEfCoysOoAM-205" value="" style="endArrow=classic;html=1;rounded=0;fontFamily=Helvetica;fontSize=18;fontColor=default;strokeWidth=8;fillColor=#f5f5f5;strokeColor=#666666;entryX=1;entryY=0.5;entryDx=0;entryDy=0;startArrow=classic;startFill=1;" parent="oyaKjV_WXcEfCoysOoAM-320" edge="1">
          <mxGeometry width="50" height="50" relative="1" as="geometry">
            <mxPoint x="5480" y="1130.8000000000002" as="sourcePoint" />
            <mxPoint x="5412" y="1130.8000000000002" as="targetPoint" />
          </mxGeometry>
        </mxCell>
        <mxCell id="oyaKjV_WXcEfCoysOoAM-206" value="" style="ellipse;whiteSpace=wrap;html=1;aspect=fixed;strokeWidth=8;fillColor=#f5f5f5;fontColor=#333333;strokeColor=#666666;container=0;" parent="oyaKjV_WXcEfCoysOoAM-320" vertex="1">
          <mxGeometry x="5480" y="1050" width="162.00000000000003" height="162.00000000000003" as="geometry" />
        </mxCell>
        <mxCell id="oyaKjV_WXcEfCoysOoAM-207" value="" style="endArrow=classic;html=1;rounded=0;fontFamily=Helvetica;fontSize=18;fontColor=default;strokeWidth=8;fillColor=#f5f5f5;strokeColor=#666666;exitX=0.5;exitY=1;exitDx=0;exitDy=0;entryX=0.5;entryY=0;entryDx=0;entryDy=0;startArrow=classic;startFill=1;" parent="oyaKjV_WXcEfCoysOoAM-320" source="oyaKjV_WXcEfCoysOoAM-208" target="oyaKjV_WXcEfCoysOoAM-206" edge="1">
          <mxGeometry width="50" height="50" relative="1" as="geometry">
            <mxPoint x="5709.5" y="871.8000000000002" as="sourcePoint" />
            <mxPoint x="5601.5" y="1060.8000000000002" as="targetPoint" />
          </mxGeometry>
        </mxCell>
        <mxCell id="oyaKjV_WXcEfCoysOoAM-208" value="" style="ellipse;whiteSpace=wrap;html=1;aspect=fixed;strokeWidth=8;fillColor=#f5f5f5;strokeColor=#666666;fontColor=#333333;container=0;" parent="oyaKjV_WXcEfCoysOoAM-320" vertex="1">
          <mxGeometry x="5480" y="822" width="162.00000000000003" height="162.00000000000003" as="geometry" />
        </mxCell>
        <mxCell id="oyaKjV_WXcEfCoysOoAM-209" value="" style="ellipse;whiteSpace=wrap;html=1;aspect=fixed;strokeWidth=8;fillColor=#f5f5f5;fontColor=#333333;strokeColor=#666666;container=0;" parent="oyaKjV_WXcEfCoysOoAM-320" vertex="1">
          <mxGeometry x="5480" y="592" width="162.00000000000003" height="162.00000000000003" as="geometry" />
        </mxCell>
        <mxCell id="oyaKjV_WXcEfCoysOoAM-210" value="" style="endArrow=classic;html=1;rounded=0;fontFamily=Helvetica;fontSize=18;fontColor=default;strokeWidth=8;fillColor=#f5f5f5;strokeColor=#666666;exitX=0.5;exitY=1;exitDx=0;exitDy=0;entryX=0.5;entryY=0;entryDx=0;entryDy=0;startArrow=classic;startFill=1;" parent="oyaKjV_WXcEfCoysOoAM-320" edge="1">
          <mxGeometry width="50" height="50" relative="1" as="geometry">
            <mxPoint x="5560.73" y="756" as="sourcePoint" />
            <mxPoint x="5560.73" y="822" as="targetPoint" />
          </mxGeometry>
        </mxCell>
        <mxCell id="oyaKjV_WXcEfCoysOoAM-211" value="" style="ellipse;whiteSpace=wrap;html=1;aspect=fixed;strokeWidth=8;fillColor=#d5e8d4;strokeColor=#82b366;container=0;" parent="oyaKjV_WXcEfCoysOoAM-320" vertex="1">
          <mxGeometry x="5271" y="1071" width="120" height="120" as="geometry" />
        </mxCell>
        <mxCell id="oyaKjV_WXcEfCoysOoAM-212" value="" style="ellipse;whiteSpace=wrap;html=1;aspect=fixed;strokeWidth=8;fillColor=#ffe6cc;strokeColor=#d79b00;container=0;" parent="oyaKjV_WXcEfCoysOoAM-320" vertex="1">
          <mxGeometry x="5501" y="1071" width="120" height="120" as="geometry" />
        </mxCell>
        <mxCell id="oyaKjV_WXcEfCoysOoAM-213" value="" style="ellipse;whiteSpace=wrap;html=1;aspect=fixed;strokeWidth=8;fillColor=#ffe6cc;strokeColor=#d79b00;container=0;" parent="oyaKjV_WXcEfCoysOoAM-320" vertex="1">
          <mxGeometry x="5271" y="843" width="120" height="120" as="geometry" />
        </mxCell>
        <mxCell id="oyaKjV_WXcEfCoysOoAM-228" value="" style="sketch=0;outlineConnect=0;fillColor=#82B366;strokeColor=#82b366;dashed=0;verticalLabelPosition=bottom;verticalAlign=top;align=center;html=1;fontSize=12;fontStyle=0;aspect=fixed;pointerEvents=1;shape=mxgraph.aws4.sagemaker_model;container=0;" parent="oyaKjV_WXcEfCoysOoAM-320" vertex="1">
          <mxGeometry x="6935" y="520" width="600" height="600" as="geometry" />
        </mxCell>
        <mxCell id="oyaKjV_WXcEfCoysOoAM-289" value="&lt;font style=&quot;font-size: 128px;&quot;&gt;Selection&lt;/font&gt;" style="text;html=1;align=center;verticalAlign=middle;whiteSpace=wrap;rounded=0;fillColor=#f5f5f5;fontColor=#333333;strokeColor=#666666;strokeWidth=5;fontStyle=1;container=0;" parent="oyaKjV_WXcEfCoysOoAM-320" vertex="1">
          <mxGeometry x="350" y="622" width="1200" height="200" as="geometry" />
        </mxCell>
        <mxCell id="oyaKjV_WXcEfCoysOoAM-291" value="&lt;font style=&quot;font-size: 128px;&quot;&gt;Simulation&lt;/font&gt;" style="text;html=1;align=center;verticalAlign=middle;whiteSpace=wrap;rounded=0;fillColor=#f5f5f5;fontColor=#333333;strokeColor=#666666;strokeWidth=5;fontStyle=1;container=0;" parent="oyaKjV_WXcEfCoysOoAM-320" vertex="1">
          <mxGeometry x="350" y="1400" width="1200" height="200" as="geometry" />
        </mxCell>
        <mxCell id="oyaKjV_WXcEfCoysOoAM-287" value="&lt;div&gt;&lt;br/&gt;&lt;/div&gt;" style="rounded=0;whiteSpace=wrap;html=1;fillColor=#d5e8d4;strokeColor=#82b366;strokeWidth=20;" parent="oyaKjV_WXcEfCoysOoAM-320" vertex="1">
          <mxGeometry x="8610" y="180" width="1080" height="1080" as="geometry" />
        </mxCell>
        <mxCell id="oyaKjV_WXcEfCoysOoAM-284" value="" style="shape=image;verticalLabelPosition=bottom;labelBackgroundColor=default;verticalAlign=top;aspect=fixed;imageAspect=0;image=data:image/png,iVBORw0KGgoAAAANSUhEUgAABFQAAARUCAYAAABY/UdQAAAAOnRFWHRTb2Z0d2FyZQBNYXRwbG90bGliIHZlcnNpb24zLjEwLjEsIGh0dHBzOi8vbWF0cGxvdGxpYi5vcmcvc2/+5QAAAAlwSFlzAAAuIwAALiMBeKU/dgAALCxJREFUeJzt3X+s3XWd5/HPbU8p9Bb5TZeOgYUMix3HraDg7iyFjUKUqAleWETlqowCJoS4uWYn0ewGd0xkXYfLLhPZtMMM6NVq/HG5uMb4j9EAmxVQdmZWBybOuONs9koLLb/6i/66m3t3ZebObUtf3977/Z7v9zweSaM9t+9+Pud8LuH2yafnDk1tKDOF+UbHq81NjC32TgaXMxg8zrx5zmDwOPPmOYPB48yb5wwGi/Nu7zlM9P8ZLGt6AwAAAABtI6gAAAAAhAQVAAAAgJCgAgAAABASVAAAAABCggoAAABASFABAAAACAkqAAAAACFBBQAAACAkqAAAAACEBBUAAACAkKACAAAAEBJUAAAAAEKCCgAAAEBIUAEAAAAICSoAAAAAIUEFAAAAICSoAAAAAIQEFQAAAICQoAIAAAAQElQAAAAAQoIKAAAAQEhQAQAAAAgJKgAAAAAhQQUAAAAgJKgAAAAAhAQVAAAAgJCgAgAAABASVAAAAABCggoAAABASFABAAAACAkqAAAAACFBBQAAACAkqAAAAACEBBUAAACAkKACAAAAEBJUAAAAAEKCCgAAAEBIUAEAAAAICSoAAAAAIUEFAAAAICSoAAAAAIQEFQAAAICQoAIAAAAQElQAAAAAQoIKAAAAQEhQAQAAAAgJKgAAAAAhQQUAAAAgJKgAAAAAhAQVAAAAgJCgAgAAABASVAAAAABCQ1ObxmfSIQAAAIBB5oYKAAAAQEhQAQAAAAgJKgAAAAAhQQUAAAAgJKgAAAAAhAQVAAAAgJCgAgAAABASVAAAAABCggoAAABASFABAAAACAkqAAAAACFBBQAAACAkqAAAAACEBBUAAACAkKACAAAAEBJUAAAAAEKCCgAAAEBIUAEAAAAICSoAAAAAIUEFAAAAICSoAAAAAIQEFQAAAICQoAIAAAAQElQAAAAAQoIKAAAAQEhQAQAAAAgJKgAAAAChoakNZaa0weh4PjMxthQ7YanPbZaza56zay9n117Orr2cXXs5u/Zydu3l7NrL2c3jhgoAAABASFABAAAACAkqAAAAACFBBQAAACAkqAAAAACEBBUAAACAkKACAAAAEBJUAAAAAEKCCgAAAEBIUAEAAAAICSoAAAAAIUEFAAAAICSoAAAAAIQEFQAAAICQoAIAAAAQElQAAAAAQoIKAAAAQEhQAQAAAAgJKgAAAAAhQQUAAAAgJKgAAAAAhAQVAAAAgJCgAgAAABASVAAAAABCggoAAABASFABAAAACAkqAAAAACFBBQAAACAkqAAAAACEBBUAAACAkKACAAAAEBJUAAAAAEKCCgAAAEBIUAEAAAAICSoAAAAAIUEFAAAAICSoAAAAAIQEFQAAAICQoAIAAAAQElQAAAAAQoIKAAAAQEhQAQAAAAgJKgAAAAAhQQUAAAAgJKgAAAAAhAQVAAAAgJCgAgAAABASVAAAAABCggoAAABASFABAAAACAkqAAAAACFBBQAAACAkqAAAAACEBBUAAACAkKACAAAAEBqa2jQ+kw4BAAAADDI3VAAAAABCggoAAABASFABAAAACAkqAAAAACFBBQAAACAkqAAAAACEBBUAAACAkKACAAAAEBJUAAAAAEKCCgAAAEBIUAEAAAAICSoAAAAAIUEFAAAAICSoAAAAAIQEFQAAAICQoAIAAAAQElQAAAAAQoIKAAAAQEhQAQAAAAgJKgAAAAAhQQUAAAAgJKgAAAAAhAQVAAAAgJCgAgAAABASVAAAAABCggoAAABAaGhqQ5lJhzpvdLza3MTYYu9kcDmDwePMm+cMBo8zb54zGDzOvHnOYLA47/aew0T/n4EbKgAAAAAhQQUAAAAgJKgAAAAAhAQVAAAAgJCgAgAAABASVAAAAABCggoAAABASFABAAAACAkqAAAAACFBBQAAACAkqAAAAACEBBUAAACAkKACAAAAEBJUAAAAAEKCCgAAAEBIUAEAAAAICSoAAAAAIUEFAAAAICSoAAAAAIQEFQAAAICQoAIAAAAQElQAAAAAQoIKAAAAQEhQAQAAAAgJKgAAAAAhQQUAAAAgJKgAAAAAhAQVAAAAgJCgAgAAABASVAAAAABCggoAAABASFABAAAACAkqAAAAACFBBQAAACAkqAAAAACEBBUAAACAkKACAAAAEBJUAAAAAEKCCgAAAEBIUAEAAAAICSoAAAAAIUEFAAAAICSoAAAAAIQEFQAAAICQoAIAAAAQElQAAAAAQoIKAAAAQEhQAQAAAAgJKgAAAAAhQQUAAAAgJKgAAAAAhAQVAAAAgJCgAgAAABASVAAAAABCggoAAABAqJcOAMfu6oeb3kEfenis6R3gDAaPM2+eMxg8zrx5HT6DqQ1N7wAGixsqAAAAACFBBQAAACAkqAAAAACEBBUAAACAkKACAAAAEBJUAAAAAEKCCgAAAEBIUAEAAAAICSoAAAAAIUEFAAAAICSoAAAAAIQEFQAAAICQoAIAAAAQElQAAAAAQoIKAAAAQEhQAQAAAAgJKgAAAAAhQQUAAAAgJKgAAAAAhAQVAAAAgJCgAgAAABASVAAAAABCggoAAABASFABAAAACAkqAAAAACFBBQAAACAkqAAAAACEBBUAAACAkKACAAAAEBJUAAAAAEKCCgAAAEBIUAEAAAAICSoAAAAAIUEFAAAAICSoAAAAAIQEFQAAAICQoAIAAAAQElQAAAAAQoIKAAAAQEhQAQAAAAgJKgAAAAAhQQUAAAAgJKgAAAAAhAQVAAAAgJCgAgAAABASVAAAAABCggoAAABASFABAAAACAkqAAAAACFBBQAAACAkqAAAAACEBBUAAACAkKACAAAAEBJUAAAAAEJDU5vGZ9Ih4NhcffNY01sAAKBjpjaNN70FGChuqAAAAACEBBUAAACAkKACAAAAEBJUAAAAAEKCCgAAAEBIUAEAAAAICSoAAAAAIUEFAAAAICSoAAAAAIQEFQAAAICQoAIAAAAQElQAAAAAQoIKAAAAQEhQAQAAAAgJKgAAAAAhQQUAAAAgJKgAAAAAhAQVAAAAgJCgAgAAABASVAAAAABCggoAAABASFABAAAACAkqAAAAACFBBQAAACAkqAAAAACEBBUAAACAkKACAAAAEOqVibHSCqPj+UxbnluXVTm3Wc4OAAC6+TW0PyO0l7Obxw0VAAAAgJCgAgAAABASVAAAAABCggoAAABASFABAAAACAkqAAAAACFBBQAAACAkqAAAAACEBBUAAACAkKACAAAAEBJUAAAAAEKCCgAAAEBIUAEAAAAICSoAAAAAIUEFAAAAICSoAAAAAIQEFQAAAICQoAIAAAAQElQAAAAAQoIKAAAAQEhQAQAAAAgJKgAAAAAhQQUAAAAgJKgAAAAAhAQVAAAAgJCgAgAAABASVAAAAABCggoAAABASFABAAAACAkqAAAAACFBBQAAACAkqAAAAACEBBUAAACAkKACAAAAEBJUAAAAAEKCCgAAAEBIUAEAAAAICSoAAAAAIUEFAAAAICSoAAAAAIQEFQAAAICQoAIAAAAQElQAAAAAQoIKAAAAQEhQAQAAAAgJKgAAAAAhQQUAAAAgJKgAAAAAhAQVAAAAgJCgAgAAABASVAAAAABCggoAAABASFABAAAACAkqAAAAAKGhqU3jM+kQcGyuvnms6S0AANAxU5vGm94CDBQ3VAAAAABCggoAAABASFABAAAACAkqAAAAACFBBQAAACAkqAAAAACEBBUAAACAkKACAAAAEBJUAAAAAEKCCgAAAEBIUAEAAAAICSoAAAAAIUEFAAAAICSoAAAAAIQEFQAAAICQoAIAAAAQElQAAAAAQoIKAAAAQEhQAQAAAAgJKgAAAAAhQQUAAAAgJKgAAAAAhAQVAAAAgJCgAgAAABASVAAAAABCggoAAABASFABAAAACPXKxFg6032j49XmvJaLxxkAAEDG18IL+XNFe89hov/PwA0VAAAAgJCgAgAAABASVAAAAABCggoAAABASFABAAAACAkqAAAAACFBBQAAACAkqAAAAACEBBUAAACAkKACAAAAEBJUAAAAAEKCCgAAAEBIUAEAAAAICSoAAAAAIUEFAAAAICSoAAAAAIQEFQAAAICQoAIAAAAQElQAAAAAQoIKAAAAQEhQAQAAAAgJKgAAAAAhQQUAAAAgJKgAAAAAhAQVAAAAgJCgAgAAABASVAAAAABCggoAAABASFABAAAACAkqAAAAACFBBQAAACAkqAAAAACEBBUAAACAkKACAAAAEBJUAAAAAEKCCgAAAEBIUAEAAAAICSoAAAAAIUEFAAAAICSoAAAAAIQEFQAAAICQoAIAAAAQElQAAAAAQoIKAAAAQEhQAQAAAAgJKgAAAAAhQQUAAAAgJKgAAAAAhAQVAAAAgJCgAgAAABASVAAAAABCggoAAABASFABAAAACAkqAAAAACFBBQAAACDUSwcAoI2evKV013DTG6A1dta31LqN9a0FAE1wQwUAAAAgJKgAAAAAhAQVAAAAgJCgAgAAABASVAAAAABCggoAAABASFABAAAACAkqAAAAACFBBQAAACAkqAAAAACEBBUAAACAkKACAAAAEOqlAwDAqxiueb2Rmtdj8Uy25HNzZ6nNc2eeWd9i0KdO2bq16S0AR8ENFQAAAICQoAIAAAAQElQAAAAAQoIKAAAAQEhQAQAAAAgJKgAAAAAhQQUAAAAgJKgAAAAAhAQVAAAAgJCgAgAAABASVAAAAABCggoAAABASFABAAAACPXSAQAYGMNNb4DOG6k4N1Hz53QL/lk4ZevWprcACzx35plNbwFYQm6oAAAAAIQEFQAAAICQoAIAAAAQElQAAAAAQoIKAAAAQEhQAQAAAAgJKgAAAAAhQQUAAAAgJKgAAAAAhAQVAAAAgJCgAgAAABASVAAAAABCggoAAABAqJcOAEArDde41kjFucmKcxMV50YrzrF4Jmv+fK77cxMAOswNFQAAAICQoAIAAAAQElQAAAAAQoIKAAAAQEhQAQAAAAgJKgAAAAAhQQUAAAAgJKgAAAAAhAQVAAAAgJCgAgAAABASVAAAAABCggoAAABASFABAAAACPXK6Hg6w+F4LZvXljN4eKzpHQBHY6S0w3DFuYmKc6MV57pssub12vK5CdSrLV8Lt4HXsnmj/X8GbqgAAAAAhAQVAAAAgJCgAgAAABASVAAAAABCggoAAABASFABAAAACAkqAAAAACFBBQAAACAkqAAAAACEBBUAAACAkKACAAAAEBJUAAAAAEKCCgAAAEColw4AAEtkpOLcZMW54ZrXq/r86lT1uZUOvya01vaKc6cu8j4AusoNFQAAAICQoAIAAAAQElQAAAAAQoIKAAAAQEhQAQAAAAgJKgAAAAAhQQUAAAAgJKgAAAAAhAQVAAAAgJCgAgAAABASVAAAAABCggoAAABASFABAAAACPXKxFhphdHxfKYtz63LqpzbLGcHcPRGKs5NVJwbrjg3WeNzq7LWsai6TzhK2yvM9NaurbbW9HSluVMrTbGo2vI1tD8jtJezm8cNFQAAAICQoAIAAAAQElQAAAAAQoIKAAAAQEhQAQAAAAgJKgAAAAAhQQUAAAAgJKgAAAAAhAQVAAAAgJCgAgAAABASVAAAAABCggoAAABASFABAAAACPXSAQCgI0Yrzk0s8j76Za1jeU3gKG2vONdbu3aRd7L4a22fnq40d2qlKYDmuaECAAAAEBJUAAAAAEKCCgAAAEBIUAEAAAAICSoAAAAAIUEFAAAAICSoAAAAAIQEFQAAAICQoAIAAAAQElQAAAAAQoIKAAAAQEhQAQAAAAj10gEAAKCaUyvObZ+ejmd6a9dWWmt/hbWO5bkBtJUbKgAAAAAhQQUAAAAgJKgAAAAAhAQVAAAAgJCgAgAAABASVAAAAABCggoAAABASFABAAAACAkqAAAAACFBBQAAACAkqAAAAACEBBUAAACAkKACAAAAEOqlAwDAgBuuca2RinOTNc9V3SccpVMrzGyfnq5tLYBB5IYKAAAAQEhQAQAAAAgJKgAAAAAhQQUAAAAgJKgAAAAAhAQVAAAAgJCgAgAAABASVAAAAABCggoAAABASFABAAAACAkqAAAAACFBBQAAACAkqAAAAACEemV0vHRWl59b13X97B4ea3oHAKVM1rzeSOmuqq9ll18TGndq0xugfl3/Grrrz6/LRrt5dm6oAAAAAIQEFQAAAICQoAIAAAAQElQAAAAAQoIKAAAAQEhQAQAAAAgJKgAAAAAhQQUAAAAgJKgAAAAAhAQVAAAAgJCgAgAAABASVAAAAABCggoAAABAqJcOAMDAmKw4N1JxbqLi3HCpV9XnV6e2nEHdn2MAwKJxQwUAAAAgJKgAAAAAhAQVAAAAgJCgAgAAABASVAAAAABCggoAAABASFABAAAACAkqAAAAACFBBQAAACAkqAAAAACEBBUAAACAkKACAAAAEBJUAAAAAEK9MjGWznTf6Hi1Oa/l4nEGQJtNlHYYaXoDfWi05jMfrjg3WXEO6DZfCy/kzxXtPYeJ/j8DN1QAAAAAQoIKAAAAQEhQAQAAAAgJKgAAAAAhQQUAAAAgJKgAAAAAhAQVAAAAgJCgAgAAABASVAAAAABCggoAAABASFABAAAACAkqAAAAACFBBQAAACDUSwcAoJV2VpgZrrhW1bmqRmpej4VGK85NtORzrMo/PwDQcW6oAAAAAIQEFQAAAICQoAIAAAAQElQAAAAAQoIKAAAAQEhQAQAAAAgJKgAAAAAhQQUAAAAgJKgAAAAAhAQVAAAAgJCgAgAAABASVAAAAABCggoAAABAqJcOAMDA2FlxbniR90F3Dbfkc7oFnjvzzKa3AMCAcUMFAAAAICSoAAAAAIQEFQAAAICQoAIAAAAQElQAAAAAQoIKAAAAQEhQAQAAAAgJKgAAAAAhQQUAAAAgJKgAAAAAhAQVAAAAgJCgAgAAABASVAAAAABCvXQAAHgVOyvODVecm6w4x+B9jrXAKVu3Nr0FADgqbqgAAAAAhAQVAAAAgJCgAgAAABASVAAAAABCggoAAABASFABAAAACAkqAAAAACFBBQAAACAkqAAAAACEBBUAAACAkKACAAAAEBJUAAAAAEK9dAAYDOseW1tp7slLphd9L9Sj62e+bmPTO4DBsr3pDcAAeqjpDcCAcUMFAAAAICSoAAAAAIQEFQAAAICQoAIAAAAQElQAAAAAQoIKAAAAQEhQAQAAAAgJKgAAAAAhQQUAAAAgJKgAAAAAhAQVAAAAgJCgAgAAABASVAAAAABCvXQA4EjWPba20tyTl0wv+l4GVdUzAAAAjp4bKgAAAAAhQQUAAAAgJKgAAAAAhAQVAAAAgJCgAgAAABASVAAAAABCggoAAABASFABAAAACAkqAAAAACFBBQAAACAkqAAAAACEBBUAAACAkKACAAAAEOqlA8BgePKS6Upz6x5bW+sczZ85QD/YMlbzgiM1r0fzJvKRNRuXYiNAv3BDBQAAACAkqAAAAACEBBUAAACAkKACAAAAEBJUAAAAAEKCCgAAAEBIUAEAAAAICSoAAAAAIUEFAAAAICSoAAAAAIQEFQAAAICQoAIAAAAQElQAAAAAQr10AAAA+s5IxbnJinMTFedGK86xeKqe+fAi7wNoPTdUAAAAAEKCCgAAAEBIUAEAAAAICSoAAAAAIUEFAAAAICSoAAAAAIQEFQAAAICQoAIAAAAQElQAAAAAQoIKAAAAQEhQAQAAAAgJKgAAAAAhQQUAAAAgNDS1aXwmHQKOzdU3j5V+t+6xtbWu9+Ql07Wu1+Xn1+XnBrTH9prX2/JIxcHJUq+dFedGF3kfXVD32Y3kI2suLbV6aNN4vQvCgHNDBQAAACAkqAAAAACEBBUAAACAkKACAAAAEBJUAAAAAEKCCgAAAEBIUAEAAAAICSoAAAAAIUEFAAAAICSoAAAAAIQEFQAAAICQoAIAAAAQElQAAAAAQr10AGifdY+tbXoLdFjVz68nL5le9L0AxEYqzk1WnBuucb2qz61uVV/LqtryugB9zw0VAAAAgJCgAgAAABASVAAAAABCggoAAABASFABAAAACAkqAAAAACFBBQAAACAkqAAAAACEBBUAAACAkKACAAAAEBJUAAAAAEKCCgAAAEBIUAEAAAAIDU1tKDOlDUbH85mJsaXYCUt9bgNwdlc/XG1u3WNrF3srEJuZmSl7/2Z/2f0X+8rBFw+Wg7tmysyB+v5V8uy9O2pbC6hue83rbXmktMNExbnhUp+RinOTpV5V91mjNZfWu95DG0o7+DNCezm7eXrzfwoAh7bv2QNlxyN7yu4/31sOPH+w6e0AAECjBBUAXtW+LQfK1nteLAdfElIAAGCW91AB4IjEFAAAWEhQAeCInv3jl8QUAAD4BwQVAA5r79/uL/ufPdD0NgAAoO8IKgAc1q4/29v0FgAAoC8JKgAclqACAACHJqgAcEgH9xwsB7b76z4AAHAoggoAh3Rw10zTWwAAgL4lqABwSDMvCyoAAHA4ggoAhzSjpwAAwGH1Dv8hAGCxHH/88WXdunXlggsuKKeddlo56aSTyu7du8tzzz1Xnn766fL444+Xbdu2Nb1NAACOkqACDVj32NqmtwC1O+XEU8qFr3tTueh1F5ULL7iovPGCi8rZ/+jsBb/uxA3HH/H3WX3pykrr73jk5VJ3QLnyyivLW9/61rkfr3/968vy5cuPOPPzn/+8bN68uWzatKlMT0/XtlegRqMV5ybykTUbK641Xm1syy01vyYADRNUAFgS6879rfKOf35VeeMFF86FlHPXnlsGwaWXXlpuvfXW8q53vausXr06mj3//PPL7bffXj71qU+Vz3/+8+XTn/502bdv35LtFQCA6gQVAJbEh951Y7n1utvKoPnIRz5Srr/++mP6PVasWDEXVd75znfO3XJ55plnFm1/AAAsDkEFAGqwY8eO8qMf/Wjux+x7psxGkpUrV5bXvva15fLLLy9XXHHFgr8StH79+vL9739/7uOz77UCAED/EFQABsi+PQfKtr/eUU76jRPKCScf18geXt77cvmL//Wz8j+eeqK8563XzL23Slft2rWrPPDAA+W+++4rP/zhD8uBAwcO+evuuOOOct5555V77rmnvP3tb5/3sTe84Q1lfHy83HjjjUu/4fNLKbNva/PfZze/9MsBALSZoAIwQCHl+f+9s8wcLOU1Zx1fz7r795Wn/ubJuXjyxF/+ZO5//+df/fnc47PedsmVnQwqs7dJ7rrrrnL33XeXF1544ahmfvGLX5R3vOMdc29Ie9NNN8372Ac/+MHyhS98ofz4xz8uS2pFKWVDKeUtpZRHhRUAgCMRVAAGKKTU6a7Nd5ZPb/x3Zc/ePWWQfPGLXywf//jHy4svvlhp/mMf+1h585vfXC688MJXHlu2bFm54YYblj6o/Nrs5SVhBQDgiJYd+cMAtDWkPP2zF8pf/3BLee6X9ceUWVu2PT1wMWXW7F/tqRpTZh08eLB85jOfWfD47HcNqt2vw8q/nr1OVEpZVf8WAAD6lRsqAB3S5I0UFs/3vve9ufdb+ftvUnvOOeeUoaGhMjMzU/+G3FgBAFhAUAHoACGlW3bv3l22bdtWzjzzzFce6/V65Ywzzihbt25tbmPCCgDAKwQVgBYTUrpr1apVhwwtfUFYAQAQVADaSEjptjVr1pTVq1fPe2znzp3lpZdeKn1FWAEABpigAtAiQspguPbaaxc89vjjj5e+JawAAANIUAFoASFlsNx0000LHnvwwQdL3xNWAIABIqgA9DEhZfB8+MMfLuvXr5/32K5du8pXvvKV0hrCCgAwAAQVgD4kpAyms88+u9x1110LHr/zzjvLM888U1pHWAEAOkxQAegjQsrgOu6448o3v/nNcvLJJ897/Kmnniqf/exnS6sJKwBABwkqAH1ASOH+++8vF1988bzH9uzZUz7wgQ/M/W8nCCsAQIcIKgANElKY9bnPfa68733vW/D4bbfdVp544onSOcIKANABggpAA371s+fLS9N7yoF9zVSUX/5o26v/oudKKVuXdh8zB2YWPLZj68tLs9g/KX3pk7d8svze2O8tePz3v/D75d6H7l28fV9TSllZ+jOsXDp78LPfG7qU8lDTmwIAODqCCkATN1J+6T/HU8pto7eVz44tfH+U8fvGy+13314GxlAp5cRSyuWllBVurAAA7bCs6Q0ADIqDB2bKM3/5Ynnulzub3gp94Jbrbyl3/9u7Fzx+z+Z7yif+wyfKQFpeSvmd/39rZTayAAD0MTdUAGqybPlQWbv+lHLaeavL3z6+vezfc6DpLdGQG6+5sdxz+z0LHr/3G/eWW//9rWVgbSmlfLWU8nzTGwEAeHWCCkDNVp64oqxdf3LZtX1vefFXu8veHftr38PQUClDy498BWCmN1NmlvqWwKF+/6Vas/6X+ZBGrx4tf/SZPyrLls2/JHr/t+4vN3/q5lIWvq3M4tg9e03qVX7Nygburs4+3+lSys9m39xHTAEA2kNQAWjA8Gkr536ccf6J5eWX9pVn/2rHXFypy9lvOa2sOvXI71C6d3p/2fLoC0u6j6FlC+vJ6jOW5p1TdzyyRG92G5j9Tj73fe6+snz57N9t+Ttf/vKXy+9+8HfLzMxS1ZRSyn86il/zW6WU60o9Zi9o/Wkp5WERBQBoJ0EFoA9urPzGhaeU039zde1hhfq8973vLV/60pcWxJSvfvWr5UMf+tDSxpR+IqQAAB0hqAD0CWGlu6699tq5Wyi93vx/7X79618vN9xwQzl4sJlvn10rIQUA6BhBBaDPCCvd8p73vKds3rx5QUz51re+Vd7//vd3P6YIKQBARwkqAH1KWGm/d7/73eVrX/taWbFixbzHH3jggXL99deXAwc6/J2ehBRYXMP5yJaximuNVJybrHmu6j4BFomgAtDnhJV2uuqqq8o3vvGNctxxx817/Nvf/na57rrryv79ffJthxabkAIADIi6vzkiAMcYVs7bcEZ5zVknNL2dvveBq0bLSw/veeXH7Ju+/uAHP6hl7SuuuKJMTk6WlSvnf8ei73znO3Pvp9LJmDIbUn5SSvnDUsp/FVMAgO5zQwWgZdxY6W+XXXZZefDBB8vxxx8/7/Hvfve75Zprrin79u0rneJGCgAwoAQVgJZqQ1j55n+cKmedftZhP36oj/23P3n0iL/nNf/m6vL0tl+VfnXvvfeWVatWLXj83HPPLY8+euTn9mo++tGPlp/8ZPYaSB8QUgCAASeoALRcP4eV1/3jdeWcs86JZv7p+euP+PHjVsx/T5J+8w/fgPbX1q1bd8y/9+rVq0vjhBQAgDmCCkBH9HNYacLpJ5++4LGf/vSnjeylE4QUAIB5BBWAjhFW/p8NF14+7+d79uwpd9xxR2P7aS0hBQDgkAQVgI7qh7Dy29ddUJqwfPny8jvr/8W8xzZu3Fimp6eXfO3Z90rpBCEFAOCIBBWAjuuHsFK3N73uzeXEVSe+8vNde3a5nXK0hBQAgKMiqAAMYFhZ1ltWuuyyi/7lvJ/f+8DGsmXLlsb20xqzL9EfCikAAEdDUAEYwLDSdZdd9Hfvn7Jj145y1+Y7G91Pa2xregMAAO3R7f9ECcDAmf22ym/57X/2ys83Tv6X8uzzzza6JwAAukdQAaBTLn79W8qq41fN/f8Xd75Y/vPm8aa3BABABw1NbRqfaXoTMGg++cY/aHoL8Kr2Tu8vW/7ghdIVOx55uektwEDZXvN6Wx4p7TBZ41ojpbvPrSWvy5pLS60e2uQ/IkCd3FABAAAACAkqAAAAACFBBYBDGlo+1PQWAACgbwkqABzSshMEFQAAOBxBBYBDWrZqqJRlogoAAByKoALAIQ31hsrK3+w1vQ0AAOhLggoAh7Vq/XFNbwEAAPqSoALAYZ3whuP8tR8AADgEQQWAw1q+elkZvmRl09sAAIC+I6gAcESn/KtVZdWbRBUAAPj7BBUAjmhoaKic+v7hMnyxqAIAAL/m2zcAcHRR5X2ry4lXnlB2/9nesutP95Z9/2d/09sCAIDGCCoAHLUVpy8vK952QnnN204oB144WA68dLAc3DVTZvbPlH6345GXm94CAAAdIqgAUMnyk5bN/QBotYmKc8OlXiOl/4205AwmO3wGQK18JQwAAAAQElQAAAAAQoIKAAAAQEhQAQAAAAgJKgAAAAAhQQUAAAAgJKgAAAAAhAQVAAAAgJCgAgAAABASVAAAAABCggoAAABASFABAAAACAkqAAAAAKGhqQ1lJh3qvNHxanMTY4u9k8HV8TO4+uF611v32Np6F4Sj8OQl001vAVhC22teb8stNS84XHFuZJH3Mcgmaj67CtZU/JK2qoc21LteK3T8zxWdPoeJ/j8DN1QAAAAAQoIKAAAAQEhQAQAAAAgJKgAAAAAhQQUAAAAgJKgAAAAAhAQVAAAAgJCgAgAAABASVAAAAABCggoAAABASFABAAAACAkqAAAAACFBBQAAACDUSweA9nnykuna1lr32Nq+32PXOQNgIA3XvN5Izeux0GjFuYmWfI4Bfc8NFQAAAICQoAIAAAAQElQAAAAAQoIKAAAAQEhQAQAAAAgJKgAAAAAhQQUAAAAgJKgAAAAAhAQVAAAAgJCgAgAAABASVAAAAABCggoAAABAqJcOAABAv1kzXvOCda8HQN9xQwUAAAAgJKgAAAAAhAQVAAAAgJCgAgAAABASVAAAAABCggoAAABASFABAAAACAkqAAAAACFBBQAAACAkqAAAAACEBBUAAACAkKACAAAAEBJUAAAAAEKCCgAAAEBIUAEAAAAICSoAAAAAIUEFAAAAICSoAAAAAIQEFQAAAICQoAIAAAAQElQAAAAAQoIKAAAAQEhQAQAAAAgJKgAAAAAhQQUAAAAgJKgAAAAAhAQVAAAAgFAvHQCO3dSG0l2fmK42t2m82tzEWLW5LnMGHK1RZ964Dp/BQ01voF91+MxbwxkAi8QNFQAAAICQoAIAAAAQElQAAAAAQoIKAAAAQEhQAQAAAAgJKgAAAAAhQQUAAAAgJKgAAAAAhAQVAAAAgJCgAgAAABASVAAAAABCggoAAABASFABAAAACAkqAAAAACFBBQAAACAkqAAAAACEBBUAAACAkKACAAAAEBJUAAAAAEKCCgAAAEBIUAEAAAAICSoAAAAAIUEFAAAAICSoAAAAAIQEFQAAAICQoAIAAAAQElQAAAAAQoIKAAAAQEhQAQAAAAgJKgAAAAAhQQUAAAAgJKgAAAAAhAQVAAAAgJCgAgAAABASVAAAAABCggoAAABASFABAAAACAkqAAAAACFBBQAAACAkqAAAAACEBBUAAACAkKACAAAAEBJUAAAAAEKCCgAAAEBIUAEAAAAICSoAAAAAIUEFAAAAICSoAAAAAIQEFQAAAICQoAIAAAAQElQAAAAAQoIKAAAAQEhQAQAAAAgJKgAAAAAhQQUAAAAgNDS1aXwmHQIAAAAYZG6oAAAAAIQEFQAAAICQoAIAAAAQElQAAAAAQoIKAAAAQEhQAQAAAAgJKgAAAAAhQQUAAAAgJKgAAAAAhAQVAAAAgJCgAgAAABASVAAAAABCggoAAABASFABAAAACAkqAAAAACFBBQAAACAkqAAAAACEBBUAAACAkKACAAAAEBJUAAAAAEKCCgAAAEBIUAEAAAAICSoAAAAAIUEFAAAAICSoAAAAAIQEFQAAAIDQ0NSGMlPaYHQ8n5kYW4qdsNTnNsvZNc/ZtZezay9n117Orr2cXXs5u/Zydu3l7OZxQwUAAAAgJKgAAAAAhAQVAAAAgJCgAgAAABASVAAAAABCggoAAABASFABAAAACAkqAAAAACFBBQAAACAkqAAAAACEBBUAAACAkKACAAAAEBJUAAAAAEKCCgAAAEBIUAEAAAAICSoAAAAAIUEFAAAAICSoAAAAAIQEFQAAAICQoAIAAAAQElQAAAAAQoIKAAAAQEhQAQAAAAgJKgAAAAAhQQUAAAAgJKgAAAAAhAQVAAAAgJCgAgAAABASVAAAAABCggoAAABASFABAAAACAkqAAAAACFBBQAAACAkqAAAAACEBBUAAACAkKACAAAAEBJUAAAAAEKCCgAAAEBIUAEAAAAICSoAAAAAIUEFAAAAICSoAAAAAIQEFQAAAICQoAIAAAAQElQAAAAAQoIKAAAAQEhQAQAAAAgJKgAAAAAhQQUAAAAgJKgAAAAAhAQVAAAAgJCgAgAAABASVAAAAABCggoAAABASFABAAAACA1NbRqfSYcAAAAABpkbKgAAAAAhQQUAAAAgJKgAAAAAhAQVAAAAgJCgAgAAABASVAAAAABCggoAAABASFABAAAACAkqAAAAACFBBQAAACAkqAAAAACEBBUAAACAkKACAAAAEBJUAAAAAEKCCgAAAEBIUAEAAAAICSoAAAAAIUEFAAAAICSoAAAAAIQEFQAAAICQoAIAAAAQElQAAAAAQoIKAAAAQEhQAQAAAAgJKgAAAAAhQQUAAAAgJKgAAAAAhIamNpSZdKjzRserzU2MLfZOBpczGDzOvHnOYPA48+Y5g8HjzJvnDAaL827vOUz0/xm4oQIAAAAQElQAAAAAQoIKAAAAQEhQAQAAAAgJKgAAAAAhQQUAAAAgJKgAAAAAhAQVAAAAgJCgAgAAABASVAAAAABCggoAAABASFABAAAACAkqAAAAACFBBQAAACAkqAAAAACEBBUAAACAkKACAAAAEBJUAAAAAEKCCgAAAEBIUAEAAAAICSoAAAAAIUEFAAAAICSoAAAAAIQEFQAAAICQoAIAAAAQElQAAAAAQoIKAAAAQEhQAQAAAAgJKgAAAAAhQQUAAAAgJKgAAAAAhAQVAAAAgJCgAgAAABASVAAAAABCggoAAABASFABAAAACAkqAAAAACFBBQAAACAkqAAAAACEBBUAAACAkKACAAAAEBJUAAAAAEKCCgAAAEBIUAEAAAAICSoAAAAAIUEFAAAAICSoAAAAAIQEFQAAAICQoAIAAAAQElQAAAAAQoIKAAAAQEhQAQAAAAgJKgAAAAAhQQUAAACgZP4vuaBXMftYbvwAAAAASUVORK5CYII=;" parent="oyaKjV_WXcEfCoysOoAM-320" vertex="1">
          <mxGeometry x="8650" y="220" width="1000" height="1000" as="geometry" />
        </mxCell>
        <mxCell id="oyaKjV_WXcEfCoysOoAM-382" value="" style="endArrow=classic;html=1;rounded=0;fontFamily=Helvetica;fontSize=18;fontColor=default;strokeWidth=20;fillColor=#f5f5f5;strokeColor=#666666;entryX=0.25;entryY=1;entryDx=0;entryDy=0;exitX=1;exitY=0.5;exitDx=0;exitDy=0;" parent="oyaKjV_WXcEfCoysOoAM-320" source="oyaKjV_WXcEfCoysOoAM-412" target="oyaKjV_WXcEfCoysOoAM-214" edge="1">
          <mxGeometry width="50" height="50" relative="1" as="geometry">
            <mxPoint x="4050" y="1570" as="sourcePoint" />
            <mxPoint x="4310" y="1460" as="targetPoint" />
            <Array as="points">
              <mxPoint x="4330" y="1500" />
            </Array>
          </mxGeometry>
        </mxCell>
        <mxCell id="oyaKjV_WXcEfCoysOoAM-383" value="" style="endArrow=none;html=1;rounded=0;fontFamily=Helvetica;fontSize=18;fontColor=default;strokeWidth=20;fillColor=#f5f5f5;strokeColor=#666666;endFill=0;exitX=0;exitY=0.5;exitDx=0;exitDy=0;entryX=1;entryY=0.5;entryDx=0;entryDy=0;" parent="oyaKjV_WXcEfCoysOoAM-320" source="oyaKjV_WXcEfCoysOoAM-412" target="oyaKjV_WXcEfCoysOoAM-413" edge="1">
          <mxGeometry width="50" height="50" relative="1" as="geometry">
            <mxPoint x="2680" y="1540" as="sourcePoint" />
            <mxPoint x="2580" y="1410" as="targetPoint" />
          </mxGeometry>
        </mxCell>
        <mxCell id="oyaKjV_WXcEfCoysOoAM-384" value="&lt;font style=&quot;&quot;&gt;Update&lt;/font&gt;" style="text;html=1;align=center;verticalAlign=middle;whiteSpace=wrap;rounded=0;fontSize=128;container=0;fontStyle=1;fontColor=#333333;" parent="oyaKjV_WXcEfCoysOoAM-320" vertex="1">
          <mxGeometry x="3090" y="620" width="480" height="200" as="geometry" />
        </mxCell>
        <mxCell id="oyaKjV_WXcEfCoysOoAM-385" value="" style="endArrow=classic;html=1;rounded=0;fontFamily=Helvetica;fontSize=18;fontColor=default;strokeWidth=20;fillColor=#f5f5f5;strokeColor=#666666;exitX=1;exitY=0.5;exitDx=0;exitDy=0;entryX=0;entryY=0.5;entryDx=0;entryDy=0;" parent="oyaKjV_WXcEfCoysOoAM-320" source="oyaKjV_WXcEfCoysOoAM-384" target="oyaKjV_WXcEfCoysOoAM-214" edge="1">
          <mxGeometry width="50" height="50" relative="1" as="geometry">
            <mxPoint x="3387" y="698" as="sourcePoint" />
            <mxPoint x="3677" y="650" as="targetPoint" />
          </mxGeometry>
        </mxCell>
        <mxCell id="oyaKjV_WXcEfCoysOoAM-386" value="" style="endArrow=none;html=1;rounded=0;fontFamily=Helvetica;fontSize=18;fontColor=default;strokeWidth=20;fillColor=#f5f5f5;strokeColor=#666666;endFill=0;exitX=0;exitY=0.5;exitDx=0;exitDy=0;entryX=1;entryY=0.5;entryDx=0;entryDy=0;" parent="oyaKjV_WXcEfCoysOoAM-320" source="oyaKjV_WXcEfCoysOoAM-384" target="oyaKjV_WXcEfCoysOoAM-398" edge="1">
          <mxGeometry width="50" height="50" relative="1" as="geometry">
            <mxPoint x="2637" y="658" as="sourcePoint" />
            <mxPoint x="2637" y="650" as="targetPoint" />
          </mxGeometry>
        </mxCell>
        <mxCell id="oyaKjV_WXcEfCoysOoAM-387" value="&lt;font style=&quot;&quot;&gt;Pro&lt;/font&gt;&lt;span style=&quot;background-color: transparent;&quot;&gt;mpt&lt;/span&gt;" style="text;html=1;align=center;verticalAlign=middle;whiteSpace=wrap;rounded=0;fontSize=128;container=0;fontStyle=1;fontColor=#82B366;" parent="oyaKjV_WXcEfCoysOoAM-320" vertex="1">
          <mxGeometry x="5997" y="620" width="523" height="200" as="geometry" />
        </mxCell>
        <mxCell id="oyaKjV_WXcEfCoysOoAM-388" value="" style="endArrow=classic;html=1;rounded=0;fontFamily=Helvetica;fontSize=18;fontColor=default;strokeWidth=20;fillColor=#d5e8d4;strokeColor=#82b366;exitX=1;exitY=0.5;exitDx=0;exitDy=0;entryX=0;entryY=0.5;entryDx=0;entryDy=0;flowAnimation=1;dashed=1;dashPattern=1 1;" parent="oyaKjV_WXcEfCoysOoAM-320" source="oyaKjV_WXcEfCoysOoAM-387" target="oyaKjV_WXcEfCoysOoAM-233" edge="1">
          <mxGeometry width="50" height="50" relative="1" as="geometry">
            <mxPoint x="5907" y="1478" as="sourcePoint" />
            <mxPoint x="6667" y="660" as="targetPoint" />
          </mxGeometry>
        </mxCell>
        <mxCell id="oyaKjV_WXcEfCoysOoAM-389" value="" style="endArrow=none;html=1;rounded=0;fontFamily=Helvetica;fontSize=18;fontColor=default;strokeWidth=20;fillColor=#d5e8d4;strokeColor=#82b366;endFill=0;exitX=1;exitY=0.5;exitDx=0;exitDy=0;entryX=0;entryY=0.5;entryDx=0;entryDy=0;flowAnimation=1;dashed=1;dashPattern=1 1;" parent="oyaKjV_WXcEfCoysOoAM-320" source="oyaKjV_WXcEfCoysOoAM-214" target="oyaKjV_WXcEfCoysOoAM-387" edge="1">
          <mxGeometry width="50" height="50" relative="1" as="geometry">
            <mxPoint x="5887" y="670" as="sourcePoint" />
            <mxPoint x="5157" y="1438" as="targetPoint" />
          </mxGeometry>
        </mxCell>
        <mxCell id="oyaKjV_WXcEfCoysOoAM-390" value="&lt;font style=&quot;&quot;&gt;Action&lt;/font&gt;" style="text;html=1;align=center;verticalAlign=middle;whiteSpace=wrap;rounded=0;fontSize=128;container=0;fontStyle=1;fontColor=#82B366;" parent="oyaKjV_WXcEfCoysOoAM-320" vertex="1">
          <mxGeometry x="7927" y="620" width="480" height="200" as="geometry" />
        </mxCell>
        <mxCell id="oyaKjV_WXcEfCoysOoAM-392" value="" style="endArrow=none;html=1;rounded=0;fontFamily=Helvetica;fontSize=18;fontColor=default;strokeWidth=20;fillColor=#d5e8d4;strokeColor=#82b366;endFill=0;exitX=1;exitY=0.5;exitDx=0;exitDy=0;entryX=0;entryY=0.5;entryDx=0;entryDy=0;flowAnimation=1;dashed=1;dashPattern=1 1;" parent="oyaKjV_WXcEfCoysOoAM-320" source="oyaKjV_WXcEfCoysOoAM-233" target="oyaKjV_WXcEfCoysOoAM-390" edge="1">
          <mxGeometry width="50" height="50" relative="1" as="geometry">
            <mxPoint x="8197" y="1140" as="sourcePoint" />
            <mxPoint x="8197" y="1148" as="targetPoint" />
          </mxGeometry>
        </mxCell>
        <mxCell id="oyaKjV_WXcEfCoysOoAM-391" value="" style="endArrow=classic;html=1;rounded=0;fontFamily=Helvetica;fontSize=18;fontColor=default;strokeWidth=20;fillColor=#d5e8d4;strokeColor=#82b366;exitX=1;exitY=0.5;exitDx=0;exitDy=0;entryX=0;entryY=0.5;entryDx=0;entryDy=0;flowAnimation=1;dashed=1;dashPattern=1 1;" parent="oyaKjV_WXcEfCoysOoAM-320" source="oyaKjV_WXcEfCoysOoAM-390" target="oyaKjV_WXcEfCoysOoAM-287" edge="1">
          <mxGeometry width="50" height="50" relative="1" as="geometry">
            <mxPoint x="8947" y="1188" as="sourcePoint" />
            <mxPoint x="9237" y="1140" as="targetPoint" />
          </mxGeometry>
        </mxCell>
        <mxCell id="oyaKjV_WXcEfCoysOoAM-393" value="&lt;font style=&quot;&quot;&gt;Reasoning&lt;/font&gt;" style="text;html=1;align=center;verticalAlign=middle;whiteSpace=wrap;rounded=0;fontSize=128;container=0;fontStyle=1;fontColor=#82B366;" parent="oyaKjV_WXcEfCoysOoAM-320" vertex="1">
          <mxGeometry x="6888.5" y="1340" width="693" height="200" as="geometry" />
        </mxCell>
        <mxCell id="oyaKjV_WXcEfCoysOoAM-394" value="" style="endArrow=classic;html=1;rounded=0;fontFamily=Helvetica;fontSize=18;fontColor=default;strokeWidth=20;fillColor=#d5e8d4;strokeColor=#82b366;entryX=0;entryY=0.75;entryDx=0;entryDy=0;exitX=0;exitY=0.5;exitDx=0;exitDy=0;flowAnimation=1;dashed=1;dashPattern=1 1;" parent="oyaKjV_WXcEfCoysOoAM-320" source="oyaKjV_WXcEfCoysOoAM-393" target="oyaKjV_WXcEfCoysOoAM-233" edge="1">
          <mxGeometry width="50" height="50" relative="1" as="geometry">
            <mxPoint x="7687" y="1550" as="sourcePoint" />
            <mxPoint x="8487" y="1610" as="targetPoint" />
            <Array as="points">
              <mxPoint x="6527" y="1440" />
              <mxPoint x="6527" y="990" />
            </Array>
          </mxGeometry>
        </mxCell>
        <mxCell id="oyaKjV_WXcEfCoysOoAM-395" value="" style="endArrow=none;html=1;rounded=0;fontFamily=Helvetica;fontSize=18;fontColor=default;strokeWidth=20;fillColor=#d5e8d4;strokeColor=#82b366;endFill=0;exitX=1;exitY=0.75;exitDx=0;exitDy=0;entryX=1;entryY=0.5;entryDx=0;entryDy=0;flowAnimation=1;dashed=1;dashPattern=1 1;" parent="oyaKjV_WXcEfCoysOoAM-320" source="oyaKjV_WXcEfCoysOoAM-233" target="oyaKjV_WXcEfCoysOoAM-393" edge="1">
          <mxGeometry width="50" height="50" relative="1" as="geometry">
            <mxPoint x="8197" y="1240" as="sourcePoint" />
            <mxPoint x="8177" y="1420" as="targetPoint" />
            <Array as="points">
              <mxPoint x="7937" y="990" />
              <mxPoint x="7937" y="1440" />
            </Array>
          </mxGeometry>
        </mxCell>
        <mxCell id="oyaKjV_WXcEfCoysOoAM-399" value="" style="endArrow=classic;html=1;rounded=0;fontFamily=Helvetica;fontSize=18;fontColor=default;strokeWidth=20;fillColor=#f5f5f5;strokeColor=#666666;exitX=1;exitY=0.5;exitDx=0;exitDy=0;entryX=0;entryY=0.5;entryDx=0;entryDy=0;" parent="oyaKjV_WXcEfCoysOoAM-320" source="oyaKjV_WXcEfCoysOoAM-289" target="oyaKjV_WXcEfCoysOoAM-398" edge="1">
          <mxGeometry width="50" height="50" relative="1" as="geometry">
            <mxPoint x="3620" y="1090" as="sourcePoint" />
            <mxPoint x="1780" y="710" as="targetPoint" />
          </mxGeometry>
        </mxCell>
        <mxCell id="oyaKjV_WXcEfCoysOoAM-400" value="" style="shape=image;verticalLabelPosition=bottom;labelBackgroundColor=default;verticalAlign=top;aspect=fixed;imageAspect=0;image=data:image/png,iVBORw0KGgoAAAANSUhEUgAABFQAAARUCAYAAABY/UdQAAAAOnRFWHRTb2Z0d2FyZQBNYXRwbG90bGliIHZlcnNpb24zLjEwLjEsIGh0dHBzOi8vbWF0cGxvdGxpYi5vcmcvc2/+5QAAAAlwSFlzAAAuIwAALiMBeKU/dgAAJjJJREFUeJzt3c2PXfd92OEz5KUoa6g2oh0pmaaOXxo4tNuksQ0CBUx0EXRReCNM1rOqYG+NCbLwn+DN7LowkWYz+8F04T+gUlogghsHDWDaaPoGtBOLqKnWlmLJtD2FBDSBQFni5/DOPXPOfZ6VRM6X53fvd2Se+fhwuHN6ZzgfeK+Do3Fzx4frPsn2soPtY+fTs4PtY+fTs4PtY+fTs4PtYt/z3cPx5d/BlakPAAAAADA3ggoAAABAJKgAAAAARIIKAAAAQCSoAAAAAESCCgAAAEAkqAAAAABEggoAAABAJKgAAAAARIIKAAAAQCSoAAAAAESCCgAAAEAkqAAAAABEggoAAABAJKgAAAAARIIKAAAAQCSoAAAAAESCCgAAAEAkqAAAAABEggoAAABAJKgAAAAARIIKAAAAQCSoAAAAAESCCgAAAEAkqAAAAABEggoAAABAJKgAAAAARIIKAAAAQCSoAAAAAESCCgAAAEAkqAAAAABEggoAAABAJKgAAAAARIIKAAAAQCSoAAAAAESCCgAAAEAkqAAAAABEggoAAABAJKgAAAAARIIKAAAAQCSoAAAAAESCCgAAAEAkqAAAAABEggoAAABAJKgAAAAARIIKAAAAQCSoAAAAAESCCgAAAEAkqAAAAABEggoAAABAJKgAAAAARIIKAAAAQCSoAAAAAEQ7p3ePzusQAAAAwDbzhAoAAABAJKgAAAAARIIKAAAAQCSoAAAAAESCCgAAAEAkqAAAAABEggoAAABAJKgAAAAARIIKAAAAQCSoAAAAAESCCgAAAEAkqAAAAABEggoAAABAJKgAAAAARIIKAAAAQCSoAAAAAESCCgAAAEAkqAAAAABEggoAAABAJKgAAAAARIIKAAAAQCSoAAAAAESCCgAAAEAkqAAAAABEggoAAABAJKgAAAAARIIKAAAAQLRzemc4H+bg4KjPHB9exEm46L29w+6mZ3fzZXfzZXfzZXfzZXfzZXfzZXfzZXfv4QkVAAAAgEhQAQAAAIgEFQAAAIBIUAEAAACIBBUAAACASFABAAAAiAQVAAAAgEhQAQAAAIgEFQAAAIBIUAEAAACIBBUAAACASFABAAAAiAQVAAAAgEhQAQAAAIgEFQAAAIBIUAEAAACIBBUAAACASFABAAAAiAQVAAAAgEhQAQAAAIgEFQAAAIBIUAEAAACIBBUAAACASFABAAAAiAQVAAAAgEhQAQAAAIgEFQAAAIBIUAEAAACIBBUAAACASFABAAAAiAQVAAAAgEhQAQAAAIgEFQAAAIBIUAEAAACIBBUAAACASFABAAAAiAQVAAAAgEhQAQAAAIgEFQAAAIBIUAEAAACIBBUAAACASFABAAAAiAQVAAAAgEhQAQAAAIgEFQAAAIBIUAEAAACIBBUAAACASFABAAAAiAQVAAAAgEhQAQAAAIgEFQAAAIBIUAEAAACIBBUAAACASFABAAAAiAQVAAAAgGjn9O7ReR0CAAAA2GaeUAEAAACIBBUAAACASFABAAAAiAQVAAAAgEhQAQAAAIgEFQAAAIBIUAEAAACIBBUAAACASFABAAAAiAQVAAAAgEhQAQAAAIgEFQAAAIBIUAEAAACIBBUAAACASFABAAAAiAQVAAAAgEhQAQAAAIgEFQAAAIBIUAEAAACIBBUAAACASFABAAAAiAQVAAAAgEhQAQAAAIgEFQAAAIBIUAEAAACIBBUAAACAaOf0znBehxbv4Gjc3PHhuk+yvexg+9j59Oxg+9j59Oxg+9j59Oxgu9j3fPdwfPl34AkVAAAAgEhQAQAAAIgEFQAAAIBIUAEAAACIBBUAAACASFABAAAAiAQVAAAAgEhQAQAAAIgEFQAAAIBIUAEAAACIBBUAAACASFABAAAAiAQVAAAAgEhQAQAAAIgEFQAAAIBIUAEAAACIBBUAAACASFABAAAAiAQVAAAAgEhQAQAAAIgEFQAAAIBIUAEAAACIBBUAAACASFABAAAAiAQVAAAAgEhQAQAAAIgEFQAAAIBIUAEAAACIBBUAAACASFABAAAAiAQVAAAAgEhQAQAAAIgEFQAAAIBIUAEAAACIBBUAAACASFABAAAAiAQVAAAAgEhQAQAAAIgEFQAAAIBIUAEAAACIBBUAAACASFABAAAAiAQVAAAAgEhQAQAAAIgEFQAAAIBIUAEAAACIBBUAAACASFABAAAAiAQVAAAAgEhQAQAAAIgEFQAAAIBIUAEAAACIBBUAAACASFABAAAAiAQVAAAAgGhVB4An9+IrU5/gEnrlcOoTYAfbx86nZwfbx86nt+AdnN6Z+gSwXTyhAgAAABAJKgAAAACRoAIAAAAQCSoAAAAAkaACAAAAEAkqAAAAAJGgAgAAABAJKgAAAACRoAIAAAAQCSoAAAAAkaACAAAAEAkqAAAAAJGgAgAAABAJKgAAAACRoAIAAAAQCSoAAAAAkaACAAAAEAkqAAAAAJGgAgAAABAJKgAAAACRoAIAAAAQCSoAAAAAkaACAAAAEAkqAAAAAJGgAgAAABAJKgAAAACRoAIAAAAQCSoAAAAAkaACAAAAEAkqAAAAAJGgAgAAABAJKgAAAACRoAIAAAAQCSoAAAAAkaACAAAAEAkqAAAAAJGgAgAAABAJKgAAAACRoAIAAAAQCSoAAAAAkaACAAAAEAkqAAAAAJGgAgAAABAJKgAAAACRoAIAAAAQCSoAAAAAkaACAAAAEAkqAAAAAJGgAgAAABAJKgAAAACRoAIAAAAQCSoAAAAAkaACAAAAEAkqAAAAANHO6d2j8zoEPJkXv3I49REAAFiY07tHUx8BtoonVAAAAAAiQQUAAAAgElQAAAAAIkEFAAAAIBJUAAAAACJBBQAAACASVAAAAAAiQQUAAAAgElQAAAAAIkEFAAAAIBJUAAAAACJBBQAAACASVAAAAAAiQQUAAAAgElQAAAAAIkEFAAAAIBJUAAAAACJBBQAAACASVAAAAAAiQQUAAAAgElQAAAAAIkEFAAAAIBJUAAAAACJBBQAAACASVAAAAAAiQQUAAAAgElQAAAAAotVwfDjMwsFRn5nLa1uyMXt7h90BAMAy76F9jTBfdvcenlABAAAAiAQVAAAAgEhQAQAAAIgEFQAAAIBIUAEAAACIBBUAAACASFABAAAAiAQVAAAAgEhQAQAAAIgEFQAAAIBIUAEAAACIBBUAAACASFABAAAAiAQVAAAAgEhQAQAAAIgEFQAAAIBIUAEAAACIBBUAAACASFABAAAAiAQVAAAAgEhQAQAAAIgEFQAAAIBIUAEAAACIBBUAAACASFABAAAAiAQVAAAAgEhQAQAAAIgEFQAAAIBIUAEAAACIBBUAAACASFABAAAAiAQVAAAAgEhQAQAAAIgEFQAAAIBIUAEAAACIBBUAAACASFABAAAAiAQVAAAAgEhQAQAAAIgEFQAAAIBIUAEAAACIBBUAAACASFABAAAAiAQVAAAAgEhQAQAAAIgEFQAAAIBIUAEAAACIBBUAAACASFABAAAAiAQVAAAAgEhQAQAAAIgEFQAAAIBIUAEAAACIBBUAAACAaOf07tF5HQKezItfOZz6CAAALMzp3aOpjwBbxRMqAAAAAJGgAgAAABAJKgAAAACRoAIAAAAQCSoAAAAAkaACAAAAEAkqAAAAAJGgAgAAABAJKgAAAACRoAIAAAAQCSoAAAAAkaACAAAAEAkqAAAAAJGgAgAAABAJKgAAAACRoAIAAAAQCSoAAAAAkaACAAAAEAkqAAAAAJGgAgAAABAJKgAAAACRoAIAAAAQCSoAAAAAkaACAAAAEAkqAAAAAJGgAgAAABAJKgAAAADRajg+rDPLd3A0bs57uT52AAAAjXvhR/m6Yr57OL78O/CECgAAAEAkqAAAAABEggoAAABAJKgAAAAARIIKAAAAQCSoAAAAAESCCgAAAEAkqAAAAABEggoAAABAJKgAAAAARIIKAAAAQCSoAAAAAESCCgAAAEAkqAAAAABEggoAAABAJKgAAAAARIIKAAAAQCSoAAAAAESCCgAAAEAkqAAAAABEggoAAABAJKgAAAAARIIKAAAAQCSoAAAAAESCCgAAAEAkqAAAAABEggoAAABAJKgAAAAARIIKAAAAQCSoAAAAAESCCgAAAEAkqAAAAABEggoAAABAJKgAAAAARIIKAAAAQCSoAAAAAESCCgAAAEAkqAAAAABEggoAAABAJKgAAAAARIIKAAAAQCSoAAAAAESCCgAAAEAkqAAAAABEggoAAABAJKgAAAAARIIKAAAAQCSoAAAAAESCCgAAAEAkqAAAAABEggoAAABAJKgAAAAARIIKAAAAQCSoAAAAAESCCgAAAEC0qgMAMEf3vjos1+7UB2A23tzcpW59c3PXAoApeEIFAAAAIBJUAAAAACJBBQAAACASVAAAAAAiQQUAAAAgElQAAAAAIkEFAAAAIBJUAAAAACJBBQAAACASVAAAAAAiQQUAAAAgElQAAAAAolUdAAA+xO6Gr7e/4euxPicz+dx8c9iY159/fnMXg0vqufv3pz4C8Bg8oQIAAAAQCSoAAAAAkaACAAAAEAkqAAAAAJGgAgAAABAJKgAAAACRoAIAAAAQCSoAAAAAkaACAAAAEAkqAAAAAJGgAgAAABAJKgAAAACRoAIAAAAQreoAAGyN3akPwOLtj5w73vDn9Az+W3ju/v2pjwCPeP3556c+AnCBPKECAAAAEAkqAAAAAJGgAgAAABAJKgAAAACRoAIAAAAQCSoAAAAAkaACAAAAEAkqAAAAAJGgAgAAABAJKgAAAACRoAIAAAAQCSoAAAAAkaACAAAAEK3qAADM0u4Gr7U/cu5k5NzxyLmDkXOsz8mGP583/bkJAAvmCRUAAACASFABAAAAiAQVAAAAgEhQAQAAAIgEFQAAAIBIUAEAAACIBBUAAACASFABAAAAiAQVAAAAgEhQAQAAAIgEFQAAAIBIUAEAAACIBBUAAACAaDUcHNUZfhnv5fTmsoNXDqc+AfA49od52B05dzxy7mDk3JKdbPh6c/ncBDZrLvfCc+C9nN7B5d+BJ1QAAAAAIkEFAAAAIBJUAAAAACJBBQAAACASVAAAAAAiQQUAAAAgElQAAAAAIkEFAAAAIBJUAAAAACJBBQAAACASVAAAAAAiQQUAAAAgElQAAAAAolUdAAAuyP7IuZORc7sbvt7Y17dJY1/bsOD3hNl6MHLu5prPAbBUnlABAAAAiAQVAAAAgEhQAQAAAIgEFQAAAIBIUAEAAACIBBUAAACASFABAAAAiAQVAAAAgEhQAQAAAIgEFQAAAIBIUAEAAACIBBUAAACASFABAAAAiFbD8eEwCwdHfWYur23JxuztHXYH8Pj2R84dj5zbHTl3ssHXNuZaT2LsOeExPRgxs9rbG3ets7NRczdHTbFWc7mH9jXCfNnde3hCBQAAACASVAAAAAAiQQUAAAAgElQAAAAAIkEFAAAAIBJUAAAAACJBBQAAACASVAAAAAAiQQUAAAAgElQAAAAAIkEFAAAAIBJUAAAAACJBBQAAACBa1QEAYCEORs4dr/kcl+VaT/KewGN6MHJutbe35pOs/1oPzs5Gzd0cNQUwPU+oAAAAAESCCgAAAEAkqAAAAABEggoAAABAJKgAAAAARIIKAAAAQCSoAAAAAESCCgAAAEAkqAAAAABEggoAAABAJKgAAAAARIIKAAAAQLSqAwAAwDg3R849ODvLM6u9vVHX+tmIaz3JawOYK0+oAAAAAESCCgAAAEAkqAAAAABEggoAAABAJKgAAAAARIIKAAAAQCSoAAAAAESCCgAAAEAkqAAAAABEggoAAABAJKgAAAAARIIKAAAAQCSoAAAAAESrOgAAbLndDV5rf+TcyYbnxp4THtPNETMPzs42di2AbeQJFQAAAIBIUAEAAACIBBUAAACASFABAAAAiAQVAAAAgEhQAQAAAIgEFQAAAIBIUAEAAACIBBUAAACASFABAAAAiAQVAAAAgEhQAQAAAIgEFQAAAIBoNRwcDYu15Ne2dEvf3SuHU58AYBhONny9/WG5xr6XS35PmNzNqQ/A5i39Hnrpr2/JDpa5O0+oAAAAAESCCgAAAEAkqAAAAABEggoAAABAJKgAAAAARIIKAAAAQCSoAAAAAESCCgAAAEAkqAAAAABEggoAAABAJKgAAAAARIIKAAAAQCSoAAAAAESrOgAAW+Nk5Nz+yLnjkXO7w2aNfX2bNJcdbPpzDABYG0+oAAAAAESCCgAAAEAkqAAAAABEggoAAABAJKgAAAAARIIKAAAAQCSoAAAAAESCCgAAAEAkqAAAAABEggoAAABAJKgAAAAARIIKAAAAQCSoAAAAAESr4fiwzizfwdG4Oe/l+tgBMGfHwzzsT32AS+hgwzvfHTl3MnIOWDb3wo/ydcV893B8+XfgCRUAAACASFABAAAAiAQVAAAAgEhQAQAAAIgEFQAAAIBIUAEAAACIBBUAAACASFABAAAAiAQVAAAAgEhQAQAAAIgEFQAAAIBIUAEAAACIBBUAAACAaFUHAGCW3hwxszvyWmPnxtrf8PV41MHIueOZfI6N+e8HABbOEyoAAAAAkaACAAAAEAkqAAAAAJGgAgAAABAJKgAAAACRoAIAAAAQCSoAAAAAkaACAAAAEAkqAAAAAJGgAgAAABAJKgAAAACRoAIAAAAQCSoAAAAA0aoOAMDWeHPk3O6az8Fy7c7kc3oGXn/++amPAMCW8YQKAAAAQCSoAAAAAESCCgAAAEAkqAAAAABEggoAAABAJKgAAAAARIIKAAAAQCSoAAAAAESCCgAAAEAkqAAAAABEggoAAABAJKgAAAAARIIKAAAAQLSqAwDAh3hz5NzuyLmTkXNs3+fYDDx3//7URwCAx+IJFQAAAIBIUAEAAACIBBUAAACASFABAAAAiAQVAAAAgEhQAQAAAIgEFQAAAIBIUAEAAACIBBUAAACASFABAAAAiAQVAAAAgEhQAQAAAIhWdQAA5ujWN4dL79are6Pm7t0+W/tZ2Iwl7/zB1AeALfTy1AeALeMJFQAAAIBIUAEAAACIBBUAAACASFABAAAAiAQVAAAAgEhQAQAAAIgEFQAAAIBIUAEAAACIBBUAAACASFABAAAAiAQVAAAAgEhQAQAAAIgEFQAAAIBoVQcAgMvl1qt7o+bu3T5b+1m21dgdAADz5QkVAAAAgEhQAQAAAIgEFQAAAIBIUAEAAACIBBUAAACASFABAAAAiAQVAAAAgEhQAQAAAIgEFQAAAIBIUAEAAACIBBUAAACASFABAAAAiAQVAAAAgGhVBwCAi3Hv9tmouVuv7m10jul3zqNeO9zwBfc3fD2md9xHXvjmRRwEuCw8oQIAAAAQCSoAAAAAkaACAAAAEAkqAAAAAJGgAgAAABAJKgAAAACRoAIAAAAQCSoAAAAAkaACAAAAEAkqAAAAAJGgAgAAABAJKgAAAACRoAIAAAAQreoAAABcOvsj505Gzh2PnDsYOcf6jN357prPAcyeJ1QAAAAAIkEFAAAAIBJUAAAAACJBBQAAACASVAAAAAAiQQUAAAAgElQAAAAAIkEFAAAAIBJUAAAAACJBBQAAACASVAAAAAAiQQUAAAAgElQAAAAAop3Tu0fndQh4Mi9+5XDqIwCX0K1X9zZ6vXu3zxb7+pb82qZ4fWM82PD1XvvTkYMnw2a9OXLuYM3nWIJN726/j7zwpWGjXr57tNkLwpbzhAoAAABAJKgAAAAARIIKAAAAQCSoAAAAAESCCgAAAEAkqAAAAABEggoAAABAJKgAAAAARIIKAAAAQCSoAAAAAESCCgAAAEAkqAAAAABEggoAAABAtKoDAMAHu/Xq3tRHYOHGfo7du3229rPM3v7IuZORc7sbvN7Y17ZpY9/LsebyvgCXnidUAAAAACJBBQAAACASVAAAAAAiQQUAAAAgElQAAAAAIkEFAAAAIBJUAAAAACJBBQAAACASVAAAAAAiQQUAAAAgElQAAAAAIkEFAAAAIBJUAAAAAKKd0zvD+TAHB0d95vjwIk7CRe9tC3b34itTnwB4HB976caHf9DVneHK0zvD1Rs7w/XPXBue/q1rw87VnU0cDzbm3u2zPPNg2KzX/nSYh+ORc7vD5uyPnDsZNmvsOTfohS9t9nov3xnmwdcI82V377F6778CAP/fW997mD7+x//ureHKM1eGj/yTa8ONf/b08NTH/TYLALBU/sgPAKzRL/7mF8Obf/b2cP9f/2h46z+3IAMAwHwIKgBwAc4fng//+49/LKoAACyUoAIAFxlV/s2Ph1+8NY9vVwYAwOMTVADgAp3/9Hz4yXd/OvUxAABYM0EFAC7YT/5CUAEAWBpBBQAu2Fvff+iP/QAALIygAgAb+F4qP7v/86mPAQDAGgkqALABnlABAFgWQQUANkBQAQBYFkEFAAAAIBJUAAAAAKJVHQCAOfqH//LXht/77S8Mn//tzw+/95nPD//0M58fPv5rH3/k45698/Qk54PL7Nare33o9tlFHGX+DkbOHfeRF7458lpH48Ze++qG3xOAiQkqACzS5z73ueHLX/7y8IUvfGH44he/OHzqU5+a+kgAACyIoALAIr300kvD1772tamPAQDAQvkeKgAAAACRoALAVnn7p28P3/n+nw9/8m//eHj9x69PfZxL5Y37bw33v/ej4Wc//fnURwEAuPT8kR8AFuvhw4fDd7/73eHb3/728Jf/5y+G73zvz4e//Kv/NDz82cN3f/73b/+L4blnn5v6mJfGL35+Pvzwv74xPPgfbw43f3N3uPmp3WH11NWpjwUAcCkJKgAs0je+8Y3h61//+vDWW2+9++83vnR96iPNxrmwAgDwoQQVABbpBz/4wdRHmD1hBQDglxNUAIAPJKwAADxKUAEAHouwAgDwdwQVACARVgAABBUAYCRhBQDYZoIKAPBEhBUAYBsJKgDAWggrAMA2EVQAgLUSVgCAbSCoAAAXQlgBAJZMUAEALpSwAgAskaACAGyEsAIALImgAgBslLACACyBoAIwhd8fhuHTwzD86jAM16Y+zCX1/WEY/uP6frk37r/9vl/YP87HreX6/+HtYfifF/JLz5awAgDMmaACMIVfGYZhb+pDwOUgrAAAc3Rl6gMAAPxtWPlvbww//Ks3hvPzR58eAgC4TDyhAgBMb2cYfuU3nhk++ukbw1PPuD0BAC4/dywAU3jne4P8l2EYPjoMw29MfZhL6rVhGP5mfb/clb+/8+gPvs8PXbn2Pj+4Btf+3tXh6s3L/WDoT/7vw/f9vjIXSkgBAGbKnQvAFP771AfYPs984qlHfmznyqPx5JnnHv24dfjoP352eOZ3LubXXpcf/fVPhv/1ndc3czEhBQCYOXcwAMDmCCkAwEK4kwEALp6QAgAsjDsaAODiCCkAwEK5swEA1k9IgfXa7SOvHY681v7IuZMNz409J8CauMMBANZHSAEAtoQ7HQDgyQkpAMCWcccDAIwnpAAAW8qdDwCL9a1vfWvY29t795+v7O488vO//rFff+TH/v2f/NkH/pp/8EcvDj/44V+v8ZQzJaQAAFvOHRAAi/XZz352+MQnPpFmfue3fvcDf/6pa08NW01IAQB4lzshAODDCSkAAO/hjggA+OWEFACA9+XOCIDF+uQnP/m3/3zjS9cnPcvsCCkAAB/IHRIA8HeEFACAx+JOCQB41/Vnrw2f/ufPCykAAI/BHRMA8K7rN9wWAAA8riuP/ZEAAAAAvEtQAQAAAIhWw8HRsFhLfm1Lt/TdvXI49QkAgCmcbPBa+8OyjX0vl/y+LP0eeumvb8kOlrk7T6gAAAAARIIKAAAAQCSoAMAG7PgdFwBgUdzeAcAGXPnIztRHAABgjQQVANiAKzf8lgsAsCTu7gDggl197upw7YWrUx8DAIA1ElQA4II987tPTX0EAADWTFABgAv2EUEFAGBxBBUAuEDX/9G14fpvrqY+BgAAayaoAMAFuf7pa8PH/tWzUx8DAIAL4P8yA4ALejLlnZhy5bq/LhkAYIkEFQBYk9WvXn33G9C+8z1TnvoHfosFAFgyd3sAbIWPvXQxf/RmZ7UzXHl6Z7hyY2dY3fRXIwMAbAtBBYCt8JHP+pt2gPdxPHJud9is/eHy25/JDk4WvANgo3xTWgAAAIBIUAEAAACIBBUAAACASFABAAAAiAQVAAAAgEhQAQAAAIgEFQAAAIBIUAEAAACIBBUAAACASFABAAAAiAQVAAAAgEhQAQAAAIgEFQAAAIBo5/TOcF6HFu/gaNzc8eG6T7K9Fr6DF1+Z+gTARbr16t7UR4D3de/22cau9WDYrNe+uuEL7o6c21/zObbZ8YZ3N8ILI29px3r5zmavNwsL/7pi0Xs4vvw78IQKAAAAQCSoAAAAAESCCgAAAEAkqAAAAABEggoAAABAJKgAAAAARIIKAAAAQCSoAAAAAESCCgAAAEAkqAAAAABEggoAAABAJKgAAAAARIIKAAAAQLSqAwDAB7t3+2yj17v16t4szrlkdnAJ7G74evsbvh6POhg5dzyTzzHg0vOECgAAAEAkqAAAAABEggoAAABAJKgAAAAARIIKAAAAQCSoAAAAAESCCgAAAEAkqAAAAABEggoAAABAJKgAAAAARIIKAAAAQCSoAAAAAESrOgAAAJfNC0cbvuCmrwfApeMJFQAAAIBIUAEAAACIBBUAAACASFABAAAAiAQVAAAAgEhQAQAAAIgEFQAAAIBIUAEAAACIBBUAAACASFABAAAAiAQVAAAAgEhQAQAAAIgEFQAAAIBIUAEAAACIBBUAAACASFABAAAAiAQVAAAAgEhQAQAAAIgEFQAAAIBIUAEAAACIBBUAAACASFABAAAAiAQVAAAAgEhQAQAAAIgEFQAAAIBIUAEAAACIBBUAAACAaFUHgCd3emfqE1xCB0fj5o4P132S7WUH8/WHZ+Pm7tr52tjBI16e+gCXlf+tnZ4dAGviCRUAAACASFABAAAAiAQVAAAAgEhQAQAAAIgEFQAAAIBIUAEAAACIBBUAAACASFABAAAAiAQVAAAAgEhQAQAAAIgEFQAAAIBIUAEAAACIBBUAAACASFABAAAAiAQVAAAAgEhQAQAAAIgEFQAAAIBIUAEAAACIBBUAAACASFABAAAAiAQVAAAAgEhQAQAAAIgEFQAAAIBIUAEAAACIBBUAAACASFABAAAAiAQVAAAAgEhQAQAAAIgEFQAAAIBIUAEAAACIBBUAAACASFABAAAAiAQVAAAAgEhQAQAAAIgEFQAAAIBIUAEAAACIBBUAAACASFABAAAAiAQVAAAAgEhQAQAAAIgEFQAAAIBIUAEAAACIBBUAAACASFABAAAAiAQVAAAAgEhQAQAAAIgEFQAAAIBIUAEAAACIBBUAAACASFABAAAAiAQVAAAAgEhQAQAAAIgEFQAAAIBIUAEAAACIBBUAAACAaOf07tF5HQIAAADYZp5QAQAAAIgEFQAAAIBIUAEAAACIBBUAAACASFABAAAAiAQVAAAAgEhQAQAAAIgEFQAAAIBIUAEAAACIBBUAAACASFABAAAAiAQVAAAAgEhQAQAAAIgEFQAAAIBIUAEAAACIBBUAAACASFABAAAAiAQVAAAAgEhQAQAAAIgEFQAAAIBIUAEAAACIBBUAAACASFABAAAAiAQVAAAAgEhQAQAAAIgEFQAAAIBo5/TOcD7MwcFRnzk+vIiTcNF7e4fdTc/u5svu5svu5svu5svu5svu5svu5svu3sMTKgAAAACRoAIAAAAQCSoAAAAAkaACAAAAEAkqAAAAAJGgAgAAABAJKgAAAACRoAIAAAAQCSoAAAAAkaACAAAAEAkqAAAAAJGgAgAAABAJKgAAAACRoAIAAAAQCSoAAAAAkaACAAAAEAkqAAAAAJGgAgAAABAJKgAAAACRoAIAAAAQCSoAAAAAkaACAAAAEAkqAAAAAJGgAgAAABAJKgAAAACRoAIAAAAQCSoAAAAAkaACAAAAEAkqAAAAAJGgAgAAABAJKgAAAACRoAIAAAAQCSoAAAAAkaACAAAAEAkqAAAAAJGgAgAAABAJKgAAAACRoAIAAAAQCSoAAAAAkaACAAAAEAkqAAAAAJGgAgAAABAJKgAAAACRoAIAAAAQCSoAAAAAkaACAAAAEAkqAAAAAJGgAgAAABAJKgAAAACRoAIAAAAQCSoAAAAAkaACAAAAEAkqAAAAAJGgAgAAABAJKgAAAADRzundo/M6BAAAALDNPKECAAAAEAkqAAAAAJGgAgAAABAJKgAAAACRoAIAAAAQCSoAAAAAkaACAAAAEAkqAAAAAJGgAgAAABAJKgAAAACRoAIAAAAQCSoAAAAAkaACAAAAEAkqAAAAAJGgAgAAABAJKgAAAACRoAIAAAAQCSoAAAAAkaACAAAAEAkqAAAAAJGgAgAAABAJKgAAAACRoAIAAAAQCSoAAAAAkaACAAAAEAkqAAAAAJGgAgAAABDtnN4ZzuvQ4h0cjZs7Plz3SbaXHWwfO5+eHWwfO5+eHWwfO5+eHWwX+57vHo4v/w48oQIAAAAQCSoAAAAAkaACAAAAEAkqAAAAAJGgAgAAABAJKgAAAACRoAIAAAAQCSoAAAAAkaACAAAAEAkqAAAAAJGgAgAAABAJKgAAAACRoAIAAAAQCSoAAAAAkaACAAAAEAkqAAAAAJGgAgAAABAJKgAAAACRoAIAAAAQCSoAAAAAkaACAAAAEAkqAAAAAJGgAgAAABAJKgAAAACRoAIAAAAQCSoAAAAAkaACAAAAEAkqAAAAAJGgAgAAABAJKgAAAACRoAIAAAAQCSoAAAAAkaACAAAAEAkqAAAAAJGgAgAAABAJKgAAAACRoAIAAAAQCSoAAAAAkaACAAAAEAkqAAAAAJGgAgAAABAJKgAAAACRoAIAAAAQCSoAAAAAkaACAAAAEAkqAAAAAJGgAgAAABAJKgAAAACRoAIAAAAQCSoAAAAAkaACAAAAEAkqAAAAAJGgAgAAABAJKgAAAABD8/8AVZriZdwmSy8AAAAASUVORK5CYII=;" parent="oyaKjV_WXcEfCoysOoAM-320" vertex="1">
          <mxGeometry x="1830" y="220" width="1000" height="1000" as="geometry" />
        </mxCell>
        <mxCell id="oyaKjV_WXcEfCoysOoAM-401" value="" style="endArrow=classic;html=1;rounded=0;fontFamily=Helvetica;fontSize=18;fontColor=default;strokeWidth=20;fillColor=#f5f5f5;strokeColor=#666666;exitX=1;exitY=0.5;exitDx=0;exitDy=0;entryX=0;entryY=0.5;entryDx=0;entryDy=0;" parent="oyaKjV_WXcEfCoysOoAM-320" source="oyaKjV_WXcEfCoysOoAM-291" target="oyaKjV_WXcEfCoysOoAM-413" edge="1">
          <mxGeometry width="50" height="50" relative="1" as="geometry">
            <mxPoint x="1490" y="1252" as="sourcePoint" />
            <mxPoint x="2040" y="1430" as="targetPoint" />
          </mxGeometry>
        </mxCell>
        <mxCell id="oyaKjV_WXcEfCoysOoAM-413" value="&lt;b&gt;V(s)&lt;/b&gt;" style="text;html=1;align=center;verticalAlign=middle;whiteSpace=wrap;rounded=0;fontSize=128;fontColor=#333333;fillColor=none;strokeColor=none;" parent="oyaKjV_WXcEfCoysOoAM-320" vertex="1">
          <mxGeometry x="2180" y="1400" width="300" height="200" as="geometry" />
        </mxCell>
        <mxCell id="oyaKjV_WXcEfCoysOoAM-321" value="&lt;font style=&quot;font-size: 160px;&quot;&gt;Monte Carlo Search Tree&lt;/font&gt;" style="swimlane;horizontal=0;whiteSpace=wrap;html=1;startSize=200;fillColor=#f5f5f5;fontColor=#333333;strokeColor=#666666;strokeWidth=8;" parent="1" vertex="1">
          <mxGeometry x="-830" y="-440" width="9860" height="3230" as="geometry" />
        </mxCell>
        <mxCell id="mhYo0zj6bfY33cigUTVe-19" value="" style="ellipse;whiteSpace=wrap;html=1;aspect=fixed;strokeWidth=20;fillColor=#f5f5f5;fontColor=#333333;strokeColor=#666666;" parent="1" vertex="1">
          <mxGeometry x="-500" y="1600" width="600" height="600" as="geometry" />
        </mxCell>
        <mxCell id="oyaKjV_WXcEfCoysOoAM-58" value="" style="shape=image;verticalLabelPosition=bottom;labelBackgroundColor=default;verticalAlign=top;aspect=fixed;imageAspect=0;image=data:image/png,iVBORw0KGgoAAAANSUhEUgAABFQAAARUCAYAAABY/UdQAAAAOnRFWHRTb2Z0d2FyZQBNYXRwbG90bGliIHZlcnNpb24zLjEwLjEsIGh0dHBzOi8vbWF0cGxvdGxpYi5vcmcvc2/+5QAAAAlwSFlzAAAuIwAALiMBeKU/dgAAKyZJREFUeJzt3V+M33Wd7/HP0F8pdkDbshYdWRXWlVQkIcop8WAxilopqM1c6NWcSBbwwhudcOPdJl4YjM6N5kSqWdFJvDBmMiaIf9glCJw1lj9uRakb9uzZZTdTKdIp0sofLXPSkVGng4XXd36/7/f3/f4ej6TR+bXvft8znym2Tz9TxuZ3laXCalMz1eZmp/u9yehyBqPHmTfPGYweZ948ZzB6nHnznMFocd7tPYfZ4T+DM5peAAAAAKBtBBUAAACAkKACAAAAEBJUAAAAAEKCCgAAAEBIUAEAAAAICSoAAAAAIUEFAAAAICSoAAAAAIQEFQAAAICQoAIAAAAQElQAAAAAQoIKAAAAQEhQAQAAAAgJKgAAAAAhQQUAAAAgJKgAAAAAhAQVAAAAgJCgAgAAABASVAAAAABCggoAAABASFABAAAACAkqAAAAACFBBQAAACAkqAAAAACEBBUAAACAkKACAAAAEBJUAAAAAEKCCgAAAEBIUAEAAAAICSoAAAAAIUEFAAAAICSoAAAAAIQEFQAAAICQoAIAAAAQElQAAAAAQoIKAAAAQEhQAQAAAAgJKgAAAAAhQQUAAAAgJKgAAAAAhAQVAAAAgJCgAgAAABASVAAAAABCggoAAABASFABAAAACAkqAAAAACFBBQAAACAkqAAAAACEBBUAAACAkKACAAAAEBJUAAAAAEKCCgAAAEBobH7fzFI6BAAAADDK3FABAAAACAkqAAAAACFBBQAAACAkqAAAAACEBBUAAACAkKACAAAAEBJUAAAAAEKCCgAAAEBIUAEAAAAICSoAAAAAIUEFAAAAICSoAAAAAIQEFQAAAICQoAIAAAAQElQAAAAAQoIKAAAAQEhQAQAAAAgJKgAAAAAhQQUAAAAgJKgAAAAAhAQVAAAAgJCgAgAAABASVAAAAABCggoAAABASFABAAAACAkqAAAAACFBBQAAACA0Nr+rLJU2mJrJZ2anB7EJgz63k5xd85xdezm79nJ27eXs2svZtZezay9n117ObhU3VAAAAABCggoAAABASFABAAAACAkqAAAAACFBBQAAACAkqAAAAACEBBUAAACAkKACAAAAEBJUAAAAAEKCCgAAAEBIUAEAAAAICSoAAAAAIUEFAAAAICSoAAAAAIQEFQAAAICQoAIAAAAQElQAAAAAQoIKAAAAQEhQAQAAAAgJKgAAAAAhQQUAAAAgJKgAAAAAhAQVAAAAgJCgAgAAABASVAAAAABCggoAAABASFABAAAACAkqAAAAACFBBQAAACAkqAAAAACEBBUAAACAkKACAAAAEBJUAAAAAEKCCgAAAEBIUAEAAAAICSoAAAAAIUEFAAAAICSoAAAAAIQEFQAAAICQoAIAAAAQElQAAAAAQoIKAAAAQEhQAQAAAAgJKgAAAAAhQQUAAAAgJKgAAAAAhAQVAAAAgJCgAgAAABASVAAAAABCggoAAABASFABAAAACAkqAAAAACFBBQAAACAkqAAAAACEBBUAAACA0Nj8vpmldAgAAABglLmhAgAAABASVAAAAABCggoAAABASFABAAAACAkqAAAAACFBBQAAACAkqAAAAACEBBUAAACAkKACAAAAEBJUAAAAAEKCCgAAAEBIUAEAAAAICSoAAAAAIUEFAAAAICSoAAAAAIQEFQAAAICQoAIAAAAQElQAAAAAQoIKAAAAQEhQAQAAAAgJKgAAAAAhQQUAAAAgJKgAAAAAhAQVAAAAgJCgAgAAABASVAAAAABCY/O7ylI61HlTM9XmZqf7vcnocgajx5k3zxmMHmfePGcwepx585zBaHHe7T2H2eE/AzdUAAAAAEKCCgAAAEBIUAEAAAAICSoAAAAAIUEFAAAAICSoAAAAAIQEFQAAAICQoAIAAAAQElQAAAAAQoIKAAAAQEhQAQAAAAgJKgAAAAAhQQUAAAAgJKgAAAAAhAQVAAAAgJCgAgAAABASVAAAAABCggoAAABASFABAAAACAkqAAAAACFBBQAAACAkqAAAAACEBBUAAACAkKACAAAAEBJUAAAAAEKCCgAAAEBIUAEAAAAICSoAAAAAIUEFAAAAICSoAAAAAIQEFQAAAICQoAIAAAAQElQAAAAAQoIKAAAAQEhQAQAAAAgJKgAAAAAhQQUAAAAgJKgAAAAAhAQVAAAAgJCgAgAAABASVAAAAABCggoAAABASFABAAAACAkqAAAAACFBBQAAACAkqAAAAACEBBUAAACAkKACAAAAEBJUAAAAAEKCCgAAAEBIUAEAAAAICSoAAAAAIUEFAAAAICSoAAAAAIQEFQAAAIBQLx0A1m/vPU1vMITumW56Azp+Bgc/XrprvOLcLyue+f+o+DyaP4PjpTY7bqnvWa3S8X/WtkKHz2B+V9MbwGhxQwUAAAAgJKgAAAAAhAQVAAAAgJCgAgAAABASVAAAAABCggoAAABASFABAAAACAkqAAAAACFBBQAAACAkqAAAAACEBBUAAACAkKACAAAAEBJUAAAAAEK9dAAAeAnjNT9vsubn0T9zLfncPN7nPQCgA9xQAQAAAAgJKgAAAAAhQQUAAAAgJKgAAAAAhAQVAAAAgJCgAgAAABASVAAAAABCggoAAABASFABAAAACAkqAAAAACFBBQAAACAkqAAAAACEeukAAIyM8aYXoPMmK87N1vw57dcCAKzhhgoAAABASFABAAAACAkqAAAAACFBBQAAACAkqAAAAACEBBUAAACAkKACAAAAEBJUAAAAAEKCCgAAAEBIUAEAAAAICSoAAAAAIUEFAAAAICSoAAAAAIR66QAAtNJ4jc+arDg3V3FutuLcVMU5+meu5s/nuj83AaDD3FABAAAACAkqAAAAACFBBQAAACAkqAAAAACEBBUAAACAkKACAAAAEBJUAAAAAEKCCgAAAEBIUAEAAAAICSoAAAAAIUEFAAAAICSoAAAAAIQEFQAAAIDQ2Py+maV0CFifvTdON70CjJyDVX7ZTZZ6zdX8vOMV56b6vEcX1H12Lfjc3DEziEWA05nf5xce1MkNFQAAAICQoAIAAAAQElQAAAAAQoIKAAAAQEhQAQAAAAgJKgAAAAAhQQUAAAAgJKgAAAAAhAQVAAAAgJCgAgAAABASVAAAAABCggoAAABASFABAAAACPXSAQBgQCYrzs1VnBuv+XlV3786VX3fSoc/JgDAi3JDBQAAACAkqAAAAACEBBUAAACAkKACAAAAEBJUAAAAAEKCCgAAAEBIUAEAAAAICSoAAAAAIUEFAAAAICSoAAAAAIQEFQAAAICQoAIAAAAQElQAAAAAQr0yO11aYWomn2nL+9ZlVc7tJGcH8PJNVpybrTg3XnFursb3rcqz1qPqngD91JbfQ/szQns5u1XcUAEAAAAICSoAAAAAIUEFAAAAICSoAAAAAIQEFQAAAICQoAIAAAAQElQAAAAAQoIKAAAAQEhQAQAAAAgJKgAAAAAhQQUAAAAgJKgAAAAAhAQVAAAAgFAvHQAAOmKq4txsn/cYlmet52MCAIwcN1QAAAAAQoIKAAAAQEhQAQAAAAgJKgAAAAAhQQUAAAAgJKgAAAAAhAQVAAAAgJCgAgAAABASVAAAAABCggoAAABASFABAAAACAkqAAAAACFBBQAAACAkqAAAAACEBBUAAACAkKACAAAAEBJUAAAAAEKCCgAAAEBIUAEAAAAICSoAAAAAIUEFAAAAICSoAAAAAIQEFQAAAICQoAIAAAAQElQAAAAAQoIKAAAAQEhQAQAAAAj10gEAYMSN1/isyYpzczXPVd0TAGgtN1QAAAAAQoIKAAAAQEhQAQAAAAgJKgAAAAAhQQUAAAAgJKgAAAAAhAQVAAAAgJCgAgAAABASVAAAAABCggoAAABASFABAAAACAkqAAAAAKGx+X0zS+kQsD57b5xuegUYOQer/LKbLN02V/PzJjv8vlXVls+xCh/PHTODWAQ4nfl9fuFBndxQAQAAAAgJKgAAAAAhQQUAAAAgJKgAAAAAhAQVAAAAgJCgAgAAABASVAAAAABCggoAAABASFABAAAACAkqAAAAACFBBQAAACAkqAAAAACEBBUAAACAUC8dAICRMVdxbrLi3GzFufFSr6rvX53acgZ1f44BAH3jhgoAAABASFABAAAACAkqAAAAACFBBQAAACAkqAAAAACEBBUAAACAkKACAAAAEBJUAAAAAEKCCgAAAEBIUAEAAAAICSoAAAAAIUEFAAAAICSoAAAAAIR6ZXY6nem+qZlqcz6W/eMMgDabLe0w2fQCQ2iq5jMfrzg3V3EO6Da/F17Lnyvaew6zw38GbqgAAAAAhAQVAAAAgJCgAgAAABASVAAAAABCggoAAABASFABAAAACAkqAAAAACFBBQAAACAkqAAAAACEBBUAAACAkKACAAAAEBJUAAAAAEKCCgAAAEColw4AQCsdrzAzXvFZVeeqmqz5eaw1VXFutiWfY1V+/QBAx7mhAgAAABASVAAAAABCggoAAABASFABAAAACAkqAAAAACFBBQAAACAkqAAAAACEBBUAAACAkKACAAAAEBJUAAAAAEKCCgAAAEBIUAEAAAAICSoAAAAAoV46AAAj43jFufE+70F3jbfkcxoAWMMNFQAAAICQoAIAAAAQElQAAAAAQoIKAAAAQEhQAQAAAAgJKgAAAAAhQQUAAAAgJKgAAAAAhAQVAAAAgJCgAgAAABASVAAAAABCggoAAABASFABAAAACPXSAQDgJRyvODdecW6u4hyj9zkGAPSNGyoAAAAAIUEFAAAAICSoAAAAAIQEFQAAAICQoAIAAAAQElQAAAAAQoIKAAAAQEhQAQAAAAgJKgAAAAAhQQUAAAAgJKgAAAAAhAQVAAAAgJCgAgAAABDqpQMA0EY7bilDb8f+iUpzB3cu9H0X6uHMAaC93FABAAAACAkqAAAAACFBBQAAACAkqAAAAACEBBUAAACAkKACAAAAEBJUAAAAAEKCCgAAAEBIUAEAAAAICSoAAAAAIUEFAAAAICSoAAAAAIR66QAAMFx27J+oNHdw50LfdxlVVc+AtRa3b296BWjc1sOHm14BeBncUAEAAAAICSoAAAAAIUEFAAAAICSoAAAAAIQEFQAAAICQoAIAAAAQElQAAAAAQoIKAAAAQEhQAQAAAAgJKgAAAAAhQQUAAAAgJKgAAAAAhAQVAAAAgFAvHQAABuPgzoVKczv2T9Q6R/NnzlpbDx9uegVYY3H79qZXAAbIDRUAAACAkKACAAAAEBJUAAAAAEKCCgAAAEBIUAEAAAAICSoAAAAAIUEFAAAAICSoAAAAAIQEFQAAAICQoAIAAAAQElQAAAAAQoIKAAAAQEhQAQAAAAgJKgAAAAAhQQUAAAAgJKgAAAAAhAQVAAAAgJCgAgAAABASVAAAAABCggoAAABASFABAAAACAkqAAAAACFBBQAAACAkqAAAAACEBBUAAACAkKACAAAAEBJUAAAAAEJj8/tmltIhYH323jjd9ArAENqxf6LW5x3cudDZ96/L71sT71+dFrdvrzS39fDhvu8Cbft8nt83U2kOqMYNFQAAAICQoAIAAAAQElQAAAAAQoIKAAAAQEhQAQAAAAgJKgAAAAAhQQUAAAAgJKgAAAAAhAQVAAAAgJCgAgAAABASVAAAAABCggoAAABASFABAAAACPXSAQDg9Hbsn2h6BTqu6ufYwZ0Lfd+F4XWk4ty2Pu8B0FVuqAAAAACEBBUAAACAkKACAAAAEBJUAAAAAEKCCgAAAEBIUAEAAAAICSoAAAAAIUEFAAAAICSoAAAAAIQEFQAAAICQoAIAAAAQElQAAAAAQoIKAAAAQGhsfldZKm0wNZPPzE4PYhMGfW4jcHZ772l6A+Dl2LF/oukVYCgc3LlQ27MWt2+vNLf18OHSZUcqzPQmqv0z7PcL1c57W6Wpbqv783l+V2kHf0ZoL2e3ihsqAAAAACFBBQAAACAkqAAAAACEBBUAAACAkKACAAAAEBJUAAAAAEKCCgAAAEBIUAEAAAAICSoAAAAAIUEFAAAAICSoAAAAAIQEFQAAAICQoAIAAAAQ6qUDANBGO/ZPNL0CjNSvn4M7FwayS9sdqTjXm6jvn2FVn3VkodqZb6s0BdA8N1QAAAAAQoIKAAAAQEhQAQAAAAgJKgAAAAAhQQUAAAAgJKgAAAAAhAQVAAAAgJCgAgAAABASVAAAAABCggoAAABASFABAAAACAkqAAAAAKFeOgAAAFSzreLckYWFeKY3MVHpWb+v8Kz1vG8AbeWGCgAAAEBIUAEAAAAICSoAAAAAIUEFAAAAICSoAAAAAIQEFQAAAICQoAIAAAAQElQAAAAAQoIKAAAAQEhQAQAAAAgJKgAAAAAhQQUAAAAgJKgAAAAAhHrpAAAAUK9tFWaOLCzU9iyAUeSGCgAAAEBIUAEAWun5E883vQIAMMIEFQCgdX73zImy8C9Hm14DABhhggoA0DpH/v1YeeqxZ8rTR59rehUAYEQJKgBA626nLD56fPm/P/7IU02vAwCMKEEFAGjd7ZSlF/76lOOPP+uWCgDQCEEFAGjl7ZQVbqkAAE0QVACAVt5OWeGWCgDQBEEFAGjt7ZQVbqkAAHUTVACA1t5OWeGWCgBQN0EFAGj17ZQVbqkAAHUSVACAVt9OWeGWCgBQJ0EFAGj97ZQVbqkAAHXplamZ0lldft+6rutnd8900xsAdOp2yqm3VF6x5cxBrwVDb1vTC1C/rv8euuvvX5dNdfPs3FABADpxO2WFWyoAQB0EFQCgE7dTVvi7VACAOggqAEBnbqescEsFABg0QQUA6MztlBVuqQAAgyaoAACdup2ywi0VAGCQBBUAoFO3U1bdUll0SwUAGAxBBQDo3O2UFY//m1sqAMBgCCoAQOdup6xwSwUAGBRBBQDo5O2UFW6pAACDIKgAAJ28nbLCLRUAYBAEFQCgs7dTVrilAgD0m6ACAHT2dsoKt1QAgH4TVACATt9OWeGWCgDQT4IKANDp2ykr3FIBAPpJUAEAOn87ZYVbKgBAvwgqAEDnb6escEsFAOgXQQUAGInbKSvcUgEA+kFQAQBG4nbKCrdUAIB+EFQAgJG5nbLCLRUAYL0EFQBgZG6nrHBLBQBYL0EFABip2ykr3FIBANZDUAEARup2ygq3VACA9eitaxoAoIItf725vOp1myvN/r//8/iqt8/ojZU3XP5XlX6uDZv8f0sAQDWCCgBQu03nbOzbz7XxrA3lrFf17+cDAHg5/N8yAAAAACFBBQAAACAkqAAAAACEemV2Op3pvqmZanM+lv3jDIA+O7hzobZn7dg/UduzYFh/HQAN8Hvhtfy5or3nMDv8Z+CGCgAAAEBIUAEAAAAICSoAAAAAIUEFAAAAICSoAAAAAIQEFQAAAICQoAIAAAAQElQAAAAAQoIKAAAAQEhQAQAAAAgJKgAAAAAhQQUAAAAgJKgAAAAAhHrpAABwegd3LtT6vB37J1qxZ9/8/eo3n/3335eDNzX7vozcGQAAbqgAAAAApAQVAAAAgJCgAgAAABASVAAAAABCggoAAABASFABAAAACAkqAAAAACFBBQAAACAkqAAAAACEBBUAAACAkKACAAAAEBJUAAAAAEKCCgAAAEColw4AADRq/ylvH2toD4bK4vbtTa8AwIgRVACAdvm3U95+tqE9AICR5kt+AAAAAEKCCgAAAEBIUAEAAAAICSoAAAAAIUEFAAAAICSoAAAAAIQEFQAAAICQoAIAAAAQElQAAAAAQoIKAAAAQKiXDgAA1O38888vF1988fJ/bvnbLeXMjWeWxd8slsUnF8sv//WX5aH/eqg8//zzTa8JAIwQQQUAGDoXXXRR2b17d3nPe95TrrzyyrJ169bT/vhjx46Vu+66q3z5y18ut99+e1laWqptVwBgNAkqAMBQOOuss8pNN91UPvKRj5RLLrkkmj377LPLtddeu/zt5z//efnYxz5WHnjggYHtyuBsPXy46RUA4GXxd6gAAEPhvPPOK5/5zGfimHKqt771reXHP/5x+cQnPtG33QAATuWGCgAw9B555JHyox/9aPk/D59xuBx/+njZ9qpt5dIdl5Y9u/aU17/u9at+/MaNG8uXvvSl8txzz5WvfOUrje0NAHSXoAIADKVf/OIX5dZbby3f/OY3y8LCwp++482rf9yG328o173nujIzM1POOeecVd/3xS9+cfnvVjkZYgAA+smX/AAAQ+XOO+9c/otoT37pzuc///nVMeVFnDhxonz1q18tV1xxRVlcXFz1fZs2bSpf+MIXBrwxADCKBBUAYCg8+eST5V3vele56qqryj333BPPP/TQQ+X6669f8/rVV19dzj333D5tCQDwB4IKADAUjh49Wu6+++51/Rxzc3PlwIEDq17r9XrLUQUAoJ8EFQCgU773ve+tee3CCy9sZBcAoLsEFQCgUx599NE1r73mNa9pZBcAoLsEFQCgUzZv3rzmtaeffrqRXQCA7hJUAIBOedOb3rTmtUOHDjWyCwDQXYIKANAZGzZsKB/+8IfXvH7fffc1sg8A0F2CCgDQGR/60IfKa1/72lWvPfHEE+Xee+9tbCcAoJt6TS8AAKzPwZ0LTa8wFDZt2lQ++9nPrnn9a1/7Wjlx4sRAn+0M1jrS9AIwgtb3L54HUm6oAACdcDKmXHTRRateO3LkSLn55psb2wkA6C5BBQBovcnJyfKpT31qzes33XRT+fWvf93ITgBAtwkqAECrve2tbyvf+MY31rz+7W9/e/nLfQAABkFQAQBa64LzLyi3/cNtZXx8fNXrBw8eLNddd11jewEA3SeoAACtNLF9ovzjrf9YXrt99b/V59FHHy0f+MAHyrFjxxrbDQDoPkEFAGidV2979XJMufCvL1z1+qFDh8p73/ve5agCADBIggoA0Crbtmwr/3TrP5Udf7Nj1euPP/74ckx55JFHGtsNABgdggoA0Bpbtmwpd/zDHeWSiy5Z9foTTzyxHFMefvjhxnYDAEaLoAIAtMIrX/nKcscdd5S3Xfy2Va8vPrlY3v/+95ef/exnje0GAIweQQUAGHrnnHNO+eEPf1guu+yyVa8/+dSTZff/2l0efPDBxnYDAEaToAIADLWzzz67/OAHPyiXX375qtd/c+w3Zfff7S73Hbivsd0AgNElqAAAQ2t8fLx8//vfL+94xztWvf7U8afK1TdcXX5y4CeN7QYAjDZBBQAYSps3by633357ueKKK1a9fuz4sbLnhj3lnx/858Z2AwAQVACAofOKV7yi3HbbbeXKK69c9frx48fLNR+/ptz7wL2N7QYAcFLPhwEAGCabNm0q3/nOd8q73/3uVa//9re/Lddee225e+HuxnYDAFjhhgoAMDQ2btxY5ubmyvve9741MeWDH/xgueuuuxrbDQDgzwkqAMBQ2LBhQ/nWt75V9uzZs+r1p59+uuzdu7fceeedje0GAHAqX/IDAAyFj370o8vh5FTPPPNM+dznPvenFzad8gOWSinPnf7nvv/++8sNN9zQp00BAAQVAGCIvtznxWzdunX523ocPXp0XfMAAKfyJT8AAAAAIUEFAAAAIORLfgCAofD1r399+dtLevMpbz9bSvnPQW0FAPDi3FABAAAACAkqAAAAACFBBQAAACAkqAAAAACEBBUAAACAkH/LDwAArffYdM0PnKz5eTRvNh8575ZBLAIMCzdUAAAAAEKCCgAAAEBIUAEAAAAICSoAAAAAIUEFAAAAICSoAAAAAIQEFQAAAICQoAIAAAAQElQAAAAAQoIKAAAAQEhQAQAAAAgJKgAAAAChXjoAANCoy055+8lSyn82tAsAMLIEFQCgXd58ytuHG9qD4TJZcW6u4txsxbmpinP0T9UzH+/zHkDr+ZIfAAAAgJCgAgAAABASVAAAAABCggoAAABASFABAAAACAkqAAAAACFBBQAAACAkqAAAAACEBBUAAACAkKACAAAAEBJUAAAAAEKCCgAAAEBIUAEAAAAIjc3vm1lKh4D12XvjdNMrALTX35/y9uFSyv9uaBf+oiM1P++xeysOzpV6Ha84N9XnPbqg7rObzEfOe2ep1d37Zup9IIw4N1QAAAAAQoIKAAAAQEhQAQAAAAgJKgAAAAAhQQUAAAAgJKgAAAAAhAQVAAAAgJCgAgAAABASVAAAAABCggoAAABASFABAAAACAkqAAAAACFBBQAAACDUSwcAAKAzJivOzVWcG6/xeVXft7pV/VhW1ZaPCzD03FABAAAACAkqAAAAACFBBQAAACAkqAAAAACEBBUAAACAkKACAAAAEBJUAAAAAEKCCgAAAEBIUAEAAAAICSoAAAAAIUEFAAAAICSoAAAAAIQEFQAAAIBQr8xOl1aYmsln2vK+dVmVczvJ2QEAw2yy4txsxbnxCjNzNb9vVZ9Xat6zy9rye2h/RmgvZ7eKGyoAAAAAIUEFAAAAICSoAAAAAIQEFQAAAICQoAIAAAAQElQAAAAAQoIKAAAAQEhQAQAAAAgJKgAAAAAhQQUAAAAgJKgAAAAAhAQVAAAAgFAvHQCANtq6dWu57LLL/vjt7W9/e3nDG96w5seNjY01sh8wIqYqzs3mI+fdUvFZM9XGHvt4zR8TgIYJKgB00sUXX1yuueaa5XByMqBceOGFTa8EAECHCCoAdNL1119fPvnJTza9BgAAHeXvUAEAAAAICSoAjJRnn322PPDAA+WWW24pi4uLTa8zXP62lHJVKWVz04sAAAw/X/IDQGf97ne/Kw8//HC5//77//jtwIEDy6+ftHv37uW/rJYXbCyl7CqlXF5K+Ukp5cellN82vRQAwHASVADopJtvvrl8+tOfLs8880zTq7TPmcIKAMBLEVQA6KRf/epXTa/QfsMaVp4opZz7Z2//ssFdAICR5e9QAQBeXlj55JD8HSvHXuJtAIAauKECALTrxsqBUsp//NnbCw3sAACMPEEFAGhXWHmwxmcBAPwFggoA0M6wAgDQIEEFAFgfYQUAGEGCCgDQH8IKADBCBBUAoL+EFQBgBAgqAMBgCCsAQIcJKgDAYAkrAEAHCSoAQD2EFQCgQwQVAKBewgoA0AGCCkATriql/E0p5dWllI1NLzOk/rWU8kAD/yv45gE9652llNcP6OduK2EFAGgxQQWgCVtKKRNNLwFDQlgBAFrojKYXAAD4Y1j5ny/ElbGmlwEAOD03VACA5p0opfxLKeWeUsrRppcBAHhpggpAE07+3SD/t5Rybinl/KaXGVKP1fBlH0sv8tqgnnnohWgwzF73wi2ROgkpAEBLCSoATfiPphdg2YsFjv8e0LMG9fP201tKKR+p6VlCCgDQcoIKAFAfIQUA6AhBBQAYPCEFAOgYQQUAGBwhBQDoKEEFAOg/IQX6azwfeWy64rMmK87N1TxXdU+APhFUAID+EVIAgBEhqAAA6yekAAAjRlABAKoTUgCAESWoANBZ3/3ud8vExMRf/P4X+76f/vSnp/059+zZUw4dOtSX/VpNSAEARpygAkBnveUtbylvfOMbo5lLL730tN9/5plnlpEmpAAALBNUAICXJqQAAKwiqAAAf5mQAgDwogQVADrrggsuaHqF9hJSAABOS1ABAP5ESAEAeFkEFQDgDx4rpXxRSAEAeDkEFQDgD55oegEAgPY4o+kFAAAAANpGUAEAAAAIjc3vm1lKh4D12XvjdNMrAMBAHan5eY/dW9phrsZnTZbuvm8t+bic985Sq7v3zdT7QBhxbqgAAAAAhAQVAAAAgJCgAgAAABASVAAAAABCggoAAABASFABAAAACAkqAAAAACFBBQAAACAkqAAAAACEBBUAAACAkKACAAAAEBJUAAAAAEKCCgAAAEColw4AAEBnzFacGy/1mizDb7IlZzDX4TMAauWGCgAAAEBIUAEAAAAICSoAAAAAIUEFAAAAICSoAAAAAIQEFQAAAICQoAIAAAAQElQAAAAAQoIKAAAAQEhQAQAAAAgJKgAAAAAhQQUAAAAgJKgAAAAAhHpldjqd6b6pmWpzPpb94wwAgMRsaYfJphcYQlM1n/l4xbm5Mvz8Xngtf65o7znMDv8ZuKECAAAAEBJUAAAAAEKCCgAAAEBIUAEAAAAICSoAAAAAIUEFAAAAICSoAAAAAIQEFQAAAICQoAIAAAAQElQAAAAAQoIKAAAAQEhQAQAAAAgJKgAAAAChXjoAAABDZ7zm503W/DzWmqo4N9uSzzFg6LmhAgAAABASVAAAAABCggoAAABASFABAAAACAkqAAAAACFBBQAAACAkqAAAAACEBBUAAACAkKACAAAAEBJUAAAAAEKCCgAAAEBIUAEAAAAI9dIBAAAYNufN1PzAup8HwNBxQwUAAAAgJKgAAAAAhAQVAAAAgJCgAgAAABASVAAAAABCggoAAABASFABAAAACAkqAAAAACFBBQAAACAkqAAAAACEBBUAAACAkKACAAAAEBJUAAAAAEKCCgAAAEBIUAEAAAAICSoAAAAAIUEFAAAAICSoAAAAAIQEFQAAAICQoAIAAAAQElQAAAAAQoIKAAAAQEhQAQAAAAgJKgAAAAAhQQUAAAAgJKgAAAAAhAQVAAAAgFAvHQDWb35X0xsMoamZanOz0/3eZHQ5g9HjzJvX4TO4u+kFhlWHz7w1nAHQJ26oAAAAAIQEFQAAAICQoAIAAAAQElQAAAAAQoIKAAAAQEhQAQAAAAgJKgAAAAAhQQUAAAAgJKgAAAAAhAQVAAAAgJCgAgAAABASVAAAAABCggoAAABASFABAAAACAkqAAAAACFBBQAAACAkqAAAAACEBBUAAACAkKACAAAAEBJUAAAAAEKCCgAAAEBIUAEAAAAICSoAAAAAIUEFAAAAICSoAAAAAIQEFQAAAICQoAIAAAAQElQAAAAAQoIKAAAAQEhQAQAAAAgJKgAAAAAhQQUAAAAgJKgAAAAAhAQVAAAAgJCgAgAAABASVAAAAABCggoAAABASFABAAAACAkqAAAAACFBBQAAACAkqAAAAACEBBUAAACAkKACAAAAEBJUAAAAAEKCCgAAAEBIUAEAAAAICSoAAAAAIUEFAAAAICSoAAAAAIQEFQAAAICQoAIAAAAQElQAAAAAQoIKAAAAQEhQAQAAAAgJKgAAAAChsfl9M0vpEAAAAMAoc0MFAAAAICSoAAAAAIQEFQAAAICQoAIAAAAQElQAAAAAQoIKAAAAQEhQAQAAAAgJKgAAAAAhQQUAAAAgJKgAAAAAhAQVAAAAgJCgAgAAABASVAAAAABCggoAAABASFABAAAACAkqAAAAACFBBQAAACAkqAAAAACEBBUAAACAkKACAAAAEBJUAAAAAEKCCgAAAEBIUAEAAAAICSoAAAAAIUEFAAAAICSoAAAAAITG5neVpdIGUzP5zOz0IDZh0Od2krNrnrNrL2fXXs6uvZxdezm79nJ27eXs2svZreKGCgAAAEBIUAEAAAAICSoAAAAAIUEFAAAAICSoAAAAAIQEFQAAAICQoAIAAAAQElQAAAAAQoIKAAAAQEhQAQAAAAgJKgAAAAAhQQUAAAAgJKgAAAAAhAQVAAAAgJCgAgAAABASVAAAAABCggoAAABASFABAAAACAkqAAAAACFBBQAAACAkqAAAAACEBBUAAACAkKACAAAAEBJUAAAAAEKCCgAAAEBIUAEAAAAICSoAAAAAIUEFAAAAICSoAAAAAIQEFQAAAICQoAIAAAAQElQAAAAAQoIKAAAAQEhQAQAAAAgJKgAAAAAhQQUAAAAgJKgAAAAAhAQVAAAAgJCgAgAAABASVAAAAABCggoAAABASFABAAAACAkqAAAAACFBBQAAACAkqAAAAACEBBUAAACAkKACAAAAEBJUAAAAAEKCCgAAAEBIUAEAAAAICSoAAAAAIUEFAAAAICSoAAAAAIQEFQAAAICQoAIAAAAQGpvfN7OUDgEAAACMMjdUAAAAAEKCCgAAAEBIUAEAAAAICSoAAAAAIUEFAAAAICSoAAAAAIQEFQAAAICQoAIAAAAQElQAAAAAQoIKAAAAQEhQAQAAAAgJKgAAAAAhQQUAAAAgJKgAAAAAhAQVAAAAgJCgAgAAABASVAAAAABCggoAAABASFABAAAACAkqAAAAACFBBQAAACAkqAAAAACEBBUAAACAkKACAAAAEBJUAAAAAEKCCgAAAEBIUAEAAAAIjc3vKkvpUOdNzVSbm53u9yajyxmMHmfePGcwepx585zB6HHmzXMGo8V5t/ccZof/DNxQAQAAAAgJKgAAAAAhQQUAAAAgJKgAAAAAhAQVAAAAgJCgAgAAABASVAAAAABCggoAAABASFABAAAACAkqAAAAACFBBQAAACAkqAAAAACEBBUAAACAkKACAAAAEBJUAAAAAEKCCgAAAEBIUAEAAAAICSoAAAAAIUEFAAAAICSoAAAAAIQEFQAAAICQoAIAAAAQElQAAAAAQoIKAAAAQEhQAQAAAAgJKgAAAAAhQQUAAAAgJKgAAAAAhAQVAAAAgJCgAgAAABASVAAAAABCggoAAABASFABAAAACAkqAAAAACFBBQAAACAkqAAAAACEBBUAAACAkKACAAAAEBJUAAAAAEKCCgAAAEBIUAEAAAAICSoAAAAAIUEFAAAAICSoAAAAAIQEFQAAAICQoAIAAAAQElQAAAAAQoIKAAAAQEhQAQAAAAgJKgAAAAAhQQUAAAAgJKgAAAAAhAQVAAAAgJCgAgAAAFAy/x8l3vfu3y4T1wAAAABJRU5ErkJggg==;clipPath=inset(0% 0% 0% 0% round 49%);" parent="1" vertex="1">
          <mxGeometry x="-450" y="1650" width="500" height="500" as="geometry" />
        </mxCell>
      </root>
    </mxGraphModel>
  </diagram>
</mxfile>
